<mxfile host="Electron" agent="Mozilla/5.0 (Windows NT 10.0; Win64; x64) AppleWebKit/537.36 (KHTML, like Gecko) draw.io/24.7.8 Chrome/128.0.6613.36 Electron/32.0.1 Safari/537.36" version="24.7.8">
  <diagram name="Seite-1" id="YPEk4gJUxw7YQ_19PWB6">
    <mxGraphModel dx="700" dy="419" grid="1" gridSize="10" guides="1" tooltips="1" connect="1" arrows="1" fold="1" page="1" pageScale="1" pageWidth="827" pageHeight="1169" math="0" shadow="0">
      <root>
        <mxCell id="0" />
        <mxCell id="1" parent="0" />
        <mxCell id="x-n8w8ZSXr3gTca9L0IO-1" value="" style="whiteSpace=wrap;html=1;aspect=fixed;" vertex="1" parent="1">
          <mxGeometry x="280" y="160" width="80" height="80" as="geometry" />
        </mxCell>
        <mxCell id="x-n8w8ZSXr3gTca9L0IO-5" value="" style="whiteSpace=wrap;html=1;aspect=fixed;" vertex="1" parent="1">
          <mxGeometry x="360" y="160" width="80" height="80" as="geometry" />
        </mxCell>
        <mxCell id="x-n8w8ZSXr3gTca9L0IO-6" value="" style="whiteSpace=wrap;html=1;aspect=fixed;" vertex="1" parent="1">
          <mxGeometry x="280" y="240" width="80" height="80" as="geometry" />
        </mxCell>
        <mxCell id="x-n8w8ZSXr3gTca9L0IO-7" value="" style="whiteSpace=wrap;html=1;aspect=fixed;" vertex="1" parent="1">
          <mxGeometry x="360" y="240" width="80" height="80" as="geometry" />
        </mxCell>
        <mxCell id="x-n8w8ZSXr3gTca9L0IO-8" value="" style="whiteSpace=wrap;html=1;aspect=fixed;" vertex="1" parent="1">
          <mxGeometry x="440" y="160" width="80" height="80" as="geometry" />
        </mxCell>
        <mxCell id="x-n8w8ZSXr3gTca9L0IO-9" value="" style="whiteSpace=wrap;html=1;aspect=fixed;" vertex="1" parent="1">
          <mxGeometry x="520" y="160" width="80" height="80" as="geometry" />
        </mxCell>
        <mxCell id="x-n8w8ZSXr3gTca9L0IO-10" value="" style="whiteSpace=wrap;html=1;aspect=fixed;" vertex="1" parent="1">
          <mxGeometry x="440" y="240" width="80" height="80" as="geometry" />
        </mxCell>
        <mxCell id="x-n8w8ZSXr3gTca9L0IO-11" value="" style="whiteSpace=wrap;html=1;aspect=fixed;" vertex="1" parent="1">
          <mxGeometry x="520" y="240" width="80" height="80" as="geometry" />
        </mxCell>
        <mxCell id="x-n8w8ZSXr3gTca9L0IO-12" value="id = 4;&lt;div&gt;x = 0;&lt;/div&gt;&lt;div&gt;y = 1;&lt;/div&gt;" style="whiteSpace=wrap;html=1;aspect=fixed;" vertex="1" parent="1">
          <mxGeometry x="280" y="320" width="80" height="80" as="geometry" />
        </mxCell>
        <mxCell id="x-n8w8ZSXr3gTca9L0IO-13" value="id = 5;&lt;div&gt;x = 0;&lt;/div&gt;&lt;div&gt;y = 2;&lt;/div&gt;" style="whiteSpace=wrap;html=1;aspect=fixed;" vertex="1" parent="1">
          <mxGeometry x="360" y="320" width="80" height="80" as="geometry" />
        </mxCell>
        <mxCell id="x-n8w8ZSXr3gTca9L0IO-14" value="id = 0;&lt;div&gt;x = 0;&lt;/div&gt;&lt;div&gt;y = 0;&lt;/div&gt;" style="whiteSpace=wrap;html=1;aspect=fixed;" vertex="1" parent="1">
          <mxGeometry x="280" y="400" width="80" height="80" as="geometry" />
        </mxCell>
        <mxCell id="x-n8w8ZSXr3gTca9L0IO-15" value="id = 1;&lt;div&gt;x = 1;&lt;/div&gt;&lt;div&gt;y = 0;&lt;/div&gt;" style="whiteSpace=wrap;html=1;aspect=fixed;" vertex="1" parent="1">
          <mxGeometry x="360" y="400" width="80" height="80" as="geometry" />
        </mxCell>
        <mxCell id="x-n8w8ZSXr3gTca9L0IO-16" value="---" style="whiteSpace=wrap;html=1;aspect=fixed;" vertex="1" parent="1">
          <mxGeometry x="440" y="320" width="80" height="80" as="geometry" />
        </mxCell>
        <mxCell id="x-n8w8ZSXr3gTca9L0IO-17" value="---" style="whiteSpace=wrap;html=1;aspect=fixed;" vertex="1" parent="1">
          <mxGeometry x="520" y="320" width="80" height="80" as="geometry" />
        </mxCell>
        <mxCell id="x-n8w8ZSXr3gTca9L0IO-18" value="id = 2;&lt;div&gt;x = 2;&lt;/div&gt;&lt;div&gt;y = 0;&lt;/div&gt;" style="whiteSpace=wrap;html=1;aspect=fixed;" vertex="1" parent="1">
          <mxGeometry x="440" y="400" width="80" height="80" as="geometry" />
        </mxCell>
        <mxCell id="x-n8w8ZSXr3gTca9L0IO-19" value="id = 3;&lt;div&gt;x = 3;&lt;/div&gt;&lt;div&gt;y = 0;&lt;/div&gt;" style="whiteSpace=wrap;html=1;aspect=fixed;" vertex="1" parent="1">
          <mxGeometry x="520" y="400" width="80" height="80" as="geometry" />
        </mxCell>
        <mxCell id="x-n8w8ZSXr3gTca9L0IO-27" value="&lt;div&gt;id:number&lt;/div&gt;x:number&lt;div&gt;y:number&lt;/div&gt;" style="whiteSpace=wrap;html=1;aspect=fixed;" vertex="1" parent="1">
          <mxGeometry x="40" y="160" width="80" height="80" as="geometry" />
        </mxCell>
        <mxCell id="x-n8w8ZSXr3gTca9L0IO-28" value="" style="endArrow=classic;startArrow=classic;html=1;rounded=0;" edge="1" parent="1">
          <mxGeometry width="50" height="50" relative="1" as="geometry">
            <mxPoint x="40" y="260" as="sourcePoint" />
            <mxPoint x="120" y="260" as="targetPoint" />
          </mxGeometry>
        </mxCell>
        <mxCell id="x-n8w8ZSXr3gTca9L0IO-29" value="10px" style="edgeLabel;html=1;align=center;verticalAlign=middle;resizable=0;points=[];" vertex="1" connectable="0" parent="x-n8w8ZSXr3gTca9L0IO-28">
          <mxGeometry x="0.0818" y="-1" relative="1" as="geometry">
            <mxPoint x="-3" y="9" as="offset" />
          </mxGeometry>
        </mxCell>
        <mxCell id="x-n8w8ZSXr3gTca9L0IO-30" value="" style="endArrow=classic;startArrow=classic;html=1;rounded=0;" edge="1" parent="1">
          <mxGeometry width="50" height="50" relative="1" as="geometry">
            <mxPoint x="140" y="240" as="sourcePoint" />
            <mxPoint x="140" y="160" as="targetPoint" />
          </mxGeometry>
        </mxCell>
        <mxCell id="x-n8w8ZSXr3gTca9L0IO-31" value="10px" style="edgeLabel;html=1;align=center;verticalAlign=middle;resizable=0;points=[];" vertex="1" connectable="0" parent="x-n8w8ZSXr3gTca9L0IO-30">
          <mxGeometry x="0.0886" relative="1" as="geometry">
            <mxPoint x="20" y="4" as="offset" />
          </mxGeometry>
        </mxCell>
        <mxCell id="x-n8w8ZSXr3gTca9L0IO-32" value="Grid Cell" style="text;html=1;align=center;verticalAlign=middle;whiteSpace=wrap;rounded=0;" vertex="1" parent="1">
          <mxGeometry x="50" y="130" width="60" height="30" as="geometry" />
        </mxCell>
        <mxCell id="x-n8w8ZSXr3gTca9L0IO-33" value="Definitonen und Eigenschaften des Grids" style="text;html=1;align=center;verticalAlign=middle;whiteSpace=wrap;rounded=0;fontSize=15;" vertex="1" parent="1">
          <mxGeometry x="264" width="300" height="100" as="geometry" />
        </mxCell>
        <mxCell id="x-n8w8ZSXr3gTca9L0IO-34" value="Grid" style="text;html=1;align=center;verticalAlign=middle;whiteSpace=wrap;rounded=0;" vertex="1" parent="1">
          <mxGeometry x="414" y="130" width="60" height="30" as="geometry" />
        </mxCell>
        <mxCell id="x-n8w8ZSXr3gTca9L0IO-35" value="" style="endArrow=classic;startArrow=classic;html=1;rounded=0;" edge="1" parent="1">
          <mxGeometry width="50" height="50" relative="1" as="geometry">
            <mxPoint x="240" y="160" as="sourcePoint" />
            <mxPoint x="240" y="480" as="targetPoint" />
          </mxGeometry>
        </mxCell>
        <mxCell id="x-n8w8ZSXr3gTca9L0IO-37" value="Y" style="edgeLabel;html=1;align=center;verticalAlign=middle;resizable=0;points=[];" vertex="1" connectable="0" parent="x-n8w8ZSXr3gTca9L0IO-35">
          <mxGeometry x="0.028" y="-2" relative="1" as="geometry">
            <mxPoint x="-8" y="-4" as="offset" />
          </mxGeometry>
        </mxCell>
        <mxCell id="x-n8w8ZSXr3gTca9L0IO-36" value="" style="endArrow=classic;startArrow=classic;html=1;rounded=0;" edge="1" parent="1">
          <mxGeometry width="50" height="50" relative="1" as="geometry">
            <mxPoint x="279.31" y="520" as="sourcePoint" />
            <mxPoint x="600" y="520" as="targetPoint" />
          </mxGeometry>
        </mxCell>
        <mxCell id="x-n8w8ZSXr3gTca9L0IO-38" value="X" style="edgeLabel;html=1;align=center;verticalAlign=middle;resizable=0;points=[];" vertex="1" connectable="0" parent="x-n8w8ZSXr3gTca9L0IO-36">
          <mxGeometry x="0.0512" y="2" relative="1" as="geometry">
            <mxPoint y="12" as="offset" />
          </mxGeometry>
        </mxCell>
        <mxCell id="x-n8w8ZSXr3gTca9L0IO-44" value="" style="whiteSpace=wrap;html=1;aspect=fixed;" vertex="1" parent="1">
          <mxGeometry y="640" width="80" height="80" as="geometry" />
        </mxCell>
        <mxCell id="x-n8w8ZSXr3gTca9L0IO-45" value="" style="whiteSpace=wrap;html=1;aspect=fixed;" vertex="1" parent="1">
          <mxGeometry x="80" y="640" width="80" height="80" as="geometry" />
        </mxCell>
        <mxCell id="x-n8w8ZSXr3gTca9L0IO-46" value="" style="whiteSpace=wrap;html=1;aspect=fixed;" vertex="1" parent="1">
          <mxGeometry y="720" width="80" height="80" as="geometry" />
        </mxCell>
        <mxCell id="x-n8w8ZSXr3gTca9L0IO-48" value="" style="whiteSpace=wrap;html=1;aspect=fixed;" vertex="1" parent="1">
          <mxGeometry x="160" y="640" width="80" height="80" as="geometry" />
        </mxCell>
        <mxCell id="x-n8w8ZSXr3gTca9L0IO-49" value="" style="whiteSpace=wrap;html=1;aspect=fixed;" vertex="1" parent="1">
          <mxGeometry x="240" y="640" width="80" height="80" as="geometry" />
        </mxCell>
        <mxCell id="x-n8w8ZSXr3gTca9L0IO-50" value="" style="whiteSpace=wrap;html=1;aspect=fixed;" vertex="1" parent="1">
          <mxGeometry x="160" y="720" width="80" height="80" as="geometry" />
        </mxCell>
        <mxCell id="x-n8w8ZSXr3gTca9L0IO-51" value="" style="whiteSpace=wrap;html=1;aspect=fixed;" vertex="1" parent="1">
          <mxGeometry x="240" y="720" width="80" height="80" as="geometry" />
        </mxCell>
        <mxCell id="x-n8w8ZSXr3gTca9L0IO-52" value="" style="whiteSpace=wrap;html=1;aspect=fixed;" vertex="1" parent="1">
          <mxGeometry y="800" width="80" height="80" as="geometry" />
        </mxCell>
        <mxCell id="x-n8w8ZSXr3gTca9L0IO-53" value="" style="whiteSpace=wrap;html=1;aspect=fixed;" vertex="1" parent="1">
          <mxGeometry x="80" y="800" width="80" height="80" as="geometry" />
        </mxCell>
        <mxCell id="x-n8w8ZSXr3gTca9L0IO-54" value="" style="whiteSpace=wrap;html=1;aspect=fixed;" vertex="1" parent="1">
          <mxGeometry y="880" width="80" height="80" as="geometry" />
        </mxCell>
        <mxCell id="x-n8w8ZSXr3gTca9L0IO-55" value="" style="whiteSpace=wrap;html=1;aspect=fixed;" vertex="1" parent="1">
          <mxGeometry x="80" y="880" width="80" height="80" as="geometry" />
        </mxCell>
        <mxCell id="x-n8w8ZSXr3gTca9L0IO-56" value="" style="whiteSpace=wrap;html=1;aspect=fixed;" vertex="1" parent="1">
          <mxGeometry x="160" y="800" width="80" height="80" as="geometry" />
        </mxCell>
        <mxCell id="x-n8w8ZSXr3gTca9L0IO-57" value="" style="whiteSpace=wrap;html=1;aspect=fixed;" vertex="1" parent="1">
          <mxGeometry x="240" y="800" width="80" height="80" as="geometry" />
        </mxCell>
        <mxCell id="x-n8w8ZSXr3gTca9L0IO-58" value="" style="whiteSpace=wrap;html=1;aspect=fixed;" vertex="1" parent="1">
          <mxGeometry x="160" y="880" width="80" height="80" as="geometry" />
        </mxCell>
        <mxCell id="x-n8w8ZSXr3gTca9L0IO-59" value="" style="whiteSpace=wrap;html=1;aspect=fixed;" vertex="1" parent="1">
          <mxGeometry x="240" y="880" width="80" height="80" as="geometry" />
        </mxCell>
        <mxCell id="x-n8w8ZSXr3gTca9L0IO-66" value="" style="group;fillColor=default;" vertex="1" connectable="0" parent="1">
          <mxGeometry x="80" y="720" width="110.71067811865396" height="110.71067811865396" as="geometry" />
        </mxCell>
        <mxCell id="x-n8w8ZSXr3gTca9L0IO-64" value="Element" style="whiteSpace=wrap;html=1;aspect=fixed;fillColor=none;strokeColor=#000000;" vertex="1" parent="x-n8w8ZSXr3gTca9L0IO-66">
          <mxGeometry width="80" height="80" as="geometry" />
        </mxCell>
        <mxCell id="x-n8w8ZSXr3gTca9L0IO-62" value="" style="endArrow=classic;html=1;rounded=0;entryX=1;entryY=1;entryDx=0;entryDy=0;" edge="1" parent="x-n8w8ZSXr3gTca9L0IO-66">
          <mxGeometry width="50" height="50" relative="1" as="geometry">
            <mxPoint x="40" y="40" as="sourcePoint" />
            <mxPoint x="110.71067811865396" y="110.71067811865396" as="targetPoint" />
          </mxGeometry>
        </mxCell>
        <mxCell id="x-n8w8ZSXr3gTca9L0IO-65" value="Richtungs Vektor&amp;nbsp;&lt;div&gt;Länge = 1!&lt;/div&gt;" style="edgeLabel;html=1;align=center;verticalAlign=middle;resizable=0;points=[];" vertex="1" connectable="0" parent="x-n8w8ZSXr3gTca9L0IO-62">
          <mxGeometry x="0.2525" y="-1" relative="1" as="geometry">
            <mxPoint x="-4" y="-5" as="offset" />
          </mxGeometry>
        </mxCell>
        <mxCell id="x-n8w8ZSXr3gTca9L0IO-68" value="" style="whiteSpace=wrap;html=1;aspect=fixed;" vertex="1" parent="1">
          <mxGeometry x="507" y="640" width="80" height="80" as="geometry" />
        </mxCell>
        <mxCell id="x-n8w8ZSXr3gTca9L0IO-69" value="" style="whiteSpace=wrap;html=1;aspect=fixed;" vertex="1" parent="1">
          <mxGeometry x="587" y="640" width="80" height="80" as="geometry" />
        </mxCell>
        <mxCell id="x-n8w8ZSXr3gTca9L0IO-70" value="" style="whiteSpace=wrap;html=1;aspect=fixed;" vertex="1" parent="1">
          <mxGeometry x="507" y="720" width="80" height="80" as="geometry" />
        </mxCell>
        <mxCell id="x-n8w8ZSXr3gTca9L0IO-71" value="" style="whiteSpace=wrap;html=1;aspect=fixed;" vertex="1" parent="1">
          <mxGeometry x="667" y="640" width="80" height="80" as="geometry" />
        </mxCell>
        <mxCell id="x-n8w8ZSXr3gTca9L0IO-72" value="" style="whiteSpace=wrap;html=1;aspect=fixed;" vertex="1" parent="1">
          <mxGeometry x="747" y="640" width="80" height="80" as="geometry" />
        </mxCell>
        <mxCell id="x-n8w8ZSXr3gTca9L0IO-73" value="" style="whiteSpace=wrap;html=1;aspect=fixed;" vertex="1" parent="1">
          <mxGeometry x="667" y="720" width="80" height="80" as="geometry" />
        </mxCell>
        <mxCell id="x-n8w8ZSXr3gTca9L0IO-74" value="" style="whiteSpace=wrap;html=1;aspect=fixed;" vertex="1" parent="1">
          <mxGeometry x="747" y="720" width="80" height="80" as="geometry" />
        </mxCell>
        <mxCell id="x-n8w8ZSXr3gTca9L0IO-75" value="" style="whiteSpace=wrap;html=1;aspect=fixed;" vertex="1" parent="1">
          <mxGeometry x="507" y="800" width="80" height="80" as="geometry" />
        </mxCell>
        <mxCell id="x-n8w8ZSXr3gTca9L0IO-76" value="" style="whiteSpace=wrap;html=1;aspect=fixed;" vertex="1" parent="1">
          <mxGeometry x="587" y="800" width="80" height="80" as="geometry" />
        </mxCell>
        <mxCell id="x-n8w8ZSXr3gTca9L0IO-77" value="" style="whiteSpace=wrap;html=1;aspect=fixed;" vertex="1" parent="1">
          <mxGeometry x="507" y="880" width="80" height="80" as="geometry" />
        </mxCell>
        <mxCell id="x-n8w8ZSXr3gTca9L0IO-78" value="" style="whiteSpace=wrap;html=1;aspect=fixed;" vertex="1" parent="1">
          <mxGeometry x="587" y="880" width="80" height="80" as="geometry" />
        </mxCell>
        <mxCell id="x-n8w8ZSXr3gTca9L0IO-79" value="" style="whiteSpace=wrap;html=1;aspect=fixed;" vertex="1" parent="1">
          <mxGeometry x="667" y="800" width="80" height="80" as="geometry" />
        </mxCell>
        <mxCell id="x-n8w8ZSXr3gTca9L0IO-80" value="" style="whiteSpace=wrap;html=1;aspect=fixed;" vertex="1" parent="1">
          <mxGeometry x="747" y="800" width="80" height="80" as="geometry" />
        </mxCell>
        <mxCell id="x-n8w8ZSXr3gTca9L0IO-81" value="" style="whiteSpace=wrap;html=1;aspect=fixed;" vertex="1" parent="1">
          <mxGeometry x="667" y="880" width="80" height="80" as="geometry" />
        </mxCell>
        <mxCell id="x-n8w8ZSXr3gTca9L0IO-82" value="" style="whiteSpace=wrap;html=1;aspect=fixed;" vertex="1" parent="1">
          <mxGeometry x="747" y="880" width="80" height="80" as="geometry" />
        </mxCell>
        <mxCell id="x-n8w8ZSXr3gTca9L0IO-83" value="" style="group;fillColor=default;container=0;" vertex="1" connectable="0" parent="1">
          <mxGeometry x="587" y="720" width="80" height="80" as="geometry" />
        </mxCell>
        <mxCell id="x-n8w8ZSXr3gTca9L0IO-87" value="Beispiel der Richtungsvektor" style="text;html=1;align=center;verticalAlign=middle;whiteSpace=wrap;rounded=0;" vertex="1" parent="1">
          <mxGeometry x="320" y="570" width="170" height="30" as="geometry" />
        </mxCell>
        <mxCell id="x-n8w8ZSXr3gTca9L0IO-88" value="" style="endArrow=none;html=1;rounded=0;dashed=1;" edge="1" parent="1">
          <mxGeometry width="50" height="50" relative="1" as="geometry">
            <mxPoint x="10" y="600" as="sourcePoint" />
            <mxPoint x="820" y="600" as="targetPoint" />
          </mxGeometry>
        </mxCell>
        <mxCell id="x-n8w8ZSXr3gTca9L0IO-89" value="Tick 1" style="text;html=1;align=center;verticalAlign=middle;resizable=0;points=[];autosize=1;strokeColor=none;fillColor=none;" vertex="1" parent="1">
          <mxGeometry y="960" width="60" height="30" as="geometry" />
        </mxCell>
        <mxCell id="x-n8w8ZSXr3gTca9L0IO-90" value="Tick 2" style="text;html=1;align=center;verticalAlign=middle;resizable=0;points=[];autosize=1;strokeColor=none;fillColor=none;" vertex="1" parent="1">
          <mxGeometry x="507" y="960" width="60" height="30" as="geometry" />
        </mxCell>
        <mxCell id="x-n8w8ZSXr3gTca9L0IO-84" value="Element" style="whiteSpace=wrap;html=1;aspect=fixed;fillColor=none;strokeColor=#000000;" vertex="1" parent="1">
          <mxGeometry x="587" y="720" width="80" height="80" as="geometry" />
        </mxCell>
        <mxCell id="x-n8w8ZSXr3gTca9L0IO-85" value="" style="endArrow=classic;html=1;rounded=0;entryX=0.5;entryY=0.5;entryDx=0;entryDy=0;entryPerimeter=0;" edge="1" parent="1" target="x-n8w8ZSXr3gTca9L0IO-82">
          <mxGeometry width="50" height="50" relative="1" as="geometry">
            <mxPoint x="627" y="760" as="sourcePoint" />
            <mxPoint x="697.710678118654" y="830.710678118654" as="targetPoint" />
          </mxGeometry>
        </mxCell>
        <mxCell id="x-n8w8ZSXr3gTca9L0IO-86" value="Richtungs Vektor&amp;nbsp;&lt;div&gt;* Geschwidnigkeit&lt;/div&gt;" style="edgeLabel;html=1;align=center;verticalAlign=middle;resizable=0;points=[];" vertex="1" connectable="0" parent="x-n8w8ZSXr3gTca9L0IO-85">
          <mxGeometry x="0.2525" y="-1" relative="1" as="geometry">
            <mxPoint x="-29" y="-30" as="offset" />
          </mxGeometry>
        </mxCell>
        <mxCell id="x-n8w8ZSXr3gTca9L0IO-92" value="Element" style="whiteSpace=wrap;html=1;aspect=fixed;" vertex="1" parent="1">
          <mxGeometry x="60" y="1040" width="80" height="80" as="geometry" />
        </mxCell>
        <mxCell id="x-n8w8ZSXr3gTca9L0IO-93" value="Kalkulation vom Richtungsvektor" style="text;html=1;align=center;verticalAlign=middle;whiteSpace=wrap;rounded=0;" vertex="1" parent="1">
          <mxGeometry y="1010" width="220" height="30" as="geometry" />
        </mxCell>
        <mxCell id="x-n8w8ZSXr3gTca9L0IO-94" value="" style="endArrow=classic;html=1;rounded=0;" edge="1" parent="1">
          <mxGeometry width="50" height="50" relative="1" as="geometry">
            <mxPoint x="280" y="1040" as="sourcePoint" />
            <mxPoint x="280" y="1120" as="targetPoint" />
          </mxGeometry>
        </mxCell>
        <mxCell id="x-n8w8ZSXr3gTca9L0IO-95" value="Gravitation (1g)&lt;div&gt;x = 0&lt;/div&gt;&lt;div&gt;y = -1&lt;/div&gt;" style="edgeLabel;html=1;align=center;verticalAlign=middle;resizable=0;points=[];" vertex="1" connectable="0" parent="x-n8w8ZSXr3gTca9L0IO-94">
          <mxGeometry x="0.0559" y="-3" relative="1" as="geometry">
            <mxPoint y="-72" as="offset" />
          </mxGeometry>
        </mxCell>
        <mxCell id="x-n8w8ZSXr3gTca9L0IO-97" value="" style="endArrow=classic;html=1;rounded=0;" edge="1" parent="1">
          <mxGeometry width="50" height="50" relative="1" as="geometry">
            <mxPoint x="360" y="1040" as="sourcePoint" />
            <mxPoint x="480" y="1120" as="targetPoint" />
          </mxGeometry>
        </mxCell>
        <mxCell id="x-n8w8ZSXr3gTca9L0IO-98" value="Richtung (Nomiert)&lt;div&gt;x = 2&lt;/div&gt;&lt;div&gt;y = -1&lt;/div&gt;" style="edgeLabel;html=1;align=center;verticalAlign=middle;resizable=0;points=[];" vertex="1" connectable="0" parent="x-n8w8ZSXr3gTca9L0IO-97">
          <mxGeometry x="0.0559" y="-3" relative="1" as="geometry">
            <mxPoint x="-17" y="-75" as="offset" />
          </mxGeometry>
        </mxCell>
        <mxCell id="x-n8w8ZSXr3gTca9L0IO-99" value="" style="shape=image;verticalLabelPosition=bottom;labelBackgroundColor=default;verticalAlign=top;aspect=fixed;imageAspect=0;image=data:image/png,iVBORw0KGgoAAAANSUhEUgAABgIAAALpCAYAAABxHz0PAAAAAXNSR0IArs4c6QAAAARnQU1BAACxjwv8YQUAAAAJcEhZcwAAEnQAABJ0Ad5mH3gAAP+lSURBVHhe7N0JfBTl/fjxb4BcECAgqVBPRJRDQLBqodoKHq0g/iqW+lesVUFtRa0KWg+8WtRWQa0ccqNQ8KrQqmDrAeIBCChYlWgVAbmigIQAEq7kn++TGVzCbOaZZbPM7n7er9fD7jwzO88++2XzJPOdeSajvIIAAAAAAAAAAICUlPHss8+aRMDq1atNRa1atSQjI8M8d/ktp4tDDz3UeQYA6U1zyGVlZbJr1y6zrOOCFncMKS0tlezsbLPsrq8qsm737t1mf1lZWU6Nvy+//FIOP/xw69fE0obbD6/37yURbWzevFm2bdsmP/zhD50af2HsBzEn5jaIOTH3Q8yJuQ1iTsz9JKKNWBDz5I4533NiboOYE3M/8exHxrx580wiYNmyZWallshkQNVHFfk8nRx22GHOMwCASwelnTt37h079FEHwrp160rt2rWrHT/cZX39nj17JDc31yzbWLx4sbRs2VLy8vKcmurF0sbWrVvN9toPG4loY926deY12ndbYewHMSfmNog5MfdDzIm5DWJOzP0koo3//Oc/UlJSIr1793Zq/BHz5I4533NiboOYE3M/8exHxldffWUSAZ988olZqSXyDE73IE11B3LSxVFHHeU8AwBE0kFp+/btZvxwEwH16tWTOnXqmPV+48mOHTvMPjR5YGv+/PnSpk0badCggVNTvVja2LJlixk83X74SUQbegWf/hGpfbcVxn4Qc2Jug5gTcz/EnJjbIObE3E9NtzF9+nR57LHHzNmc3bt3l5tuuslZUz1inrwxV3zPibkNYk7M/cSzHxmbN282iQDN3OhKNxHgFrNRxAEcV9XldNC8eXPnGQCgKh2Yvvvuu72JAD0TIDMzc58xJNp4opet6aVuQQa2d955R9q1aycNGzZ0aqoXSxs6oOv2tgN0Itr46quvzGtOOOEEp8ZfGPtBzIm5DWJOzP0Qc2Jug5gTcz812cZzzz0nf/nLX+Sss84yr/n444+lR48ecvvttztbREfMkzPmLr7nxNwGMSfmfuLZj4yKnZlEwIIFC8wBG93AvTJA6QGdyAM4rqoHctLBMccc4zwDAHjRTLUOUpoQ0ESAnvXkjiNuUVXHE32NJhL0KgJbb7/9tvlFIz8/36mpXixt6Hx/kVc2+ElEGytXrjSvad++vVPjL4z9IObE3AYxJ+Z+iDkxt0HMibmfmmrj6aeflvvvv1/uvPNO2bRpkyxcuFD69+9vSs+ePWXQoEHOlt6IefLFPBLfc2Jug5gTcz/x7EfG7t27TSJg7ty55oCNmwxwD9yQCPheixYtnGcAgGg2btxopgnSSwLdREDVsaTqGOJe6hZkYHvrrbfMYJtuv2isWLHCZPfT8ZdLYk7M/RBzYm6DmBNzP8ScmNvwa0OTAH/+859NEuCSSy6RESNGmETAU089JYsWLZLf/e53cv7558vdd9/tvGJ/xDy5Yl4V33NiboOYE3M/8exHLfcAjV5iUF5evs+BGncdhUKhUCi2Ra8o0zHFHUsii7tNPMaYeOwjWUu69p2Ye69L5ULMvdelciHm3utSuRBz73WpXNKh37NmzTJJAD3j/9JLLzW/H2u/3b6fcsopMnr0aHnppZdk5MiR+70+1Qrfc+91qVyIufe6VC7E3Htd2EpGWVmZuSJg9uzZkpOTY87e1BJ5r4DIgzmRqi6nOq4IAAB/RUVFJiNev359yc7O3nfQiRhLIscQvQu+Jg/0Zja23nvvPWndunWgmxEFbUNvsKPz6rnT5flJRBt6MyJ9jfbdVhj7EUsbxJyY+yHmxNwGMSfmfog5Mbfh18brr78uZ5555t7feZ944gl5//33Zdy4cWZZ6XKnTp2iHlsh5skV86r4nhNzG8ScmPuJZz9qeR2U0SsDlLuOQqFQKBTbsmvXLnNgXx93795tig5abtFL2iKXYy3alo5XXuviWeL1fqsrQdpwx2ivddWVsPUjlkLMvddHK8TcvhBz+0LM7QsxtyvE3Ht9tELM7cvB/qy6du26Tz9V1X6feOKJvp8FMbcvYfustM/Ka111hZjbF2JuX4i5fUnlmGdUvGHzjt944w2TWeA+AdFxRQAA+Fu2bJlJBDRq1MhkoHU80Sx05HhSdUzRDLcOUkHmvJszZ4506NAhLecg1Ndo322FsR+xtEHMibkfYk7MbRBzYu6HmBNzG0HbGDZsmCxYsEAmT57s1Pgj5skdc77nxNwGMSfmfuLZj8p5fypoPsDNYgAAcCB0kNJss+3YwvgDAAAAAABQc/YmAhTJAABAPEReesbYAgAAAAAAcHDtkwgAACAe3CsCtCj3EQAAAAAAAIm3XyKAszYBAAfKvRJART5WrQMAAAAAAEDN25sI4GxNAEA8RR74j0QSAAAAAAAAILGYGggAEHeRSYDIA/8kAQAAAAAAABIvVImAFRt3y5JVO0zR5wCA5FT1gD8JAAAAAAAAgIPHMxGQyAM2L/93m1z3zHo5/eE18odn18vDrxabos+1TtfpNjg4imdfJ8c06yPTNjgVSIwN06RPs04y9FNnGUhSOp6QBAAAAAAAADi4DtoVAf/+5Dv5v5HrZNqSbXJEozpyfbeGckWXBtL7pDxT9LnW6TrdRrfV16SOQrm/czNpdkQXuf9jpypsPh0q3brNlEtemiK9mjh1Hko3FElRUbGUOsv+SqVo0TQZenM/6XfzUJm2qCjKa223qyFbiyv6VSTFVo2WSnHFtrr9fmWfHVhu16SXjJ/QSQZ37iMzi506IIlw8B8AAAAAACA8Dkoi4C//3iTj3y2Rbq3qyvnt68nxh2ZJVu0MZ+33tE7X6Ta6rb5GX5sSFk2R4fOLpGj1PBn/XKFTGSbLZehvBsry66fI4B85VV7euU6aFTSTZs36yyynqlq7C2X8ORXbd+4vM4sqlotmSn9NiJwzXgojZ4Oy3a6m7J4n1x3RqKJfzaT/a05dtWZJ/4ptdfv9yg2Rn4ztdiI55w6XKT2nSY/Lpgq5gNQ3f/58efDBB01ZuHChU5v8SAgAAAAAAAAcfBnlzlGaV199VerWrStZWVmmZGZmSq1atSQjI2Pvo3mB86gin9u6458bZePWMjn3hLpOTTCvfPydHJJXSx745SFOTeK0aNHCeXbgZl2bK2euHiLD5Tq57rX+8saW4dKtjrMyDGZfJ7ndPpAhq+ZK/8Oduqp2F8r9HTvJjLzmMm9+R5lRPkW6O6uiKbz7GGkzrLPMWF6xbb5TWTxT+jTvIYvv+FKW3tLcVNluV1MKH2wjnV7Ml+bz50nHF8tlSk9nRVQV7y2jh5ROWicjznaqXDn50jQ/x1mw3c7xxVBp03KE9ProSxl8glOHlPPll1/KqFGjnKVK119/vRxxxBHOUnJZtmyZrFmzRho1aiS5ubmSnZ0tderUkdq1a+8zprhF7dy50yQNcnKqfAeqsWTJEjn22GMlLy/PqametlFWVhaojW3btpnt9b3bSEQbegXR1q1bTd9thbEfsbRBzIm5H2JOzG0Qc2Luh5gTcxtB2xg7dqy8//77+/3eXx1intwx53tOzG0Qc2LuJ579SGgi4G+ziuXjNTulR7t6Tk1sZny0TU44LEv+0M09QpwYcUsE7J4l19U/U5ZP2C4vyIWSe8ks6T9ruwzv6qw/6Eplaq9c6VM8TtbN6itNndqqisaeKc0e6CxTrp0mfW61SQQsl6HtjpEhPT+QdQ90dOoqLb6jmXR6aaB8+dEAaW69XQ1ZPV7OPOJ+6Ty1v0y7ZGCgRID4bmu7natIRnRuJgM7viHbR3Zz6pBq5syZIzNmzHCWKvXs2VNOP/10Zym5aCJg/fr10qRJEzOuaCJABx8dVyLHFLeoHTt2mIFNt7f17rvvygknnCANGzZ0aqqnbezZsydQGyUlJWZ7TWTYSEQbX331lXmN9t1WGPsRSxvEnJj7IebE3AYxJ+Z+iDkxtxG0jREjRpgrf5988kmnxh8xT+6Y8z0n5jaIOTH3E89+JGxqoPnLS+W1pdvl7Db2bzoa3YfuS/eZjEqfHyEjSntJn545ktOzj3SXUhkxbGpi57+vztZpMmW6SMee3aImAaR4qvS9epZ0f2CgdHaqrERJXpVuLRYpyJdcZ9l6u7grlqnX9pNZPQfLwJOdqoOqqXTp2lRKJ06TeU4NUo/Xmf9HHnmk8yw56cF+Pfivg45N0W2DbK9F1XQbsWxf0224iRSvddFKGPsRSxvE3Hu9VwljP2Jpg5h7r/cqYexHLG0Qc+/1XiWM/YilDWLuvd6rhLEfsbRBzL3Xe5Uw9iOWNoi593qvEsZ+xNIGMfde71XC2I9Y2iDm3uu9ysHsR8ISAePeKZEuLXI87wUQlO5D96X7TD6lMu3paSIXXCi99GqZvF7S54KKx+lTZNpWs8HBt2SuzJIc6XJytHPuS2Xmzf1l5tF3yuDeQa7KaC59775ESh8dItM2OFVq9XgZPDZHLrnpQifxYLtd/JW+MlD6v9Rc7qxoP6brTXaXSuHsETLo6kEy4pXFUhztfga221Xo2LlbxRubJbM+dSqQco455hi54IILJD8/Xxo3biy9e/eWo446ylkLAAAAAAAAHJiEJAKWrNoh324rkzbNspyaA6f70n3qvpPK6vEy/CWRS664xDnpPUd69e5V8ThThk/Uu+JaKi6Umc9Pk2lBymuFVlcdFBXqdq2lebR7AywaLNdNLJVLHh8kHSuTftbye06Rwqm5MrhlI2l2RLPKcvIIaTa1UKb0/P7Qu+12cbV7sQy+dryU/ma4DKruBsnVmPrrXGnTfajMK5ong8/vJI1aXyezPO70a7ud0bpTRTQKZennzjJSUufOneWOO+6Q2267TU4+ORSXowAAAAAAACBFJCQRMOfz7XJsQaazFD+6T913Mln+9AiZl9Nf+p7rVFTI6d1XLql4nDf1BQmQCgiujt1NJbYXr6v4t7W0PrpyeV/LZegV98vynuNlRE/7m1R8r1iWvv2BFJY2k07n9pAe53aSRsWFsnTx8oo1kWy3i5/lj/aR+1d0l/GPd482M5GvnHPHybotX8obL74h69a/IJesHiFnXrn/tE+22xl5+dKs4mHxp8srlwEAAAAAAAAggIQkAj74aocc2TjgqeMWdJ+67+RRKONHFopc0EXabCgyd5Y2ZUMn6XFxxer5Q2X4x5Vb+spvLd179zJXE1iXrs2tDnAXb9rkPNtf0dh+MvDjjjLkkdimzll8Ryc584nWMmXdUpkxZpyMGzNDlq6bIs0f7iJd7l7sbGW/XdysHi/9bi2Ujo8Ml0tiuuCgm4xYt07WPddXmrr/1fN7yXVXVXzi08fLlL0ZHtvtIjRtVmNTISE89C7w77//vim7du1yagEAAACEUV5enpkbGgCAZJGQUWtN8R45JK+2sxQ/uk/dd9JYNEXGr6h4fLqPNGvWbJ/S52ndYLmMn1oDB7kDym/UyHlW1TwZfMMskaY5UvhQP+l3dWUZOFXPVJ8nQ83yeInag61TZfCDy6XpTQOlV+TB9vxeMvCmplL45yEyU+fKt90uoOUPtzE38NintBta8alXvPuHrpNZ0lRyPrp/b7/63TGlct2wyuXxS8xuosiR/KZNJb9KpqXpEXqfhVkya2Hlsv12SCfbt2+XRx99VJ599llTHnvsMZMYAAAAABBOeiNGEgEAgGSSkFFr244yyc088JsEV6X71H0ni1kThkrR0XfK0vJyKd+vLJU7jxYpenS8zLI5yF2D9wiILkc6/qav9O3ZxlmuVFxsudeidVJY8dCo0f6n3FcmHxZLoSZKbLcLqPnv58o6PRs/sszuL3oIPqddH+l7VQ9pE3nhSnHxAX5e38u1vCDGc7uKz6NGp4zCQbdkyRLZuHGjsySyfv16U4fY7dmTREliAAAAJIWJEydK+/btTTnttNNk6dKlzhoAAMIvIYmAOrUyZE8NHK/Xfeq+k8LumTL+iVLpfPN10tqp2ldr6XttxZrSETL+Facq3nZX7N55Wp3cfJ2RvtDjYHtH6Wum6dm3DDhd13WWAWa5b8VWURzd2qxbvnz/ue4r67pI62MrHmy3CyovX5o2bbpvaVJ5an7Hq/bv17jrO5t1na+vXO57oln0VLponhTul8AplXlva0qjl3Qzn5H9dvvYWix614aOrTRlgVSkV6dUpQlCxG7OnDmybNkyZyl2XrEBAABA+hk0aJA888wzMnPmTFmwYIH06dNHBgwYIBs2bHC2AAAg3BKSCGhcr5aUlMY/E6D71H0ng9Lnx8tU6Sx9Log+23vzi/tXbCEydWKUm8ZGiuUeAee2tprXv2nr1pIjhbJ8tVMRo6JXdJqd+2Wmezp7ne4y6IHWUvrEQBk0//tb/ha/M0gGPlEqHR8aIN21wnY7Y7GM12l8xiZwSqWimXJ/RZv3v+J2rFim3d1FunQfIYu3OlUViqf3lf4vScX7HSyX5Jkay+2qKPygIhqtpU1LZxkpp0OHDtIoYkqugoICU4fY7d69W8aPHy9ffPGFU7Ov0tJS+eCDD2T69OkyYsQIeeCBB+T22283UzRNnTpV3nzzTZNIyM7OJhkAAACQ5vTM/9dff11uvvlmOeywwyQnJ0cuuOACc2+vjz+2vdEfAAAHV0KOoh93aKas2xzDpO4+dJ+67/ArlimTp4n0vE76Hu5UeTn8QunbteJx+hSZ8v3x78T7cXfpJaUyd+H+Z+QHsf3jKTJ+7BQpjDjo3fr2ufLG9cVyf+dGkmvuj5ArjU6/X0pvekNm3fL9tRK221X8L5BZY8fL+Lf1nPkE2VooUyranPLxdqciXy6ZOlcG1RksnepnSKMjKt5vo4rHXlOl2T7v13a7fS2eN6vi3y7SsVXlMlJPbm6uOZuod+/ectFFF8mNN95o/rhA7PTgvSYDJkyYsDcZoHU6ZdDLL78sgwcPNmd0zZs3T1auXCnFxcVmnU4ZptMy6Zleo0ePlocfftgsc4UGAABA+vr666+lXr16cuKJJ+49SeTQQw+VGTNmyOmne13WDQBA+GSUO0c3Xn31Valbt65kZWWZkpmZaW58o4Oc+2he4DyqyOfV+eeSbfLKx9/JuSfUdWriw93nL0+s59TUrBYtWjjPUl2pTO2VK312T5HtL14iNXE4srRoscx6e3lFSznS/PRu0rGpdys22828MkOGdl4nb1wV/WqLRCldXfF+5+n7zZfWZ3eR1lXvCuyw3U5kuQxtd4wM7DhDyid9fx0EEGZ6Jr1O46VjiiY0dEzRcUTHFR03qhalB+2VbmNrxYoVZoqvqkmT+vXrmzO2Zs3SJFrljdz69u1r3o8mBkpKSky9DU0O6HvXKzb0rK+WLVvK1q1boyYGtB+6Lkg/duzYsXfMtaFJC72iQftuK2gbiehHLG1Ei3k0Ye0HMSfmfog5MbdBzIm5H2J+4P045JBDTAJArzTVqSf/3//7f3LHHXeYdQ0aNDAnjrRp08ZcGbBp0ybZvt09WWx/kydPlg8//FCGDBni1Pgj5uHqR9A2+J4TcxvEnJj7iWc/EpII2LqjTM59fJ1cdXoDaZBj10k/Oi3Q2LdL5JUbmklednz26Sd9EgEVZl8nud0+kCGr5kr/6q5iOOgK5f7W10nT2W9IX/vvXPL4eJAc026EdH97kww/zakDQk4TAf/973/NmKJT67iJgDp16kQdU8rKKqeP04P2tvSPrby8vP0GQ/2D7Y033pDZs2c7NWLaVvpHmtumvj+90Vvr1q3Ne1Tbtm0zB/q/+eYbWbRokRnQdXu36FywrVq1km+//dYMxFVpP7Q+SD90UNft3fflR//A1NdowsNW0DYS0Y9Y2ogW82jC2g9iTsz9EHNiboOYE3M/xPzA+qG/s/7whz80J4SMGzdOhg4dKr169ZK77rrLrH/yySdlypQpMmbMGPP75Pr166WoyJ0+dn/PPfecfPLJJ3Lfffc5Nf6Iebj6EbQNvufE3AYxJ+Z+4tmPhCQC1Mg5m+WTtTvl7NbxuSrgtcLvpO0Ps+TanzV0ampeWiUCpEjGd2smA0+YK5ser7xpbjgtlvF/Xic97uouqZcHKJWZlzWSHsXjZdOLl1jd3wHJa/78+XsPXJ911lly8sknm+fJSBMBGzdulCZNmuxNBugApONK5JjiFqUH3HVw0zOubL399tvSrl07yc/f99uh+3zttddMiaQDoQ55+j70Eu7u3bub9+UMg/vQfWgGXa8q0PsFuNto/SWXXGLu4eD1Ou2HXkUQpB+bN28227vJCj86lZG+RpMYtoK2kYh+xNJGtJhHE9Z+EHNi7oeYE3MbxJyY+yHmB94P9/fVsWPHmisC9N5SDRtWHoPQq0yvvfZaOeqoo+T+++83vxt6/X7oGj58uLnJ8KRJk5waf8Q8XP0I2gbfc2Jug5gTcz/x7EdiTqWvcM3pDaWoZI8sXbfTqYmd7kP3pftETWkqfccMkebD+sr9nzpVodRR+qZkEkCk+KW+0uelXjJjEkmAVPfll1/KtGnTTAZdy/PPPy+rVq1y1iYv/aNJD/rXVFFe9e4fbNHK2WefLeeff74ZEHU52j70ksauXbtK//79zR98Wqf03gJ6RYDX6xJR3H54rUv1orzqU70Qc+91qVyIufe6VC7E3HtdKhdi7r0ubEVj5NLlyDNddWogvWJATzZRfvEk5t7rUrkQc+91qVyIufe6VC5JF3MTqQSoXdHSXT0ayUv/3SZfbtjl1Aanr9V96L50n6hBxw6QWbO6yfiufWTaBqcOibF6qvS9ulAGzZsi3ckCpDyvg/46vx5qhp7hr1ct2Ni5c6ccfvjhJhmgN3VWeuWC3hgOAAAA6eHUU081U0hqcX333XfmJsLHHHOMUwMAQLgl9FD6iYdny8MXNpHpi7fJktU7nFp7+hp9re5D94Wal991uHy5bor0auJUIDEOv0ReWPeBDGjlLCOlHXHEEc6z7x155JHOM8SbnrWlN3yzTQboJd46N+xFF13k1Ih8/PHH5hJAAAAApL4TTjjBHPD/29/+5tSIPPvss/Lpp5/Kj3/8Y6cGAIBwS/g59acdmyPjflMgKzbskhf/u01Wb6q8jK46uo1uq6/R1+o+ACBV6B8VF1xwgZlLr3HjxtK7d28z1yhqTtBkgGrTpo25N4Drn//8p/MMAAAAqUynU9D7AOzatUtOPPFEU/S+ASNHjjRzYgMAkAwOyuQ6xzfNkicvP1TObVtXZv9vu0xZsEXe+ny7mft/5be7ZeXG3ea51uk63Ua31dfoawEg1XTu3FnuuOMOue2225L6RsHJxE0GfPHFF06Nv5///OcmWXPGGWfIhRde6NQCAAAg1WVlZcmf//xnmTt3rimvv/66dOzY0SQJAABIBgd1xOp9Up68cE1TufPcRtLusCzZuqNMCtftlMKinea51uk63Ua3BQDAht4Q+KGHHvItDzzwgBx77LHOq/w1adLEJGu6d+9u7h0AAACA9KHJgLp165qi94/SG0QCAJAsQpG6PvGIbLmiSwN54JeHyKg+Baboc63TdQAAHKg9e/aYqwAAAACAA7Vlyxbz+yUAAMmCa9gAAGlBb/pbVlbmLAEAAACx098tAQBIJiQCAAAAAAAAAABIYSQCAAAAAAAAAABIYRnlzvVsr776qrnhjd78RktmZqa5+73e/MZ9NC+IuBlOut0Yp0WLFs4zAEA0y5Ytk7Vr10qjRo3MTdSys7Oldu3aUqdOnX3GFLeonTt3msurc3JyzLKNxYsXS8uWLSUvz+5m8tqGTg0UpI1t27aZ7fX920hEG+vWrZOtW7eavtsKYz9iaYOYE3M/xJyY2yDmxNwPMSfmNoK2MWbMGHn//fdl9OjRTo0/Yp7cMed7TsxtEHNi7iee/SAREACJAADwp4mA9evXyyGHHGLGFTcRoONK5JjiFrVjxw4zsOn2tubOnSsnnHCCNGjQwKmpnrahN3QL0obeBE6TGZrEsJGINlatWiUlJSXStm1bp8ZfGPsRSxvEnJj7IebE3AYxJ+Z+iDkxtxG0jZEjR8rChQtl4sSJTo0/Yp7cMed7TsxtEHNi7iee/SAREACJAADwp4mAjRs3SkFBgdSrV88qEVBaWmoSAbq9rTlz5kiHDh0kPz/fqametqGDZ5A2Nm/ebLa3HaAT0caKFSvMa7TvtsLYj1jaIObE3A8xJ+Y2iDkx90PMibmNoG0MGzZMFixYIJMnT3Zq/BHz5I4533NiboOYE3M/8ewH9wgAAAAAAAAAACCFkQgAAAAAAAAAACCFkQgAAAAAAAAAACCFkQgAAAAAAAAAACCFkQgAAAAAAAAAACCFkQgAAAAAAAAAACCFkQgAAAAAAAAAACCFkQgAAAAAAAAAACCFkQgAAAAAAAAAACCFZZRX0Cevvvqq1K1bV7KyskzJzMyUWrVqSUZGxt5H8wLnUUU+TwctWrRwngEAolm2bJl888030rhxY6lXr54ZU2rXrm3GlcgxxS2qtLRUdDjSccjW/PnzpXXr1tKwYUOnpnraRllZWaA2SkpKzPZ16tRxaqqXiDZWrVolW7ZskTZt2jg1/sLYj1jaIObE3A8xJ+Y2iDkx90PMibmNoG2MHDlSFi1aJBMmTHBq/BHz5I4533NiboOYE3M/8ewHiYAASAQAgD9NBKxbt84kAnRcyc7ONokAHYAixxS3qB07dphEQG5urlm2oX9IHX/88VK/fn2npnrahg6eQdrQAV23tx2gE9HGmjVrZOvWrabvtsLYj1jaIObE3A8xJ+Y2iDkx90PMibmNoG2MHj3a9H3s2LFOjT9intwx53tOzG0Qc2LuJ579IBEAAIhrolMTARs3bpSCgoJ9EgF+VwTowKZXENh66623pH379pKfn+/UVE/b2LNnT6A2Nm/ebLa3HaAT0cbKlSvNa7TvtsLYj1jaIObE3A8xJ+Y2iDkx90PMibmNoG0MHz5cFixYIJMmTXJq/BHz5I4533NiboOYE3M/8ezH3kRAYWGh5OXlSU5Ozt5EgB64iXbQRkU+T3V6YIsrAgDAX2QiQAeemkoEzJkzRzp06JB2v2isWLHCvEb7biuM/YilDWJOzP0Qc2Jug5gTcz/EnJjbCNrGsGHDTCJg8uTJTo0/Yp7cMed7TsxtEHNi7iee/eBmwQAAAAAAAAAApDASAQAAAAAAAAAApDASAQAAAAAAAAAApDASAQAAAAAAAAAApDASAQAAAAAAAAAApDASAQAAAAAAAAAApDASAQAAAAAAAAAApDASAQAAAAAAAAAApDASAQAAAAAAAAAApLCM8gr6pLCwUPLy8iQnJ0eysrIkMzNTateuLRkZGVKrVi3z6BZX5PNUt2zZMmnRooWzBACIRn9erl27Vho1aiS5ubmSnZ1txpM6depEHVN27twpOhzpGGRr8eLF0rJlSzN22dA2ysrKArWxbds2s72+fxuJaKOoqEi2bNli+m4rjP2IpQ1iTsz9EHNiboOYE3M/xJyY2wjaxtixY2XRokUyevRop8YfMU/umPM9J+Y2iDkx9xPPfpAIsEQiAADs6M/Lb775Rpo0aSJ169bdmwjQcSXamLJjxw4zsOn2tubOnStt27aVhg0bOjXV0zb27NkTqI2SkhKzvSYxbCSijVWrVpnXaN9thbEfsbRBzIm5H2JOzG0Qc2Luh5gTcxtB2xg5cqQsXLhQJk6c6NT4I+bJHXO+58TcBjEn5n7i2Q8SAZZIBACAHf15uXHjRikoKJB69epZJQJKS0tNIkC3tzVnzhzp0KGD5OfnOzXV0zZ08AzSxubNm832tgN0ItpYsWKFeY323VYY+xFLG8ScmPsh5sTcBjEn5n6IOTG3EbSNYcOGyYIFC2Ty5MlOjT9intwx53tOzG0Qc2LuJ5794B4BAAAAAAAAAACkMBIBAAAAAAAAAACkMBIBAAAAAAAAAACkMBIBAAAAAAAAAACkMBIBAAAAAAAAAACkMBIBAAAAAAAAAACkMBIBAAAAAAAAAACkMBIBABAC8+fPlwcffNCUhQsXOrUAAAAAAADAgSMRAAAH2ZdffinTpk2TTZs2mfL888/LqlWrnLUAAAAAAADAgckor6BPCgsLJS8vT3JyciQrK0syMzOldu3akpGRIbVq1TKPbnFFPk91y5YtkxYtWjhLSGdvvPGGnHXWWfLpp5/K8ccf79TG5r777pPXXntN3nnnHacG6WjOnDkyY8YMZ6lSz5495fTTT3eWkov+vPzmm2/kkEMOkbp165oxRccTHVeijSk7duwQHY5yc3PNsg29iqJNmzbSoEEDp6Z62kZZWVmgNrZs2WL6oO/fRiLa0CSRvkb7biuM/YilDWJOzP0Qc2Jug5gTcz/EnJjbCNrGyJEjZdGiRTJhwgSnxh8xT+6Y8z0n5jaIOTH3E89+kAiwRCLge4sXL5abb77ZPJ89e7Z5rE6/fv3M5/fYY49Jhw4dnNrq3XvvvebgqM3+E+nNN9+Url27yr/+9S85//zzndr9TZ8+XR544AHzpdN+VOeCCy6Q9u3bm6QA0pNeETBq1ChnqVL//v3lqKOOcpaSi37f161bJ40bNzbfgezsbDOe1KlTJ+qYogNb0ESA/iGlybj69es7NdWLdfDU7fW920hEG2vWrJGtW7cGSkSGsR+xtEHMibkfYk7MbRBzYu6HmBNzG0HbGD16tOn72LFjnRp/xDy5Y873nJjbIObE3E88+0EiwBKJgH1169bNHKR///33pVOnTk6tN/1/cvbZZ8urr77q1PjTRIAeGHf+e4aCJkBOO+00c4D2oYcecmq96RUDxx57rPllT1934oknOmv2p5/hj370I/n73/8uffr0cWqRbubNm2e+U/rz9swzz5STTz7ZWZN89Oflxo0bpaCgYJ9EQHVXBJSWlpqBrV69embZxltvvWWSaPn5+U5N9bSNPXv2BGpj8+bNZnvbAToRbaxYsUJKSkpM322FsR+xtEHMibkfYk7MbRBzYu6HmBNzG0HbGDZsmLkX2KRJk5waf8Q8uWPO95yY2yDmxNxPPPvBPQIQk4suusg8/u1vfzOP0YwfP948XnrppeaxJuhZ+lpq2uTJk+W7776T3r17OzXetm3bZqYPOvXUU82y32d00kknydVXXy0TJ050apCOOnfuLHfccYfcdtttSZ0EqCrygH+8S03vP8wlXfuerv3Wkq59T9d+a0nXvqdrv7Wka9/Ttd9a0rXv6dpvLena93Ttt5Z07Xu69ltLuvY9XfutJZn6TiIAMdHpfjSz9Oyzzzo13nT+Q50frCbPdNcrB2p6Wh29pGbq1Kny85//3Pcg7ZNPPmk+G71qQqd20WU/l19+uUkeLFiwwKkBAAAAAAAAgPggEYCY6DQfelWAzlMV7dLGpUuXyty5c6Vv375m+2Sml3B+/fXX8uMf/9ipiW748OHmqgFNAuj8/0qTCNXRs8EPP/xwMz0Q0tPOnTvNNFFadu3a5dQCAAAAAAAAB45EwEGmU9rofPhaIrl1iZjyJla//e1vzePTTz9tHqvSqXSU17RAmjy47LLL5Nxzz5Xrr7/eJA1suJ+LXomgVwFEfm7uusg6pWfz33777fLrX//aFH2+YcMGZ22lyNf997//lYcfflguvvhis6z07udKrwiozieffCKffvrp3umD3BsKV70RrJfTTz/dzBuJ9LN9+3Z59NFHzf9rLXpjbU0MAAAAAAgnvRdWsp/wBgBILyQCQiDatDY1Pd3NgfrpT38q7dq1k3//+9+yevVqp/Z7L730kjnTverNhDUBoEmEDz/8UFq3bm2mw9ED9H7JgN/85jfmM9Ez5/VqBL2R8Jw5c5y1Yp67xaUH5fVGxX/5y1/Mst4MW+fi1xs/v/vuu6bOpfvWxEv37t1NIqCoqMhZI/Laa6+ZG51qf6ozZcoUcyXAOeecY5a7du1qbgT89ttvy/r1601dNB06dDCPX331lXlE+liyZIm5ua5L/69oHQAAAIBw0r8Pdb5lAACSBYmAFKNntVe9EYRNueKKK8ydroNyz5rXA+CRZs6cac6O13sJRNKpb/RKAb0KQBMBjzzyiLz33ntSUFAgL774orPV/q666irzWr3xrrtP7evs2bPNc6XP3eLSs//VypUr5bnnnjNXIixevFh69eolp512mrmLdiQ9cK/rvvnmm332o1cQNG7c2FmKTqcFOuuss/a5K7d7VcDjjz9uHqNp1KiReSQRkH70O1iVJroAAAAAhMNnn30mPXr0MCfEuUWXtR4AgGRAIiDF6MFxPYAYtOhZ8kcffbSzF3s33XSTeXz55ZfNo8s9qF91WiCdIufUU0/d76C4nrU/bdo0Z2lfN9xwg4wbN04efPBB89yWvqd//vOfMmjQIDnyyCOdWpFmzZrJhRdeaJ7rPiPp+/A6YK9na/slArQ9nYZIEwGR3LZeeOEF8xgNiYD0pVeDuPFXmhhzrxABAAAAcPCtW7fOTOn5xBNP7J3Sc8KECXLMMcc4WwAAEG4kAnBAdKodPeP9nXfeMVP8KD3LXhMBepPgrKwsU+fSqw70CoCqVyTceeedUlhY6Gz1vTvuuMPMm6/Jg0suucSpteMeUD/ppJPMYyS37ssvvzSPrvPOO895ti+bKwL0F8EmTZqY6Yjcew5o0SsR9N4C2r+33nrL2Xp/JALSV25urgwYMMDcW0KnvbrxxhvNdwsAAABAOCxfvtycVKYn0OmjlkMPPdRMEQQAQDIgEYAD5p6lr9MBqenTp5uzJa6++mqzHKm4uNhM8xM5jY9b9J4CVekZ+/fcc49JHjzwwANOrZ2tW7eaR69fzNw6dxtX+/btnWf7OuSQQ8zZH9HoVEI6dVH//v2dmn39+Mc/No9Vp1CK9N1335lHDgCnJ02anXzyySZJxR8TAAAAQLh88cUX5uC/3iQYAIBkRCIgxehUODrPfdDy2GOPOXsI7swzz5SmTZvKk08+aZZ1ChydiueUU04xy5HatGkja9askTPOOMOzVKVJAD2rXi+5HD16tIwZM8ZZ409v2qu85mx062wv49SzPr799ltnaX96NYDSM7kjrwaILCra9EdKrzpQP/jBD8wjAAAAAODg05PC1q5dK6+99pr5+1n/du3Zsyf3BwAAJJWMcp0gvoJOW5KXl2fORtYzU/WM1Nq1a5tpW2rVqrV3ChctrsjnqW7ZsmXSokULZyl+3nzzTfOLhHvA26Vnpn/00UfmTHmvA+TV0X0GdeKJJ0p+fr6zFNyf//xnufvuu83UN3rTpKFDh8rNN9/srP3eX/7yF3MDX69+vf/++3un7NHP4r777jP3L3D9+te/NlcG/Pvf/5bWrVs7tZU3+F2/fr18/PHHTk0l3d+PfvQjadu27X7rrrnmGpNUGD9+vFx55ZV724v2eetNkfWKh6o3F3adfvrp5gbB+vpo3Db1ZslV752gHnroIfnjH/8or776qrlXAdLL/Pnz9/7/0ftM6NUByUp/XupNuXUciRxP3Jtou2OKch/1u151jPGzY8cOs3/b17g/T4K04b4vW4loY8+ePVJWVhboypEw9iOWNog5MfcT1n4EbYOYE3MbYexHLG0Qc2Lu52D2Q0/SOuKII8zfgX369JHjjz9ebrvtNrNOf3/Xv+/+9re/yXHHHWdOHNOpZzW2XvSkPT3uon8P20pEPBLRBt9zvud+wtqPoG0Qc2Ju42D2g0SApZpKBOzcudMcgNc55B999FHzxdEpcm655RazPpZEwMGgU+zUr1/f9OM///mPbNu2zfOSSe1fly5d5IMPPjDJDz04rmdRPP300+aXKPc/t1ciQH+x0rP8tY1//OMfTm3l9EF6LwHdn/rXv/5l7llQr149GTJkiPks9TPUudf1//ecOXPM1Qt6zwF3qh6/RID+sqZJDD1rX6cJiqT3RtB7GOiUSL/85S+d2v25iYlevXp53jhY349+DjY3JkZq0T8Y9Ebaka6//nrzR0cy0p+XK1euND/b3DFFxxMdVyLHEreoXbt2me97dna2Wbah45b+TLC9PFvb0AE6SBt69pdur+OgjUS0oYlPfU3kTdD9hLEfsbRBzIm5H2JOzG0Qc2Luh5gTc5eeyKLHSfRR/xbU32vdE+g2bdok1157rTlJTU+K07/tt2zZEjURoFe5L1myRB5//HGnxh8xD1c/grbB95yY2yDmxNxPPPtBIsBSTSUCVL9+/cyZ6apVq1bmgLUejNYz3ZMlEaB+8YtfmCSAPr7yyitO7f40GaAH7vVgvDvdjk7Ro/cA0L4rr0SA0gP3eja9nnXh3ptAz6DXM/Z1XzodkR6Mv+CCC8xnqTQpMHDgQHM1gdKD9tddd90+Z+X7JQLeffddOe2002TixIly+eWXO7WV9CavjzzyyH7v1Yv7ndGbJusPyEh60Fd/cGhbSC+anJoxY4azVEkvNdYrTZKR/rzUhJbePFt/CdDBJzIR4DWmlJaWmoFNE3i23n77bXP1VMOGDZ2a6mkb+odZkDZKSkpMH9yrGfwkog1Nsuhr2rVr59T4C2M/YmmDmBNzP8ScmNsg5sTcDzEn5pEif2eNpH//6Uln+nvuX//6V1Onv89GM3z4cFm4cKE89dRTTo0/Yh6ufgRtg+85MbdBzIm5n3j2wy71gBo1btw4E1S9+ZAmZPSgtB6M1l8skiUJoHTKHn3P1SUBlB4U1KmD9EChHnjXfi9dunRvEkDpZ+B1YF0vx9R6NwmgzjnnHLMvvUGxHuzXs/fdJIDSA/h62eby5ctN0edVp+Zx24v2ef/kJz8x9wnQpEJV2hev9+pFt9NSNQkwb948Wb169d6bCiO9eJ35HySbHFb6B5Me9K+pkog2anr/WoK24f4h6rUuWgljP2IpqqbbCeNnpdsrr3XRShj7EUtRNd1OGD8r3V55rYtWwtiPWIqq6XbC+Fnp9sprXbQSxn7EUlRNtxPGz0q3V17ropUw9iOWomq6nXjuX/elV7HrFdyR9wTQv+H171D9O9Hl9Xq36H78tqlaEhGPRLSharqdMH5Wur3yWhethLEfsRRV0+2E8bPS7ZXXumgljP2IpaiabieMn5Vur7zWRSsHtR/m3eKg04PjNXXFQZjpgXftd5DLW6LRGxZXR39Bi/wlLSid0keTHJpwiDedVqhBgwbSt29fpwbpRK+I0atY9DJjnRaqd+/e+yWLAAAAABwczZo1MwdVnn32Waem8m84vYFw9+7dnRoAAMKNRABgSW/gq7/ojR492qmJD72fwvPPPy833XSTtGnTxqlFuuncubOZMktvPpbMNwoGAAAAUo3eD0+n/9ErzPVkNi2aFHjsscfk8MMPd7YCACDcSAQAlvTeB3pDY70/gd7kKV4efvhhadSokdx6661ODQAAAAAgLPRqgMMOO8z87ab3rdOiJ4gdd9xx5h4BAAAkAxIBQABXXXWVXHnllebGwvGgvzz+4x//kL///e/mJh4AAAAAgPDRZECTJk1MQkDLoYceauZbBgAgWTBqAQHpzYH/8Ic/yJtvvunUxEZff/zxx8tzzz3HlEAAAAAAkES2bt0qe/bscZYAAAg/EgFADNx5IQ+Euw+SAAAAAACQXMrKypxnAAAkBxIBAAAAAAAAAACkMBIBAAAAAAAAAACksIzyCvqksLBQ8vLyJCcnR7KysiQzM9Pc/V5viKM3wNFHt7gin6e6ZcuWSYsWLZwlAEA0+vNy/fr10rhxY3MTbB1TdDzRcSXamLJjxw7R4Sg3N9cs25g/f76ZWqtBgwZOTfW0Db2EO0gbW7ZsMX3Q928jEW2sXr1aSkpKAk0rFsZ+xNIGMSfmfog5MbdBzIm5H2JOzG0EbeOJJ56QhQsXyoQJE5waf8Q8uWPO95yY2yDmxNxPPPtBIsASiQAAsKM/L4uKikwiQAeq7OxsM57UqVMn6piiA1vQRMCiRYvMDbfr16/v1FQvVX7RWLNmjbk5nfbdVhj7EUsbxJyY+yHmxNwGMSfmfog5MbcRtI3Ro0ebvo8dO9ap8UfMkzvmfM+JuQ1iTsz9xLMfJAIskQgAADv683Ljxo1SUFBgBh43EVDdFQGlpaVmYKtXr55ZtvHWW29J+/btJT8/36mpnraxZ8+eQG1s3rzZbK9JDBuJaGPFihXmjAPtu60w9iOWNog5MfdDzIm5DWJOzP0Qc2JuI2gbw4YNM1cETJo0yanxR8yTO+Z8z4m5DWJOzP3Esx+hukfAp59+Km+//bYp+hwAkNwiD/jHu9T0/sNc0rXv6dpvLena93Ttt5Z07Xu69ltLuvY9XfutJV37nq791pKufU/XfmtJ176na7+1pGvf07XfWpKp7wc9EaDz45155pnmKoSzzz5bfv/735uiz7VO1wWZQw8AAAAAAAAAAHzvoCUCJk+eLEceeaSMGjVKjj32WBkyZIjcddddcsMNN5iiz7VO1+k2uq2+BgAAAAAAAAAA2DsoiYCrrrpK/vSnP8mvfvUr6devn5x00knm3gRVaZ2u0210W32NvhYAAAAAAAAAANhJeCJAD+jrjYlvueUWadWqlVPrT7fV1+hrdR8AAAAAAAAAAMBfQhMBN998s6xZs0Yuu+wypyY4fa3uQ/cFAAAAAAAAAACql7BEwL///W955pln5OKLL3ZqYqf70H3pPgEAAAAAAAAAQHQJSwTce++90r17d897AQSl+9B96T4BAAAAAAAAAEB0CUkEvP322/L111/LKaec4tQcON2X7lP3DQAAAAAAAAAAvCUkETB9+nRp3769sxQ/uk/dNwAAAAAAAAAA8JZRXkGfFBYWSl5enpl2JysrSzIzM6V27dqSkZEhtWrVMo9ucUU+r06nTp3krLPOkmOPPdapiY8vvvhCXn/9dfnggw+cmpqzbNkyadGihbMEAIhGf16uXbtWGjduLLm5uZKdnW3Gkzp16kQdU3bu3Ck6HAWZPk5/9h933HFm7LKhbZSVlQVqY9u2bWZ7ff82EtHGunXrZOvWrdKyZUunxl8Y+xFLG8ScmPsh5sTcBjEn5n6IOTG3EbSNMWPGyPvvvy+jR492avwR8+SOOd9zYm6DmBNzP/HsR0ISAQ0bNjTz+derV8+piQ/tlO538+bNTk3NIREAAHb05+U333wjTZo0kbp165oxRccTHVeijSnuwKaJA1vz5s2Ttm3bSoMGDZya6mkbe/bsCdTGli1bTB+CDNA13caqVavMa9q0aePU+AtjP2Jpg5gTcz/EnJjbIObE3A8xJ+Y2grYxcuRIWbRokUyYMMGp8UfMkzvmfM+JuQ1iTsz9xLMfCUkE6OtHjRrlLMXX7373O3PwqKaRCAAAO/rzcuPGjVJQUGAGHveKgOoSATt27DA/y3V7W2+99ZZ06NDBJJttaBs6eAZpo6SkxGyvVzPYSEQbK1euNAnwIFPuhbEfsbRBzIm5H2JOzG0Qc2Luh5gTcxtB2xg+fLgsWLBAJk2a5NT4I+bJHXO+58TcBjEn5n7i2Y+E3CPAyTXUiJrcNwDgwEQe8K+uuLzWRSsur3VexeW1LlqJZXvltS5aiWV75bUuWolle+W1LlqJZXvltS5acXmt8your3XRSizbK6910Uos2yuvddFKLNsrr3XRSizbK6910YrLa51XcXmti1Zi2V55rYtWYtleea2LVmLZXnmti1Zi2V55rYtWXF7rvIrLa120Esv2ymtdtBLL9sprXbQSy/bKa120Esv2ymtdtOLyWudVXF7ropVYtlde66KVWLZXXuuilVi2V17ropVYtlde66IVl9c6r+LyWhetxLK98loXrcSyvfJaF63Esr3yWhetxLK98loXrbi81nkVl9e6aCWW7ZXXumgllu2V17poJZbtlde6aCWW7ZXXumjF5bXOq7i81kUrsWyvvNZFK7Fsr7zWRSuxbK+81kUrsWyvvNZFKy6vdV7F5bUuWolle+W1LlqJZXvltS5aiWV75bUuWom2fUISAXoW6O7du52l+NF96r5xcDzyyCPStWtXZyl1aR8ffvhhZwkAAAAAAAAAkktCEgFNmzaVb7/91lmKH92n7huJ9+yzz8qQIUPktddec2pSl/bx0UcflSlTpjg1AAAAAAAAAJA8EpIIOPHEE2XFihXOUvzoPnXfSCyd9+uKK66Q6dOnW89nlcy0j9rXq666SmbPnu3UAgAAAAAAAEBySEgioEePHvLpp586S/Gj+9R9I3E+//xz6du3r7ka4NRTT3VqU5/2Vft89dVXy2effebUAgAAAAAAAED4JSQR8P/+3/8zd8ffuHGjU3PgdF+6T903EmPr1q3mrPif/vSncu211zq16UP7rH2/5pprZMuWLU4tAAAAAAAAAIRbQhIBDRs2lJtvvjmu88nrvnSfum8kxsCBA6W4uFj+8pe/ODXhtWPHDjOn/7333msedTmaV199VYYNGyaPPfaYvPjii06tN+27fga33HKLUwMAAAAAAAAA4ZaQRIAaPHiwrFy50pzFf6B0H7ov3ScS46OPPpLx48dLv379pKCgwKmtWWvWrJGLL75YMjIynBo7S5culZNOOkkuvfRSmTNnjnnUZa2v6sknn5Sf//zn8uc//1kefvhh+b//+z+56aabnLX7077rZ6CfhX4mAAAAAAAAABB2CUsE6A1X9aDrhAkT5OOPP3Zqg9PX6j50X+lwo9qw0APfRx11lPz2t791amreH//4R2nRooWzZOf999+Xtm3byq9+9Sv55JNPzM199VGXtV7Xu/Ssfr3p8RNPPCFfffWVSTw899xz8s9//tMkB6LRz0A/C/1MAAAAAAAAACDsMsor6JPCwkLJy8uTnJwcycrKkszMTKldu7Y5G7tWrVrm0S2uoGdqq5deekkuvPBCueiii+T00093au28/fbb8uyzz8oLL7wgPXv2dGoTY9myZYEPSqcKvUFwp06d5NZbb5W77rrLqa1Z06dPN3Py6xn9xx9/vDj/TX3p1D233367LFq0yFwF4Hr55ZfN/5lJkybJb37zG1On+61bt64sXrzYLLs0OaCJJo35Mccc49TuS68geOihh+SDDz6Qli1bOrUAlH531q9fL40bNzbfMR1TdDzRcSXamKLTd+n3PDc31yzbmD9/vrRp00YaNGjg1FRP2ygrKwvUht4PRPug799GItpYvXq1lJSUmL7bCmM/YmmDmBNzP8ScmNsg5sTcDzEn5jaCtqEnoC1cuNCc2GiLmCd3zPmeE3MbxJyY+4lnPxKeCFB6VrbedFbP6D/jjDPk2GOPddZ4++KLL+TNN9+U3bt3y9ixY/c5wJso6ZwIuO2222TMmDGyZMkSOfLII53amtWqVSv55S9/KTfeeKM0a9bMOhFwxRVXmP8ry5cvd2oqrVu3Tn74wx/KiBEj9t7ouHnz5tK5c2eZOnWqWXZpX/WGwNUlAvQKghNPPFGuvvrqpLhnApBI+t0pKioyiQAdqLKzs814oj/zo40pOrAFTQRowk8TevXr13dqqpcqv2jo1Ut683btu60w9iOWNog5MfdDzIm5DWJOzP0Qc2JuI2gbo0ePNn3XYxq2iHlyx5zvOTG3QcyJuZ949uOgJAJcw4cPl0cffdTsX8+q1gO1buZIsylr1641Z6NrZ3Xe9uuuu86sOxjSNRGwatUqk3jp06ePiVUi3HHHHTJx4kSZO3eufP311+ZgvW0i4J133jFXmujrL7/8cqdWZNSoUfL73//eTBPkZukeeeQRc2a/Th+kB/VdXbt2lUMPPVSeeeYZp8ab/p/UGxFrYuuII45wagHoz8uNGzdKkyZNzMDjJgKquyKgtLTUfM91e1t6lVj79u2tbxqvbeh4EqQNHYt0e9up6BLRht4jR1/Trl07p8ZfGPsRSxvEnJj7IebE3AYxJ+Z+iDkxtxG0DT3+oVcEPPXUU06NP2Ke3DHne07MbRBzYu4nnv1I2D0CvOiBfT1gpJfGdenSRYqLi83AqEWfa52u020OZhIgnennr1N8JOreAHpQ/cEHH5QBAwaYM/ZXrFjhrLFz2mmnmfd87733mqsJ9OoA3ZdO4zNy5Mh9LtW5+eabpVevXub/lv5SplcCdO/eXerVq2e296OfiX423CsA8OYe9LctQbdPRBtBt9eSiPekvNZFK2Hsh5agr1E1/b4S0Y9Ytlde66KVMPZDS9DXqJp+X4noRyzbK6910UoY+6El6GtUTb+vRPQjlu2V17poJYz90BL0Naqm31ci+hHL9sprXbQSxn5oCfoaVdPvKxH9iGV75bUuWgljP7QEfY2q6feViH7Esr3yWhethLEfWoK+RtX0+0pEP2LZXnmti1bC2A8tQV+javp9JaIfsWyvvNZFKwe1H+bdHmR6BvegQYPkH//4h8kgadHnWhf0PgKIL50DXw+eR54xX5P+9Kc/mSzawIEDzXLQRIC6wpnj/8MPPzRn92sfNDmgVwRUpQfxzzrrLLn++uvNdECnnHKKuZ+AzRRI+pnoZ6PtAAAAAAAAAEBYhSIRgPDSqzOC3PDiQOjB+hdffHGfs/H18pegbrnlFrOPfv36malGLr74YpME0PpIr7zyipmSSu8foHOZ/fe//zXzbum0QOPGjXO2qp5+NvpaAAAAAAAAAAgrEgGI6qOPPjIHyVu3bu3U1JwNGzaYg/c/+clP5Be/+IVTG5wmEoYMGSKPP/64ua+B0hv6PvHEE6Ze17v0YL9OJaQ3bdL7IOiVCDot0UUXXWTuU7Br1y5ny+j0s9E7hH/66adODQAAAAAAAACEC4kARKVT6qgOHTqYx5r08ccfy2effSbvvvuumcfKLffdd59Z7y7rnP/V+fvf/27u1H3sscc6NZXOOOMMU6/r1XfffSfTpk2To446yixH6tSpk5n7X6eo8uN+NkuWLDGPAAAAAAAAABA2JAIQ1bx588xjx44dzWNNmz179n7lnnvu2WedH00kRLvrttbrelVYWGgevWRnZ5vHxYsXm8fquJ/NggULzCMAAAAAAAAAhA2JAESlB80bNWokxxxzjFNTc/SMfa/i8qrz8utf/1q+/PJLM6VRJF3Wel2vquuTXpmg9AoCP7of/Yzmz5/v1AAAAAAAAABAuJAIgKfdu3eb6XoSMS1QrPSgvk7jU1RU5NSIXHrppbJ9+3b53e9+t3caIX3UZa2/7bbbTJ0evNfnOvXQTTfdJMXFxeZGwX/5y19M3dlnny3nnXee2daPfkbu1RMAAAAAAAAAEDYkAuDp22+/NY+NGzc2j2H1v//9z3lWSW/6q1MIlZSUSNeuXfcWvfHv559/LoceeqizpZgbA+vUQ88995xJDDRs2FBuv/12c3PhESNGOFv5cz8j9zMDAAAAAAAAgDAhEQBPYUkE3HvvvVJeXu4s7UsP4G/dulWaNm3q1FTS6YPcewr87Gc/M48zZ87c7wbCSvf/0UcfmZsIjxo1SpYvXy6jR4+Wli1bOlv4IxEAAAAAAAAAIMwyyp2jrHrz1Ly8PMnJyZGsrCzJzMyU2rVrS0ZGhtSqVcs8usUV+TzVLVu2TFq0aOEspT6d6qZLly5y6623yl//+lenFl7++Mc/ykMPPWTuE3Dqqac6tUD60p+Xel8OTZLl5uaaG3DreKI37I42pujUXDoc6fa23n//fTnuuOOkfv36Tk31tI2ysrJAbWiyUbfX928jEW2sXbvWvEb7biuM/YilDWJOzP0Qc2Jug5gTcz/EnJjbCNqGnnCmfR8zZoxT44+YJ3fM+Z4TcxvEnJj7iWc/SARYqulEgO7/9ddfd5bsnHXWWTX2nmbMmGHmyNckgCYDEJ0mATQZoFcdnHvuuU4tkL7059k333wjhxxyiNSrV8+MKTqe6LgSbUxxB7a6deuaZRuasGzbtq00aNDAqametrFnz55AbWzZssUMnprEsJGINlatWmWmP9O+2wpjP2Jpg5gTcz/EnJjbIObE3A8xJ+Y2grYxcuRIWbhwoUycONGp8UfMkzvmfM+JuQ1iTsz9xLMfJAIsJSIRoGcIBHHNNdfU2HvSqXJ+85vfyNixY6Vfv35OLbyMGzdOrrrqKvOZ9enTx6kF0pf+PNu4caMUFBSYgcq9IqC6REBpaalJBGjiwNZbb70l7du3l/z8fKemetqGDp5B2ti8ebPZ3naATkQbK1euNK/RvtsKYz9iaYOYE3M/xJyY2yDmxNwPMSfmNoK2MXz4cFmwYIFMmjTJqfFHzJM75nzPibkNYk7M/cSzH9wjIET0oH6QUpOS5WbBYcA9AoDoIg/4x7vU9P7DWlxe61K9pHO/lde6VC/p3G/ltS7VSzr3W3mtS/WSzv1WXutSvaRzv5XXulQv6dxv5bUu1Us691t5rUv1ks79Vl7rwlhIBISEHtjXM/yDlJpMBpAIsOd+RnoGNAAAAAAAAACEDYkAeNK5vRVnuftzPyP3MwMAAAAAAACAMCEREBLuPQKCFH1NTWG6G3tcPQEAAAAA6UVvwqj3vgIAIFkwaoWIHtgPUmoSiQB7JAIAAAAAIL1kZmaSCAAAJBVGrRCJvBGwTalJYZn3/rbbbpNBgwY5S3buvffe/cp9991nSqTqtqu6bXXcz4hEAAAAAACkvk2bNsnvfvc7WbBggVMDAED4kQgICT2w73VD4OpKTSYDwnCPgEmTJpmzLO6//36nxo4exJ8zZ84+5c033zSlqqrbutt5bRuN+xlxjwAAAAAASH0TJkyQd999V7Zu3erUAAAQfiQC4OlgTw2kv1DdfPPN0r59e6cmmJ/97Gcye/bs/YoXr+202GJqIAAAAABIDwsXLjQnjmVlZTk1AAAkBxIB8HSwEwG33367/PznP5dzzjnHqQkvEgEAAAAAkPq++OILeeyxx+Tiiy+Whg0bOrUAACSHjPIK+qSwsFDy8vIkJyfHZLZ1SpbatWtLRkaGuQGOPrrFFfk81enNeWt6Xv6w6dKliyxdulSKi4udmsTQs/G7desmM2fOlMMOO0w6dOggzn9TK/r/8p577jFz/lfHvSdAkH170QRAq1atZO7cuU4NkN705+XKlSv3jinZ2dlmHNFxJXIscYvatWuXeQxyZtXnn38uhx9+uOTm5jo11dM29PsepI3S0lKzve2N4BLRht6XRF+jPx9thbEfsbRBzIm5H2JOzG0Qc2Luh5gT80gNGjSQevXqyY4dO+Suu+6SgoIC+X//7//JlVdeKXfccYecccYZ5op2v2mCnnzySfnwww/l0UcfdWr8EfNw9SNoG3zPibkNYk7M/cSzHyQCLKVjIkCn5tFfUj777DM57rjjnNqad9ppp0mTJk3kn//8p7z00kty/vnnm//wtvT/pSYCzj33XBk2bJj5/9uzZ0/p3bu3s0WlyESAbvfKK69I27Zt5e6775b69es7W1Xvyy+/NP8vbrrpJnnkkUecWiC96c/Ljz76yPzBpEkAd/CpU6eO+X66Y4pyH8vKysyjjju2dMDVP8x0vLKhbej3PUgbOuC679tGItr47rvvZPfu3abvtsLYj1jaIObE3A8xJ+Y2iDkx90PMiblL3+ehhx5qfqd94YUX5F//+pc88MADZlmvCnATAevXrzelOs8++6x88skn8qc//cmp8UfMw9WPoG3wPSfmNog5MfcTz36QCLCUjomAZ555xvxyM3XqVPOYCA899JD88Y9/lHnz5smPf/xjGT58uFx//fXmP7wt/X+pVxSsWrVKfvGLX8jYsWNNJuy5557bJxngJgLq1q1r7imgl3Zqn3/yk5/I+PHj5fjjj3e2jE5/GfzVr34lTz/9tDkrBEDlz8uioiJztYybDNBxRMcV/X56jSl6hpUObvp9tLVgwQJzNY7tgKtt7NmzJ1AbW7ZsMWc06ABqIxFtrFmzxrxG+24rjP2IpQ1iTsz9EHNiboOYE3M/xJyYu/SYiP4OqyeA6d+pv//976Vr167mgJebCNC/PfWAix4Iqs6oUaNk0aJFMm7cOKfGHzEPVz+CtsH3nJjbIObE3E9c+6GJALV06dLyr776qvybb74pLy4uLt+2bVt5aWlpeUVj5RWDWnnFoFZe0Wh5WVnZ3pJOvvjiC+dZ+igsLNSj7+UVv/A4NTVLP+MmTZqU33zzzU5Nefk999xj3kMQuv1PfvITZ6m8vKSkpLx79+7lRx99dPny5cud2u/3/fDDDzs15eVTp041dVdffbVTU7277rrLbK+fFYBK+l1+7733yiv+YCr/+uuvzZhSMQhVO6Z899135Vu3bnX2YOfNN98s37Rpk7Pkb/v27YHb0Peu79dWItrQn2NLlixxluyEsR+xtEHM7RFze8TcHjG3R8ztEXN7xNxevPsxZcqU8rZt25b//Oc/L//lL39Z3qNHD7N85plnlv/tb39ztqre448/Xn7ppZc6S3aIub0wflZ8z4m5DWJuj5jbi9aG3WRESEuazdL5vfTyRRsvvviiOcshSNHpQ1x6ieWGDRsCXSrpRe8xoGf0u3San1tuuUVWrFgho0ePdmrFXMKp2w4cONCpEXNWx1lnnSVjxoyRzZs3O7XR6ZU0+hkFyfwBAAAAAJLHOeecY6b2GTp0qAwePFhuu+02c/XrpZdeKhdeeKGzFQAA4UYiANX60Y9+JB9//LGzVL1du3aZubGCFJ2yR7355psyYcIEM7f/ww8/bKbtibzZr7us2/nRA/zRpvXRKUtcup2Wqo455hjz+NVXX5nH6ujNlPUzAgAAAACkJr2Hnd5Pzi3696ZOqXzkkUcGukEkAAAHE4kAVKtDhw7mTPrXXnvNqYlOz4TQGwwHKSeffLLz6soD83PmzNmvqMjnsfC7cVMk2zm6lixZYhIB+hkBAAAAAAAAQFiRCEC1+vbtKwUFBfL3v//dqakZ7jQ9VYvexFe5y15n8Ef6z3/+4zzbl3slQOQNn59//nnn2b5WrlxpHvXsjuo89dRT5rPRzwgAAAAAkB4aNWokI0eO3OfENgAAwo5EAKp1xBFHyJVXXmkSAbZTBCXK3/72N1OKiorMcklJiQwYMECuv/56sxxJ7xmgdy7X9eqLL76QX//61/slA3TqoRkzZshNN90kDRs2dGr3p9MGaSJAPxv9jAAAAAAA6UGvIj/uuOMkLy/PqQEAIPxIBMCXnvFet27dGr8qIKh3331XbrzxRmdJzIH+4cOHy8svvywnnHCC9OvXz9xXICMjwxz4nzlzppnbUR177LEmiaDJgC5duphpiq644grp2rXr3uXqaBJA74nA1QAAAAAAkH62bt0qZWVlzhIAAOFHIgC+WrZsaQ54ayJg48aNTm1iuFMGeendu7c899xzzlIl3f6ll14y71dvRvzhhx/KrbfeKsXFxfKTn/zE2arSDTfcIP/4xz/Mwf///e9/5sbFerNiTTAcfvjhzlb727Jli0kEaBv62QAAAAAA0suePXukvLzcWQIAIPxIBMCKHvT++uuvE35VgB7Yj3ZfAE0EaGnatKlTU0mvBtCpfaZOnSrTp0+Xv/71r1Gn+dEbHN9///3mKoKnn37aXEHgR5MAeh8BrgYAAAAAAAAAkAxIBMBKu3btzIHviRMnyvr1653a9KN9HzdunPks9DMBAAAAAAAAgLDLKHeuZSssLDQ3usnJyZGsrCzJzMyU2rVrm/nVa9WqZR7d4op8nuqWLVsmLVq0cJbSk06J07NnT/M56M1305EmAPT/gl5BwI2hAG/6HVm3bp00btxYcnNzJTs724wnelO1aGPKzp07zRyrur2t999/39ykrX79+k5N9bQNvYQ7SBs696tur+/fRiLaWLt2rXmN9t1WGPsRSxvEnJj7IebE3AYxJ+Z+iDkxtxG0jdGjR5u+jxkzxqnxR8yTO+Z8z4m5DWJOzP3Esx8kAiyRCKj02WefyXnnnWem3rn22mud2vQwcuRIefTRR81Nh7k3ABCd/rz85ptv5JBDDpF69eqZMUXHEx1Xoo0pO3bsMIkAvTG5rXnz5kmbNm2iTv1Vlbahg2eQNkpKSsz2msSwkYg2Vq1aZV7Ttm1bp8ZfGPsRSxvEnJj7IebE3AYxJ+Z+iDkxtxG0Df17cuHCheYqe1vEPLljzvecmNsg5sTcTzz7QSLAEomA7+nNe3v06GEeTz31VKc2tb333nvmpsL//ve/5ac//alTC8CL/rzUG4sXFBSYgce9IqC6RIDerFsTAZo4sPXWW29J+/btJT8/36mpnrahg2eQNjZv3my2tx2gE9GG3qNEX6N9txXGfsTSBjEn5n6IOTG3QcyJuR9iTsxtBG1j+PDhsmDBApk0aZJT44+YJ3fM+Z4TcxvEnJj7iWc/uEcAAtMD4mPHjpULLrhAdu/e7dSmLu2j9lXP3CAJAAQTecA/3qWm9x/W4vJal+olnfutvNaleknnfiuvdale0rnfymtdqpd07rfyWpfqJZ37rbzWpXpJ534rr3WpXtK538prXaqXdO638loXxkIiADHp06ePmR7o7LPPdmpSl/Zx4MCBctFFFzk1AAAAAAAAAJA8SAQgZrfccouZHijVaR9vvvlmZwkAAAAAAAAAkguJAAAAAAAAAAAAUhiJAAAAAAAAAAAAUhiJAAAAAAAAAAAAUhiJAAAAAAAAAAAAUhiJAAAAAAAAAAAAUhiJAAAAAAAAAAAAUlhGeQV9UlhYKHl5eZKTkyNZWVmSmZkptWvXloyMDKlVq5Z5dIsr8nmqW7ZsmbRo0cJZAgBEoz8v169fL4cccojUrVvXjCk6nui4Em1M2bFjh5SVlZntbc2bN0/atGkjDRs2dGqqp23s2bMnUBslJSVSr1498/5tJKKNVatWmde0bdvWqfEXxn7E0gYxJ+Z+iDkxt0HMibkfYk7MbQRtY+TIkbJw4UKZOHGiU+OPmCd3zPmeE3MbxJyY+4lnP2rfW0GfbNiwwRysqVOnjtlIS9WDNZEHbVTk81S3adMmady4sbMEAIhGf15u2bJFsrOz944lmnPWMUMfqxZNAOzatcs86vb6aFPWrl1rfi5rgsFrfdUSSxulpaXm/Suv9VVLItrYvHmz7Ny50/Tda71XCWM/iDkxtynEnJj7FWJOzG0KMSfmfiURbWgSQPt+3nnnea73KsQ8uWPO95yY2xRiTsz9Sjz7wRUBlrgiAADs6M9LTS4XFBSYjLWbENBxJdqYooOUDkqasbb19ttvS7t27SQ/P9+pqZ62oVn0IG3ooK7ba5LcRiLaWLlypXlN+/btnRp/YexHLG0Qc2Luh5gTcxvEnJj7IebE3EbQNoYPHy4LFiyQSZMmOTX+iHlyx5zvOTG3QcyJuZ949qMyNQAAQBy5B/n1oH9NFeVVn+olEZ9tWAsx916fyoWYe69P5ULMvdenciHm3utTuRBz7/WpXIi59/pULsTce30qF2LuvT50xUQKAAAAAAAAAACkpL1TA7366qtmCgedFsidGkgzBW5WQx/NC5xHFfkcAJC84jn1mU4NtHHjRjM1kF6KVlNTA82ZM0c6dOiQdpcerlixwrxG+24rjP2IpQ1iTsz9EHNiboOYE3M/xJyY2wjaxrBhw8zUQJMnT3Zq/BHz5I4533NiboOYE3M/8ewH9wiwxD0CAMAOiQB+0bARSxvEnJj7IebE3AYxJ+Z+iDkxtxG0DRIBfM9tEHNi7oeYE3Mb0dpgaiAAAAAAAAAAAFIYiQAAAAAAAAAAAFIYiQAAAAAAAAAAAFIYiQAAAAAAAAAAAFIYiQAAAAAAAAAAAFIYiQAAAAAAAAAAAFJYRnkFfVJYWCh5eXmSk5MjWVlZkpmZKbVr15aMjAypVauWeXSLK/J5qlu2bJm0aNHCWQIARKM/L9etWyeNGzeWunXrSnZ2thlP6tSpE3VM2bFjh+hwlJuba5ZtLFq0SI4//nipX7++U1M9baOsrCxQG1u3bjXjor53G4loY+3atbJlyxbTd1th7EcsbRBzYu6HmBNzG8ScmPsh5sTcRtA2Ro8ebfo+duxYp8YfMU/umPM9J+Y2iDkx9xPPfpAIsEQiAADs6M/Lr7/+Wpo0aWISATqm6Hii40q0MWXnzp2BB7b58+dLmzZtpEGDBk5N9bSNPXv2BGpDB3Ttg75/G4loY/Xq1VJSUmL6biuM/YilDWJOzP0Qc2Jug5gTcz/EnJjbCNrGE088IQsXLpQJEyY4Nf6IeXLHnO85MbdBzIm5n3j2g0SAJRIBAGBHf15u3LhRCgoKzMDjXhFQXSKgtLTUJALq1atnlm289dZb0r59e8nPz3dqqqdt6OAZpI3Nmzeb7W0z9YloY+XKleY12ndbYexHLG0Qc2Luh5gTcxvEnJj7IebE3EbQNoYPHy4LFiyQSZMmOTX+iHlyx5zvOTG3QcyJuZ949oN7BAAAakzkAf94l5ref1iLy2tdqpd07rfyWpfqJZ37rbzWpXpJ534rr3WpXtK538prXaqXdO638lqX6iWd+6281qV6Sed+K691qV7Sud/Ka10YC4kAAAAAAAAAAABSGIkAAAAAAAAAAABSGIkAAAAAAAAAAABSGIkAAAAAAAAAAABSGIkAAAAAAAAAAABSGIkAAAAAAAAAAABSGIkAAAAAAAAAAABSGIkAAAAAAAAAAABSWEZ5BX1SWFgoeXl5kpOTI1lZWZKZmSm1a9eWjIwMqVWrlnl0iyvyeapbtmyZtGjRwlkCAESjPy/Xr18vhxxyiNStW9eMKTqe6LgSbUzZsWOH6HCUm5trlm3MmzdP2rZtKw0aNHBqqqdtlJWVBWpjy5Ytpg/6/m0koo1Vq1aZ17Rp08ap8RfGfsTSBjEn5n6IOTG3QcyJuR9iTsxtBG1j5MiRsmjRIpkwYYJT44+YJ3fM+Z4TcxvEnJj7iWc/at9bQZ9s2LDBHKypU6eO2UhL1YM1kQdtVOTzVLdp0yZp3LixswQA8TV//nyZPHmyvPPOOyYhe9hhhzlrko/+vNRBJzs7e+9Yogf5dczQx6pFB7Rdu3aZR91eH23K2rVrTbJBEwxe66sWbWPPnj2B2igtLTXvX3mtr1oS0UZJSYn5RUDHJK/1XiWM/YilDWJOzP0KMSfmNoWYE3O/QsyJuU0J2sbChQtlzZo1ct5553mu9yrEPLljzvecmNsUYk7M/Uo8+8EVAZa4IgBATfnyyy9l1KhRzlKl66+/Xo444ghnKbnoz0tNLjdp0sRkoN2EgI4r0cYUHaR0ONLtbWnSpF27dtKwYUOnpnrahg58QdrQQV231yS5jUS0sXLlSvMa7butMPYjljaIOTH3Q8yJuQ1iTsz9EHNibiNoGyNGjJAFCxbIU0895dT4I+bJHXO+58TcBjEn5n7i2Q8SAZZIBBwc06ZNk+bNmztLQPx07NjReXbwzZkzR2bMmOEsVerZs6ecfvrpzlJy0Z+XGzdulIKCAqlXr551IkAHNt3eln5uHTp0kPz8fKemetqGZtGDtLF582azfZABuqbbWLFihXmN9t1WGPsRSxvEnJj7IebE3AYxJ+Z+iDkxtxG0jWHDhplEgF4FbIuYJ3fM+Z4TcxvEnJj7iWc/SARYIhFwcJxyyily6KGHBvrPDth45plnnGcHn9cVAf3795ejjjrKWUouJAL4RcNGLG0Qc2Luh5gTcxvEnJj7IebE3EbQNkgE8D23QcyJuR9iTsxtRGuDRIAlEgGJp5ex6I1G9MYbQKrTG+vMnj3b/Lw988wz5eSTT3bWJB8SAfyiYSOWNog5MfdDzIm5DWJOzP0Qc2JuI2gbJAL4ntsg5sTcDzEn5jaitVF51wAghKZPny5nn322swSkts6dO8sdd9wht912W1InAQAAAIB0oCe7pNPJkQCA5EciAKGl9we47rrrnCUAAAAAAMJBEwF6pSsAAMmCUQuhpVOLdOrUyVkCUtvOnTvl/fffN2XXrl1OLQAAAICwGDt2rPz2t7815a9//av5HR4AgGRBIgChpFcDNGnSxFkCUtv27dvl0UcflWeffdaUxx57jD8qAAAAgBDRJIDO8X/55ZfLNddcI0VFRfLkk086awEACD8SAQglvT8A0wIhXSxZssRcAeNav369qQMAAABw8OlNF/VGmL/85S/lpz/9qXTp0kV69Oghb7/9tlkHAEAyIBGAUCovL5ezzjrLWQJSm9dNxvQ7AAAAAODgy83NlVtvvVV+9rOfSe3atU1ds2bNzAk8X3/9tVkGACDsSAQgdF5//XXZtGmTs5Tarr32WjnxxBOlYcOGcuGFF8qaNWucNThQyfTZdujQQRo1auQsiRQUFJg6AAAAAAdfVlaWtG/fXvLy8szyjh075LnnnpNjjjlGfvjDH5o6AADCLqPcOe20sLDQDGo5OTlmkMvMzDSZbj1TVe+Er49ucXmdxZqqli1bJi1atHCWUJP0AO4ZZ5whv/71r52a1PT888/LJ598Yvr5zTffyH333SdHHnmkPPXUU84WiFUyfrZ6T4APP/zQ/LzVPzL0Z3Cy0p+XH3/8sRlPsrOzzZii/apTp84+Y4pyH8vKysyje4aVDU0Y1q9f3+zXhrahQ16QNnbv3r13LLSRiDb0nhL6Gu27rTD2I5Y2iDkx90PMibkNYk7M/RBzYl6VXhFw2GGHSd26dWXcuHHy1ltvyVdffSV33nmnnH322aY9vWfAt99+67xif5o40L9R9G8TW8Q8XP0I2gbfc2Jug5gTcz/x7AeJAEskAhKnf//+MmLECGcpdXXt2lWeeeYZOfTQQ83yyy+/LL179zZzTOp3ELHjsz249OellgYNGuwdU3Qc0XElcixxi9JBSoejIPH58ssvzRlY2oYNbUMH0CBtlJaW7n3/NhLRhv6Cpa/Ry9FthbEfsbRBzIm5H2JOzG0Qc2Luh5gT80j6O6y+13r16pnnn3/+uTnZaPXq1fLKK6/IjTfeaK7m3bJli5SUlJjfab1MmjTJnPgzdOhQp8YfMQ9XP4K2wfecmNsg5sTcTzz7QSLAEomAxFiwYIHcdddd8p///MepSV1vvvmmufIhkn6n9JdDPSMcseOzPbj056XOl9qkSRNz1pReFaDjiZsI8BpTdJDSgU3/wLL17rvvygknnGCmf7KhbezZsydQG/rHnPbB9qyGRLShZ5/pa7TvtsLYj1jaIObE3A8xJ+Y2iDkx90PMiXmkyN9fI23dulVuuukmadmypbl/gB5a0X1Eoye7LVy4UJ588kmnxh8xD1c/grbB95yY2yDmxNxPPPthl3oAEmTatGlywQUXOEvRXXLJJeaXrgOl+9Gzx2MxcOBA8/popkyZYvatZ6F7qXqgWqezadu27UE9UL106VLznoP8choNn20w8+fPlwcffNAU/QMh2ekfS3rwXwedmiqqptuo6f1rCdqG+4eo17poJYz9iKUQc+/1XoWY2xdibl+IuX0h5vaFmHuv9yrE3L7Ec/+6r5UrV8of//hHWbFihXn/Sk+kbNy4sWzcuNEs+8WTmCdPzKOVoG0Qc2JuU4i5fSHm9iVaGyQCECqa5frd737nLHm79957zQHre+65x6mJje5n1qxZMnr0aKcmmCFDhpiznv/yl784Nfvq06ePnHTSSXLVVVc5NdHpGew6n/0NN9zg1CSefqb6Ho4++mi5/PLLndrY8NkGo5fQaRJMLynToomLVatWOWsBAAAAHEw697MmASZMmGBuFKyWLFliyllnnWWWAQAIOxIBCA2dnuq///2vs+Ttn//8p7m5kh5ozs/Pd2qDc/czcuRIOe6445za4J544gkZNmyYzJgxw6nZlx7Q1uRGtAPaSg9U69ntetD86quvdmoT729/+5s5w/5AEyx8tsF5HfSPPNsIAAAAwMGjf3vecsst5nf0a665Rq688kp5+OGH5YorrpDOnTs7WwEAEG4kAhAa06dP9z2b4oEHHpCLL75YfvnLXzo1sXH306tXL6cmNscee6w5K10PfEejB6Bvv/12+eijj5ya77kHqmfPnn1AB6r1bP4Doe9tzJgx8oc//MFcEXAgUu2zTYQjjjjCefa9I4880nkGAAAA4GDSKRY6duxokgH9+vUziYDrr79ezjvvPDNFEAAAyYBEQAjowUot6U6nRLnuuuucpf3p1Ck6d7oerD4Q8dqPS88I+eyzz8x+vegvhz//+c9l6tSpTk2lyAPVVee0D0qnvjkQ+t46dep0wNPnpOJnmwjHHHOMuTeGnmmk84z27t1bjjrqKGctAAAAgINNkwHt2rWT0047zZRTTz010I0bAQA42EgEIBTWrFljbpbaoEEDp2Z/M2fOlJNPPtn8wnUgdD96tvmB7sfVrFkzczlo1YPRkX784x+b9ZE3t3WTP/qoNxZxix7EDuqTTz5xnsXmpZdeMr/MZmVlOTWxScXPNlG0n3fccYfcdttt5v85AAAAgPD67rvvpKyszFkCACD8SAQcRHpQMvLApLvsdbDymWeeMXOh6/zrxcXFTm3q0DO+/aYFeuONN/Y7QKq/fEX7zNSnn36633rdT8uWLZ2lfbnbVt1ftHrXz372M3nhhRdk0aJFTs2+9Kz1r776ap8D2uXl5Z4l0Wew67RCmkjo0qWLU1NJb2BbXZ9Xrly533o+WwAAAADpYPfu3eZvDAAAkgWJgINID3zqGcvuQVB9rqXqnOg67YvOuf7UU0+Z6UP0zO0DnRM+UbQvNu913bp18tvf/tZZ2p/OAa83ZqqaLKhbt67Ur1/ffG46R2OkrVu3ymWXXWamG3IPALv7adu2rVn24sakKq2P5qc//al5XLZsmXmsSs/2rlOnzgGfuV8TZs2aZR7POecc8+jS6WpGjRpl+r1z506n9nuDBw82/y/5bAEAAAAAAIBwIxFwEN177717z1LW4p61rPOau2666SZ5/vnnzdQthYWFsnHjRqlVq5aZPiQIPfiqB+UfeuihqOWvf/2ruergwQcfNEVv+qo3kI3Vww8/bPr4+uuvOzXeSkpKTJ+ru0nt8uXLzaPXNieddJJMnjxZhg8fLiNHjnRqRfr06SNffPHFPvPLu/v54Q9/aB7jpVGjRuZRpziKRrepbv3Bomf+N2zYcG8fIrn3bHj88cfNo0un4Rk3bpy5SZaLzxYAAAAAAAAIJxIBIabTrDz22GNyzz33mJuiKr2RqB701sSAeya3DU00tGnTRpo3bx616BngLVq0MHO8a9EpXvQgeyz0gPy3335rnms/qvPvf//bd1qgDRs2mMcmTZqYx6ouvfRSueuuu6R///7y3nvvye9//3t58cUXZeLEiXLcccc5W/nvJ1buwepVq1aZRy+6jZ4xHzb6mRxyyCHO0r7cG2FVjeGjjz5qHq+44grzqPhsEUnnS9XLpXft2mWuKPErup1u77UuWlFBXhNLG0H6oCURbezZs8ckjb3WRSth7EcsbRBz7/VeJYz9iKUNYu693quEsR+xtEHMvdd7lTD2I5Y2iLn3eq8Sxn7E0gYx917vVcLYj1jaIObe671KGPsRSxvE3Hu9VwljP2Jpg5h7r/cqB7MfGRVv1kxqp2eb5+XlSU5OjrlhaGZmprkrvt5gU89Aj7zhpivyearTaUn0IHlNcKdFibwSQE2aNMlMl6Nn1Vf19ttvy1VXXSUXXXSRUxMeegXDyy+/bKYy0mTC6tWrzRnk0W5Eq4mO//u//5NOnTo5NfvTKxb++Mc/yrZt28x0QNFce+21MmPGDDNn/LBhw/ae0e5y96PbdO/e3an9njtFk76nyM/drdcYuVPhRCotLZXc3Fz55S9/KdOnT3dq96U3tf3ss89k06ZNTk0wOsXSc8895yztS6/20Pfs5fLLL6/2aosePXqYg/iaQPGiber/s/Hjx++9AuCEE06Q448/3szd70rmzxbxpT8vi4qKTOJSv6/Z2dlmHNFxJdqYsmPHDjN4aqxtLVy4UFq1amWmB7OhbWiCIkgbW7ZsMdvr9FM2EtGGXv2ir9G+2wpjP2Jpg5gTcz/EnJjbIObE3A8xJ+Y2grah067qfc/0ympbxDy5Y873nJjbIObE3E88+8EVASGmU7YoPVBatWjGSQ+wh1Hv3r1NEkCdffbZ5kBuddMDvfLKK9UmAZSbRND//NXRKxEKCgrk7rvv3i8JoNz96IHIeNIvpNLsWjRuhjARgiTp9P9SdZ+r3qNCrxb5xz/+YZY1CaXz8V8RcTWASpfPFnZ0sNH/E27RZEB1RbfRRIHXumhFBXlNLG0E3T4RbWiSXr9nXuuilTD2g5h7r/MqxNz+NcTce51XIebe67wKMfde51WIufc6r0LM7V+TKjHX34+Juff6qiVVYs733P41xNx7nVch5t7rvAox37+eRECI6cFXpXPt69nSVcuAAQPMeluaQHj33XetyjvvvGMO+P7vf/9zXh0bd8qfaNMD6Vno3bp1c5aiO/LII82jmxyJRs9+P/XUU82USvq5VeXuJ95njuu9G1S0KXZUdVPw2NCpnfRMeq+iIpfds+61VHc1gNL7A/h9rjfccINJ2Og9F/T/Rbt27fZOV+VK5s8W8eee+a+DYk0VVdNthLFon/Xz9VqX6oWYe69P5ULMvdenciHm3utTuRBz7/WpXNI15hpvYu69PlUL33Nink6FmHuvD1shERBihx12mHnUg/5eiouLnWd29Gz5v/3tb1ZFbw6rU+to8uBAdO7c2WSh9D4AXl577TXf+wMom0SATgv0+eefy4gRI+Tpp5+WW2+91Vx+GSnWg9Xvv/++88ybzfz4ekA73vPnx4MmAvSSofXr1zs1+/vDH/5gMof//e9/5a233jJTVlXFZwsAAAAAAACEE4mAEDjllFPMVCtKD8Y+8sgj5vmZZ54pN954o4wZM8acjR3pjjvuCHyQXud6D1quvvpq59WxadasmZkeSOe397q6QPsVj0SAnvn+5JNPyt///nezrHPU6xUBetPgyCSE38Fq9+x5PfPdpckFr6sLIrk3qnWv4qhK29P7JERbfzBpIkD5XRWg/xc1Xvr/Tq+8qIrPFgAAAAAAAAgnEgEhoIkATQA0bdpUjjjiiH2m/Hn00UflF7/4hTmwrTdo7dixozRq1MjMwb9kyRJnq3BzD/RXvU+Anl2uN3m18YMf/MAkFT788EOn5nuaANCb5WrCpHnz5k6tyMCBA00i4Nxzz5VPP/3U1Ln70eltvOjB6pNPPtncBLd169bm89b43Hbbbc4W3ty+RZvm6NVXXzWP+l7CRvupvD7bSDfffLO5T4BeDeA1DQ+fLQAAAAAAABBOJAJC4MILL5T58+fL0KFDZe3atebGp5F0ip5//etf0q9fP3MQVpMAeldqPQs+GbRv3948Vp0eSM8u16sFbF155ZV7D+i79Ox0PcCs0yddeumlTu33dDokXVdUVGRuWqx0P/PmzYt6c1lNLAwfPtx83jq9kL7+xBNPjDpFk9K7o7dt29bM4+9l7ty55lGnSgob/Tx0Wp2PPvrIqfGmB/o1WXXZZZc5NfvjswUAAAAAAADCh0RASOgNbvv06SONGzd2avZ1/vnnm6lZtOjzZKJTHOmBXD3wX1ZW5tRWJgL0agdbPXv2lM8++0zWrVvn1IicccYZe0s07vqcnByzrPspKSnZeyZ5VXrAuW/fvubKjIsvvtgcqK6uHb2yQQ9W636j0YPVemVEtIPZB8rrfQVx3XXXmc+2OjNnzjRJqp/85CdOzf5S8bMFAAAAAAAAkh2JACSEHqjdvXu3uTmwKiwslA4dOpjntjRZ0q5dOxk9erRTExvdjxadSigeJk+ebB4vueQS81jVs88+K4sWLYq6Ph7uuece51lsevfubWLz8ssvOzWVvv32W+eZyPPPPy833XSTs+QtFT9bAAAAAAAAINmRCEBCtGjRwjzqVQDuo81Ngqu6++67ZezYsbJq1SqnJja6H517/sUXX3RqYqM3QdaD1Y8//rhJUnjR9ToVzhVXXOHUxN+BXhGgZ9MPGTJkvwP4OpWPHmTXaah0yp9rrrnGWRNdqn22AAAAAAAAQLIjEYCE0HsB5OXl7b1PgCYCqpvuJRq9afIf/vAHM43SgdD96MFtnWopVrt27ZJf//rX5oa3119/vVO7L53+ZvHixSZ5EXY6XU9GRoY5kO867LDDzKMelNdEgQ0+WwAAAAAAACBcSAQgIVq1aiU/+tGPzDz0X3zxhbRs2dJZE5zeZFbvO3Dfffc5NbHR/ejNl3U/b731llNr7/7775df/epXUc9814Phxx9/vLmxc7LQm1LXrl1772d70UUXydSpU+W5556T8847z9TZ4LMFAAAAAAAAwiOjXO/+WUHnbNcztvWGqllZWZKZmWkOCOoZwrVq1TKPbnFFPk91y5Yt2zu9DWLz+9//XkaNGmWmetEzzXv16uWsAZBK9OdlUVGRufl53bp1JTs724wjOq5EG1N27Nhhbkadm5trlm3ojaQ1IdSgQQOnpnraht6wPEgbW7ZsMdvXqVPHqaleItrQBJi+RhOstsLYj1jaIObE3A8xJ+Y2iDkx90PMibmNoG3o38J6f7Nx48Y5Nf6IeXLHnO85MbdBzIm5n3j2gysCkDA6PZCK9f4AAJKHe8BfE8ruo1+x3c4tyqu+uhK0jVhKTbfhJlC81sWzhPGzIube6+NViLl9Ieb2hZjbFWLuvS5aIeb2hZjbF2JuX4i5XSHm3uuiFWJuX4i5fSHm+xauCLDEFQEHTrNRhx9+uLkSYOLEiU4tgFSjPy83btwoBQUFe68I0PGkuisCSktLTYa7Xr16ZtmGTjvVvn17yc/Pd2qqp23s2bMnUBubN28229tm6hPRxooVK6SkpMT03VYY+xFLG8ScmPsh5sTcBjEn5n6IOTG3EbSNYcOGmTNmJ02a5NT4I+bJHXO+58TcBjEn5n7i2Q+uCEDC1K9fX0488USuBgDSSOQB/3iXmt5/mEu69j1d+60lXfuerv3Wkq59T9d+a0nXvqdrv7Wka9/Ttd9a0rXv6dpvLena93Ttt5Z07Xu69ltLMvWdRAASas6cOdKnTx9nCQAAAAAAAABQ00gEAAAAAAAAAACQwkgEAAAAAAAAAACQwkgEAAAAAAAAAACQwkgEAAAAAAAAAACQwkgEAAAAAAAAAACQwkgEAAAAAAAAAACQwkgEAAAAAAAAAACQwmrfW0GfbNiwQbKysqROnTpSu3ZtU2rVqiUZGRn7FVfk81S3adMmady4sbMEAIhGf15u27ZNcnJyzFiiY0V5eblZV1ZWZp7rY2TZuXOnedTtq66LVlatWiVNmjSRzMxMz/VVi7axZ8+eQG1s377dbO++d7+SiDaKi4tlx44dcsghh3iu9yph7EcsbRBzYu5XiDkxtynEnJj7FWJOzG1K0Dbee+89Wbt2rfTs2dNzvVch5skdc77nxNymEHNi7lfi2Q8SAZZIBACAHf15uWXLFsnOzt47lvglAnbt2mUedduq66IV/UNKB1sdt7zWVy3ahg6eQdooLS0127vv3a8koo2SkhLzi4aOSV7rvUoY+xFLG8ScmPsVYk7MbQoxJ+Z+hZgTc5sStI2FCxfKmjVr5LzzzvNc71WIeXLHnO85MbcpxJyY+5V49iOj3Dk6U1hYKHl5eeYMTk0IaAZHD+DowX59YbonApYtWyYtWrRwlgAA0ejPy/Xr10tBQYHUrVt3b0JAx5VoY4oOUjoo1atXzyzbeOedd+SEE06Q/Px8p6Z62oYOnkHa2Lx5s9lef5mxkYg2Vq5caX7ZaNeunVPjL4z9iKUNYk7M/RBzYm6DmBNzP8ScmNsI2sbw4cNNMuCpp55yavwR8+SOOd9zYm6DmBNzP/HsR2VqAACAONKD/VrcK8xqoiiv+lQvbiLFa12qF2LuvT6VCzH3Xp/KhZh7r0/lQsy916dyIebe61O5EHPv9alciLn3+lQuxNx7fdgKiQAAAAAAAAAAAFIYiQAAAAAAAAAAAFIYiQAAAAAAAAAAAFIYiQAAAAAAAAAAAFIYiQAAAAAAAAAAAFIYiQAAAAAAAAAAAFIYiQAAAAAAAAAAAFIYiQAAAAAAAAAAAFIYiQAAAAAAAAAAAFJYRnkFfVJYWCh5eXmSk5MjWVlZkpmZKbVr15aMjAypVauWeXSLK/J5qlu2bJm0aNHCWQIARKM/L4uKiqRx48ZSt25dyc7ONuOIjivRxpQdO3aIDke5ublm2cbChQulVatWUr9+faemetpGWVlZoDa2bt1qttfx0EYi2lizZo1s2bLF9N1WGPsRSxvEnJj7IebE3AYxJ+Z+iDkxtxG0jVGjRsmiRYtk3LhxTo0/Yp7cMed7TsxtEHNi7iee/eCKAABA3LkH/N2D/u7zaEUHJ6/66krVdvxKLG0E2b+WRLSh28fyGq/6aCWsnxUx917vVcLYD2Luvc6r6PaxvMarPloh5t7rvAox917nVYi59zqvotvH8hqv+miFmHuv8yrE3HudVyHm3uu8im4fy2u86qMVYu69zqsQc+91XoWYe6/zKrp9LK/xqo9W4tkPrgiwxBUBAGBHf15u3LhRCgoK9l4RoONJdVcElJaWmgx3vXr1zLKNt956S9q3by/5+flOTfW0jT179gRqY/PmzWb7OnXqODXVS0QbK1askJKSEtN3W2HsRyxtEHNi7oeYE3MbxJyY+yHmxNxG0DaGDRtmzpidNGmSU+OPmCd3zPmeE3MbxJyY+4lnPypTNgAA1IDIA/7xLjW9/zCXdO17uvZbS7r2PV37rSVd+56u/daSrn1P135rSde+p2u/taRr39O131rSte/p2m8t6dr3dO23lmTqO4kAAAAAAAAAAABSGImAdFdaJItfGSGDru4nAx+eKjOXFDsr7JR+OkumPjxQ+l09SEY8P0uWlzordpdKcVGRuWGodymW0t3Otmp38T7vY9an7o72p22OuLuf9Lt7RPXbfRGx3RfRtiuVokXTZOjNFdvdPFSmLSqqqIkuan9dce9HxPur2G6/+AT9nCOVFpttirc6y/vwaRcAAAAAAABA0iARkMZKPx4qXeo3k05XT5PlFcvFbw+RvtePN8997S6WaVc2k9zWPWTI23qQeLlMu/tCuf+1ytWyYoR0adZMmkUtXWTECmfb4pnS74hG0qnXYBn/ygyZcncfObN1rhxzwyzZ9/BzqSy+u1NFm2fK4He2y/Z3BpvtOj1c6Kx3Fcu8u7tIbsszZcSSisUl46VHy1zp8miV7XYXyvhzKt5L5/4ys6hiuWim9O9csXzOeCmsevDcr78q3v0oniUDK+qbnT6w8v1V9OPCjo2k2a+nSpH7/oJ8zvsokvHdK/ZVsU2XJ6pE3KZdAAAAAEhjen9FvfcVAADJglErXX06VLq0Gyilt8yVTavekCljxsm4Fz+QdW8PkObOJtEVy8wrm8uF07vIlFXb5YMXK147Zoq8UbhJxvV0Njm6v8xdt07WeZS5D3SWnB/1le5H64alMvOGC+WFs2fIpu0V61dVlO2bZO7tHWX5sDPlwrF6JNrxzkDp9uflcsmLm2TdrCkyZdY62TTtEim8tYtc946zTYXip/tIlz8XyYB522WpvjftV8V2i2/uIYMWORtVKPxTD+m3sLvMWL9O3phasd3UN2Td+hnSfWE/ufDRyIPjFv2Nez+KZeolZ8r4k1+QTVu+rHx/Ff3YNLOvFD/fR/pMdvZn/Tnvq3j6ALlue2fp7Cx/z7JdAAAAAEhjWVlZJAIAAEmFUSstFcn4awfK4h8Pl5kPdBa7+3lHeGeQ9JlcKv2nvSCXHO7UVVUnR/KbNpWmVcvq4dLnjlwZPn2AtNYbVxdPkaGTO8rgB7pHvI986fynETKgqcisMVP2XqEwc8wIKf7xYBnaM2LLC4bKkB8Xy4gxM52aQhlyR8XznoNl8I9znDrd7jrpm7Nchk6Y5dQsl5nTl0vT3w+U7pEfQH53Gfj7plI4qfIqCcOmv3HvR770un6GzJzQS/IjbvCdc24v6VXxOGv2B5UVtp9zpN3zZNCVU6X7Ddd5JH0s2wUAAACANFJSUiKDBw+WG2+80ZT777/f1AEAkCxIBKSjj4fL/bNFut/QV5pWLJYW+8wlv49SmfrICCluOkD6dq1YdOeoL65uZn3H1pnS7+z7pfmYKdLXPaCe31eGzBr6/bKrTmfpdnbF46IPpHLCnMUy9zWRpl27mPf8vabSpWtFzWtzK7aoUDRX5q0QaX16Z/k+DaAq9ndBxbufPqtyO7XvBnuVbi0WKciX3Molu/7Gux8Vcs7tLp2rHsRfNFc0ldHt9E6Vy168PucIi+/uIyPy75RBvSMzIN+LuV0AAAAASEF6wP/hhx+WHTt2yDnnnGOKPtc6kgEAgGRBIiAkli1bJqNHjw5U9DWxWP7aTFkuHaVb05nSr3WG5DbSueQbSW5uFxn6qbNRVLNk1vSKh3PbSOnDPaRZZq400rnoG+VKsytnVpkLf1/z7ugj4/PvlCFX7HsIvGPXqgftVakU686aNpdmurh7uSwvEmnUaP+D1/mNGokULZd1urC1uPLRQ/OjK9qt2G65SXg0l753XyKljw6RaRvM6kqrx8vgsTlyyU0XOgfq7fsb1354KZ4ng35/vxTl95UBF+/7GUaK9jkbXwyVvg8ul+4PDJSOVQ/2R2PZLgAAAACkos8//1zmzZsnvXr1ku7du5uiz7VO1wEAkAxIBISIHtgPUmJV+JGec75cBl8yWJo/vV3Ky8tl++fjpFfePBnY+TqZV92VASsKRSeHyZneX3p91FcWby+X8l2Vc+EXTeyx71z4kfQA9LBi6fXAILsD0MXTZMpLIq1v7isddXnFcnOmfPPDzeF0D4ul8IuKh6bNzHQ3mzbtn5JYt1rf22JZ7tw8N7/nFCmcmiuDWzaSZkc0qywnj5BmUwtlijttT6z9dcXajwizbq58b7mNusj9RZfIlI/GSfc8Z2VV1X7OxTL15oGy+IQhMvxi76sBIgVqFwAAAABS1OGHHy533nmntGnTxqmprFObN282jwAAhF1GuR4FrlBYWCh5eXnmzvd605vMzEypXbu2ZGRkmBvg6KNbXJHPU50eeG/RooWzFH+6/9dff91ZsnPWWWfF9J5mXpYhPSaLdJ+6SWZEHhCefZ3kdhshvV4slyl7b4JbxRdDpU3LgVJ49J3yweeDIw42F8mIzs3kuq1D5MuP9r/h8Kxrc+XMiX3ljS3DpZtfImB3oQzt3EYGyhBZOs+Z495pt6PHe1v+cBs55laRIZ8vlQHHOu+j6E5ZunywtHa20ely+hT0kKmlrZ3ttLJYZt3cTXo8USrdftNFmsk6mTt5luTfMktm/sm5d0KM/TUOqB9OZYXFY/vJiIUVT7YulRnPL5dOD0yTKbd439uhus+59KU+0uj8eTJg4Zcy+EdaU/GZZPSQxQ99KUtv2b8HQdoFIunPs1WrVkmDBg0kNzfXjCk6nui4orzGlF27dpmkZHZ2tlm2sXTpUjnqqKOkXr16Tk31tI2ysrJAbXz33Xdme33/NhLRxjfffCPbt283fbcVxn7E0gYxJ+Z+iDkxt0HMibkfYk7MXfq7qr5PPU6iz3Ubpb/Pvv/++3L99dfL448/LieddJKUlpbKtm3bzO+0XsaPHy9LliyRYcOGOTX+iHm4+hG0Db7nxNwGMSfmfuLZDxIBlmo6EZBIlYmAbjJu3RvSN3Kml61TpUf9PvLB7R/IugfM+ev7cw5kL79+rmx/vLNTWWnxHc2k04OdZMqWGXJJ5JnjFfu9sGK/Mz1es7/iivfXXHoU9pe5rw2Wzu5RZ6dd8ThoXfUAeuUB76nS7IoXZMYj3aRZ8Qcy/uo+MuSjYikq6rb3/S2+4xjp9GhneWHdFOnltlM8Tfo0u1AW3/KBLP1TxWcQS3+NA++Hp0/vlzatB0nOQ0vlg1v2pjkqVfc5754n1xV0kSkXzJB1E7o7UxhVnwjYR3XtAlXoz0v9JaBu3bpm4HHHkzp16phxwx1TlPuog5qyHQjV+vXrJT8/f2+CwY+2oUNekDZ0wHXft41EtKF/YOprtO+2wtiPWNog5sTcDzEn5jaIOTH3Q8yJuUtfr8dIGjZsuPdYiW6zevVq+dOf/iSHHHKI3H777eZYyoYNG+Tbb781+/HyzDPPyMcff2xuOGyLmIerH0Hb4HtOzG0Qc2LuJ579IBFgKZUSAYUPtpE2d3SUGeVTpLtTV6nywPDU38yQ8kn7rtlr9zTpk3mh58HjqAeyX+ojGedPlb4zy2XcuU6dl91FMvXXraW/jJDC5y6RppFntPu2G9mfYpl3d3fp8ud5ZkkO7yZ3jnlBOj3dSC58vr/M3T5cOjsHzed6JD0qD/B3kxm7dH8x9Ddu/fBSJOO7NZN+sy+pfH+R+67mcy4ae6Y0u3qWtL6gr3Rp4lTKcpk1dpasO7GX9Dm5kTS/YLDceW60ewBU0y5QhXtFQOPGjc0VAW4W2h2EvMaUnTt3msFNt7f14Ycfmp/LOnbZ0Db27NkTqI2tW7ea7W0H3ES0UVRUZH7ZCDImhbEfsbRBzIm5H2JOzG0Qc2Luh5gT80j6+2rkFa6aBPjrX/9q2rjrrrtMX/Swip4RqvuJZuzYsfLBBx/IE0884dT4I+bh6kfQNvieE3MbxJyY+4lnP0gEWKrpRIDuP1FTA8n0PpLRa7EMLlwqd7Zy6pRzkHpatWfuF8r9rdvIoI4vSPnUXk5dpcoEQ7P9rjSo/sx5x+5CGd+9mww6fLwUTujuMf3MYhnUrJPcf+4MKa9YH2nmlRnS45U75YN1gyvn4XeVFkvx7nzJN206rz/bSXJYn5kfsL810Y8qKq/oiJziqFJ1n3PRK/fLoOnLnSVH8Qcy5fnFIlaJgOjtAlXpz7ONGzdKQUGBuSzQTQTouBJtTNFLqTURYHsZoZozZ4506NDBOvOubejgGaQNnfNVt9ckho1EtLFixQrzGu27rTD2I5Y2iDkx90PMibkNYk7M/RBzYh6NnuziJgFuvPFGOfHEE501/nRKoAULFsjkyZOdGn/EPFz9CNoG33NiboOYE3M/8ewHNwsOET14FqTErHM36SaFMuO1Kje6fXuWTKt46N65usPQraXb2Tki02fJrH1uKlwks14sFDm6s3TZ51hykXwwv6Kdph2ldcxJANVRul1Q0e4rc83NdvfaPUtmPi2S07vH/gfPc9wkQMWX5qUhMrSoudx5g3Pw/ejWZvvly6scHK9QWddFWpuD3QH6G9d+zJOZL+1/w2M9i7/QvNB9f67qP+em594p48aM27c80Mfc26D5JUPMcmUSIGi7AAAAAJD6NAnw0EMPmQMrQZMAAACEAYmAENGz+4OUmDXtIwOuyJd5dw+QaRucutJCuf/WEVL6oyEy5OLKGeSVnkne7+r7ZWZEzqDzDYOlY+kIGfhwoZQ6dcXTB8ig+fnSd+Sg72/Qa2ySonUVD00aRTkwvlzGd+8i/dZfKIPPLZVZz0+TafuUxeI23e3KAdK86H7pW9Guq/DRgTKitLkMuDriCobdhbL4Y/edVXTt4xHS47KpknPFcBlkbpJboU53GfRAayl9YmDF+/7+wHfxO4Nk4BOl0vGhAXun57Hrb5z7sXWTTLu6tfR4eJ4URyQgiiZeJ4M+ln3eXyW/z9lS4HYBAAAAILWVlJTI8OHDzT2wrrrqKpIAAICkRCIgJPTA/jXXXBOoxJ4MyJHuY+bKkFZT5cKCXGl2RDPJzW0jg4r7yxuvDTBnibu2fzxFxo+dIoVbnQp17ACZ9WJfWXdHG8lt1EyaNcqQRr1mSqeKfY479/skQqXlsvTTiod2zffZ7/cKZdZrxSJLRki/X18oF+5XhsgHzpbyo8Eyd2ovWXdrG8lw2m1z67qKvsyQwSc421Qofn6QdGqXW7lNs1zJbXedrLtihiwf494kt1Lr2+fKG9cXy/2dG0lus8ptG51+v5Te9IbMirwhrlV/49yPvO4ybuEIaTahizTKrIyRbtfsypnSvOr7M/w+Z0uB2wUAAACA1Pbuu+/Kq6++Kp9++qmZ43/AgAF7y+zZs52tAAAINxIB6apOaxkwb7usW/iCjHhkhLywcJ1s/3y4dKtyOnnzW5ZKefn+c8Ln9xwn67YslTfGjJARY96QpVs2yRtXeR0k7iYj1q2TdSOjnUfeXaaUl5ubK3mXfW+c2/TiF6q0u05mVGk3v2Kbcnebx1+QD9Ztl6WPdJf8/abeypduj38p29d9IC88Hrltt/3Oqvfvb/z7IYf3knGF5bK9cIaJkdluk/f78/+cPRw7QJZWvLeq90gI1i4AAAAApLaWLVvKn/70J+nXr5+cccYZ+5QjjjjC2QoAgHAjEZDWcqTpj7pLr969pPuPmu5ztryVvNbSreK1vXp3iz7/f8Ve85s2lab5gfcenU27e7fpLh2bVt92TtOO0t1mW6v+BmC5v5xW3Sq2cbaL+jnG/3O2axcAAAAAUtuxxx4rPXv29Cy6DgCAZEAiAAAAAAAAIIDvvvtO9uzZ4ywBABB+JAIAAAAAAAAC2LVrl5kGFgCAZEEiAAAAAAAAAACAFEYiAAAAAAAAAACAFJZR7lzLVlhYKHl5eZKTkyNZWVmSmZkptWvXloyMDKlVq5Z5dIsr8nmqW7ZsmbRo0cJZAgBEoz8vi4qKpHHjxlK3bl3Jzs4244iOK9HGlJ07d0pZWZnk5uaaZRsLFy6UVq1aSf369Z2a6mkbOo9rkDa2bt1qttfx0EYi2li7dq2UlJSYvtsKYz9iaYOYE3M/xJyY2yDmxNwPMSfmNoK2MXr0aNP3cePGOTX+iHlyx5zvOTG3QcyJuZ949oMrAgAANSLyoL8+VldstqlaItuwKbG0oa8JWxtB+60laBtB968lEW0E7XtY+xG0jaD91hK0jaD715KINoL2Paz9CNpG0H5rCdpG0P1rSUQbQfse1n4EbSNov7UEbSPo/rUkoo2gfQ9rP4K2EbTfWoK2EXT/WhLRRtC+h7UfQdsI2m8tQdsIun8tiWgjaN/D2o+gbQTtt5agbQTdv5ZEtBG072HtR9A2gvZbS9A2gu5fSyLaCNr3sPYjaBtB+60laBtB968lWhtcEWCJKwIAwI7+vNy4caMUFBTsvSJAx5PqrggoLS01VwTUq1fPLNt46623pH379pKfn+/UVE/b0Cx6kDY2b95stq9Tp45TU71EtLFixQpzxoH23VYY+xFLG8ScmPsh5sTcBjEn5n6IOTG3EbSNYcOGmTNmJ02a5NT4I+bJHXO+58TcBjEn5n7i2Y/K1AUAADUg8oB/vEtN7z/MJV37nq791pKufU/XfmtJ176na7+1pGvf07XfWtK17+naby3p2vd07beWdO17uvZbS7r2PV37rSWZ+k4iAAAAAAAAAACAFEYiAAAAAAAAAACAFEYiAAAAAAAAAACAFEYiAAAAAAAAAACAFEYiAAAAAAAAAACAFEYiAAAAAAAAAACAFEYiAAAAAAAAAACAFEYiAAAAAAAAAACAFFb73gr6ZMOGDZKVlSV16tSR2rVrm1KrVi3JyMjYr7gin6e6TZs2SePGjZ0lAEA0+vNy27Ztkpubu3ccKS8vN+vKysrMc32MLLt27ZI9e/aYsafqumhl1apV0qRJE8nMzPRcX7XE0sb27dvNuOj1nr1KItooLi6WHTt2yCGHHOK53quEsR/EnJjbFGJOzP0KMSfmNoWYE3O/kog23nvvPVm7dq307NnTc71XIebJHXO+58TcphBzYu5X4tmPjIoKc3SmsLBQ8vLyJCcnxyQENHDagB7AqZoQcEU+T3XLli2TFi1aOEsAgGj052VRUZFJntatW1eys7PNOKLjSrQxRQdOHY40eWBr4cKF0qpVK6lfv75TUz1tQwe+IG1s2bLF9EHHQxuJaGPNmjXmNdp3W2HsRyxtEHNi7oeYE3MbxJyY+yHmxNxG0DZGjRolixYtknHjxjk1/oh5csec7zkxt0HMibmfePZjbyLg1VdfNRtoEsBNBLgHa9xH8wLnUUU+BwAkr3gmOjURsH79enM2gI4rmgjQwae6REBpaalJBOj2tt5991054YQTpGHDhk5N9bQNHTyDtFFSUmK210y6jUS08dVXX5nXaN9thbEfsbRBzIm5H2JOzG0Qc2Luh5gTcxtB2xgxYoQ5UPbkk086Nf6IeXLHnO85MbdBzIm5n3j2gysCLHFFAADY0Z+XGzdulIKCAqlXr551IkAHNt3e1pw5c6RDhw6Sn5/v1FRP29DL6YK0sXnzZrN9kAG6pttYsWKFeY323VYY+xFLG8ScmPsh5sTcBjEn5n6IOTG3EbSNYcOGyYIFC2Ty5MlOjT9intwx53tOzG0Qc2LuJ5794GbBAAAAAAAAAACkMBIBAAAAAAAAAACkMBIBAAAAAAAAAACkMBIBAAAAAAAAAACkMBIBAAAAAAAAAACkMBIBAAAAAAAAAACkMBIBAAAAAAAAAACkMBIBAAAAAAAAAACkMBIBAAAAAAAAAACksIzyCvqksLBQ8vLyJCcnR7KysiQzM1Nq164tGRkZUqtWLfPoFlfk81S3bNkyadGihbMEAIhGf14WFRVJ48aNpV69epKdnW3GER1Xoo0pO3bsEB2OcnNzzbKNBQsWSKtWraRBgwZOTfW0jbKyskBtbNmyxWxfp04dp6Z6iWhjzZo15jXad1th7EcsbRBzYu6HmBNzG8ScmPsh5sTcRtA2Ro0aJYsWLZJx48Y5Nf6IeXLHnO85MbdBzIm5n3j2gysCAAA1IvJAf+SB/2jFdju3BN1eSyyvCVpqug2X17p4ljC2EXR7LbG8Jmip6TZcXuviWcLYRtDttcTymqClpttwea2LZwljG0G31xLLa4KWmm7D5bUuniWMbQTdXkssrwlaaroNl9e6eJYwthF0ey2xvCZoqek2XF7r4lnC2EbQ7bXE8pqgpabbcHmti2cJYxtBt9cSy2uClppuw+W1Lp4ljG0E3V5LLK8JWmq6DZfXuniWuLXBFQF2uCIAAOzoz8uNGzdKkyZNpG7duuaKAB1P/K4I0Ay3bm/r7bfflvbt20vDhg2dmuppG3v27AnURklJidk+SKa+pttYuXKleU27du2cGn9h7EcsbRBzYu6HmBNzG8ScmPsh5sTcRtA2hg8fLgsXLpSnnnrKqfFHzJM75nzPibkNYk7M/cSzH1wRAACoEe5Bf5viJgW81kUriWgjlu0T0YbyWhethLUfQV+jgrwmljZi2T4RbSivddFKWPsR9DUqyGtiaSOW7RPRhvJaF62EtR9BX6OCvCaWNmLZPhFtKK910UpY+xH0NSrIa2JpI5btE9GG8loXrYS1H0Ffo4K8JpY2Ytk+EW0or3XRSlj7EfQ1KshrYmkjlu0T0YbyWhethLUfQV+jgrwmljZi2T4RbSivddFKWPsR9DUqyGtiaSOW7RPRhvJaF60c1H6YdwsAAAAAAAAAAFISiQAAAAAAAAAAAFIYiQAAAAAAAAAAAFIYiQAAAAAAAAAAAFIYiQAAAAAAAAAAAFIYiQAAAAAAAAAAAFIYiQAACIH58+fLgw8+aMrChQudWgAAAAAAAODAkQgAgIPsyy+/lGnTpsmmTZtMef7552XVqlXOWgAAAAAAAODA1L63gj7ZsGGDZGVlSZ06daR27dqm1KpVSzIyMvYrrsjnqU4PzjVu3NhZQlVvvvmmNG/e3Dw/44wzzKNy67Xu6KOPdmoBRPrvf/8rn3/+ubNU6dBDD5WjjjrKWUou+vPyu+++k5ycnL3jSHl5uVlXVlZmnutjZNm1a5fs2bPHjD1V10Urmixp0qSJZGZmeq6vWmJpY/v27WZc9HrPXiURbWzevFl27NghhxxyiOd6rxLGfhBzYm5TiDkx9yvEnJjbFGJOzP1KItpYsGCBrFmzRnr27Om53qsQ8+SOOd9zYm5TiDkx9yvx7AeJAEskAqq3YsUKeeqpp8wB/8hEgFt/+eWXkwgAotAfxosWLXKWKp199tmSn5/vLCUX/XlZUlIi2dnZe8cSHXyU9tVrsNu5c6d51G2rrotW1q5dawZbHbe81lct2oYOnkHaKC0tNX2wHaAT0Yb7i4aOSV7rvUoY+xFLG8ScmPsVYk7MbQoxJ+Z+hZgTc5sStA2d/lMTAeedd57neq9CzJM75nzPiblNIebE3K/Esx8ZFRXm6ExhYaHk5eWZMzg1IaAZHH2BHuzXhtI9EbBs2TJp0aKFs4Sq9Mz/rl27yj333CNObslw62fPnr1PggDAvubNm2e+J/rz9swzz5STTz7ZWZN89Ofl+vXrzS8BdevW3ZsQ0HEl2piiA6cOSrq9rblz58oJJ5wgDRo0cGqqp23o4BmkDU1o6Pb6y4yNRLShZ1roa9q2bevU+AtjP2Jpg5gTcz/EnJjbIObE3A8xJ+Y2grYxcuRIkwyYOHGiU+OPmCd3zPmeE3MbxJyY+4lnP0gEWCIRUD0SAQBc+vNy48aNUlBQIPXq1bNKBGi2WhMBur2tOXPmSIcOHayvnNA2dPAM0oZm93V72wE6EW3olVb6Gu27rTD2I5Y2iDkx90PMibkNYk7M/RBzYm4jaBvDhg0z0wNNnjzZqfFHzJM75nzPibkNYk7M/cSzH9wsGAAAAAAAAACAFEYiAABCQOd8e//9903RG8EAAAAAAAAA8UIiADVq3bp1zjMA0ejd3B999FF59tlnTXnsscdMYgAAAABAOOn0l+k0XTIAIPmRCEBcHH300eZx5cqV5tH1yCOPOM8ARLNkyRIzp75Lb7SrdQAAAADCSRMBeu8rAACSBaMW4kITAe3atTM3yfjDH/4gV111lRx//PHyox/9yNkCQDReZxI593EHAAAAEDLvvvuu/Otf/+KKAABAUiERgLh544035Mc//rF8++23ctJJJ8mbb74pF110kdx7773OFgC86N3lGzVq5CyJFBQUBLrjPAAAAIDE0CTA448/LvPmzXNqAABIDiQCEDd68PLBBx+UyZMny+9+9ztp1qyZnHHGGXLPPfeYRwDecnNzZcCAAdK7d2+TPLvxxhslJyfHWQsAAADgYNN7eE2aNEnGjh1rroQHACDZkAgAgBDIysqSk08+2VxNk5mZ6dQCAAAACIMvvvhCXn/9dTn77LOlTZs2Ti0AAMmDRAAAAAAAAEA1GjRoIJdddpm5gvcHP/iBUwsAQPLIKHfuSFlYWCh5eXlmOgo9M1XPSK1du7a5+Y3eCV8f3eJKpxvjLFu2TFq0aOEsAUB8zZ8/X2bPnm2en3XWWebqgGSlPy8/++wzqVev3t4xRceTOnXq7B1TVOSYsnv3bvMY5GqINWvWSJMmTSQ7O9upqZ62oUNekDZ27Nhhtnffs59EtFFSUmIuTde+2wpjP2Jpg5gTcz/EnJjbIObE3A8xJ+ZV6VSeek8vfdTfX//4xz+a+r/+9a/y3XffyTfffGP2UZ0pU6bIRx99JH/5y1+cGn/EPFz9CNoG33NiboOYE3M/8eyHXYuoEXoT3epupOu3HkBq+PLLL2XatGmyadMmU55//nlZtWqVszY9RCYFakosbcSyfU23EYsw9iOWNoIKaz+Cbh+LMPYjljaCCms/gm4fizD2I5Y2ggprP4JuH4sw9iOWNoIKaz+Cbh+LMPYjljaCCkM/ysrK9h6IqSqW92cr3v3wkog2ggprP4JuH4sw9iOWNoIKaz+Cbh+LMPYjljaCCms/gm4fi4PZD64IsFQTVwRMmjRJfvvb38rEiRPl8ssvd2orPfbYY3LTTTfJypUr5cgjj3RqAaSiOXPmyIwZM5ylSj179pTTTz/dWUou+vPy66+/NhnxunXr7r0iQMeVaGOKZqv1Dyzd3pZeRaHzs+pl2ja0jT179gRqY8uWLWZ7ff82EtHG6tWrzVkHQeamDWM/YmmDmBNzP8ScmNsg5sTcDzEn5l70d1j3CtfIKwKqSxJEeuKJJ2ThwoUyYcIEp8YfMQ9XP4K2wfecmNsg5sTcTzz7QSLAUk1NDaRzCx5zzDHmCxOpdevW0qFDB3nmmWecGn9LliyRjh07Okv2rr76ahk9erSzBCDR9IqAUaNGOUuV+vfvL0cddZSzlFz05+XGjRuloKDATA+klwbqeFJdIqC0tNT8EaXb29IEiv6czM/Pd2qqp23o4Bmkjc2bN5vt9Y8+G4loY8WKFeY12ndbYexHLG0Qc2Luh5gTcxvEnJj7IebE3E9kIsDWsGHDZMGCBTJ58mSnxh8xD1c/grbB95yY2yDmxNxPPPvB1EAHWZ8+feS9994zBwJd06dPl08//VSuvPJKp8bOiSeeaM5CCFpIAgAHlyYDL7jgAjNgNm7cWHr37p20SQAAAAAAAACED4mAg+zaa681j5MmTTKP6p///Ke0bNlSzjnnHKcmfPSKheOPP/6Ayrp165y9AejcubPccccdcttttyX1jYIBAAAAAAAQPiQCDjI94P+zn/1M/v3vf5tlvaTkhRdekOuuu84sh5VOJfXZZ58dUGnWrJmzNwAAAAAAksP5559vCgAAyYREQAjoXOA6PZDOF/j888/Ltm3b5IorrnDW2tMpfrp27Sr/93//t7e4v6DojUfPO+88U3r06CHdu3c35dxzzzXTEwEAAAAAAH8/+clPpEuXLmaqXQAAkgWJgBDQ+cD1rtozZsyQ5557Ti6++GKpX7++s9beNddcI7Nnz5Z//etfe8uLL75oyksvvSQvv/yyKdrOzJkzTXnllVdkypQpzh4AAAAAAIAfvXljWVmZswQAQPiRCAgJnQpo6tSpsmzZMrnxxhudWgAAAAAAEDY7d+7kigAAQFIhERASAwcOlMMPP1w6dOggp5xyilMLAAAAAAAAAMCBIREQEo0aNTLT+mgBAAAAAAAAACBeat9bQZ9s2LBBsrKypE6dOlK7dm1TatWqJRkZGfsVV+TzVLdp0yZp3LixswQAiEZ/Xn733XeSk5OzdxxxL5vWeVT1uT5Gll27dplH3b7qumhl1apVUlBQIJmZmZ7rq5ZY2tC5X3U89HrPXiURbWzevFl27NghhxxyiOd6rxLGfhBzYm5TiDkx9yvEnJjbFGJOzP1KItpYsGCBrFmzRnr27Om53qsQ8+SOOd9zYm5TiDkx9yvx7EdGRYU5OlNYWCh5eXnmwI0mBDRw+gI9gKMNuUmAyIP/kc9Tnc7d36JFC2cJrq5du5pHrmQA4NKfl0VFRSZ5WrduXcnOzjbjiI4r0cYUHTh1OMrNzTXLNhYuXCitWrWyvrm6tqEDX5A2tmzZYvqg46GNRLShf0Dqa7TvtsLYj1jaIObE3A8xJ+Y2iDkx90PMibmNoG2MGjVKFi1aJOPGjXNq/BHz5I4533NiboOYE3M/8ewHiQBLJAK8kQgAUJX+vPzmm2+kSZMmZuDRRICOJ36JAB3YdHtbc+fOlbZt20rDhg2dmuppG3v27AnURklJidler5azkYg2vvrqKzOoa99thbEfsbRBzIm5H2JOzG0Qc2Luh5gTcxtB2xg5cqQ5UDZx4kSnxh8xT+6Y8z0n5jaIOTH3E89+kAiwRCLAm00iYMmSJfLmm2/K0UcfLWeccYbk5+c7awCkIv15uXHjRnNZYL169awSAXrZmiYCdHtbc+bMMTdYt/2Zom3o4BmkDb3MT7e3HaAT0caKFSvMa7TvtsLYj1jaIObE3A8xJ+Y2iDkx90PMibmNoG0MGzbMTA80efJkp8YfMU/umPM9J+Y2iDkx9xPPfnCzYMREby2hB/D0AL8W94Cemxhw3XzzzdKxY0e56aab5IILLpDTTjtNli5d6qwFAAAAAAAAANQ0EgGIiZ7Zr1cB6KP7XMs999zjbCFy++23y6OPPmrq1q5da9brGcJ9+/Z1tgAAAAAAAAAA1DQSAYiJmwBwuctu3QcffGCSAAMGDDBXDzRr1sys06TA/Pnz5dNPPzXbAQAAAAAAAABqFokA1Ag90K83s9C7hd933317i84ZpgkBTRQAAAAAAAAAAGoeiQDUiP/973/m0b2HQGRRa9asMY8AAAAAAAAAgJpFIgA14phjjjGPEydO3Hv/gMhyyy23mPUAAAAAAAAAgJpFIgA14rDDDjOPr776qnkEAAAAAAAAABwcJAJwQE488UT55JNPzPP169fLI488Yp6feeaZcumll8rDDz8sr7zyiqlzjRkzRl5//XVnCQAAAAAAAABQk0KVCNAbzL799tum6HOEX6dOnUwCoGnTpnLEEUfIgAEDnDUi9957r7Rr1066d+8uJ5xwgnTs2FEaNWpkbhr8zjvvOFsBAAAAAAAAAGpSRnkFfVJYWCh5eXmSk5MjWVlZkpmZKbVr15aMjAypVauWeXSLK/J5rCZMmCBTpkwxB//1YHKDBg1MfUlJiRQVFcnpp58uffr0kSuvvNLUHyzLli2TFi1aOEuIpGf8f/vtt3LuuedK48aNndrvvfjii/Lll1+a53rvgPPPP988B5Ca9Ofl119/bX4e1KtXz4wpOp7ouBJtTNmxY4eUlZVJ3bp1zbKN9957T1q3br133PCjbezZsydQG1u2bJHc3FypU6eOU1O9RLSxevVq8xrtu60w9iOWNog5MfdDzIm5DWJOzP0Qc2JuI2gbTzzxhCxatEjGjx/v1Pgj5skdc77nxNwGMSfmfuLZj4N2RcDf//53OfLII2XUqFHSsmVLGTJkiAwaNEhuuOEGU/T50KFDzTrdRrfV1yB8NAGgyRqvJIDSA/833nijKSQBgPSgOWa3VF2OVmy3c0vQ7bXE8pqgpabbcHmti2cJYxtBt9cSy2uClppuw+W1Lp4ljG0E3V5LLK8JWmq6DZfXuniWMLYRdHstsbwmaKnpNlxe6+JZwthG0O21xPKaoKWm23B5rYtnCWMbQbfXEstrgpaabsPltS6eJYxtBN1eSyyvCVpqug2X17p4ljC2EXR7LbG8Jmip6TZcXuviWcLYRtDttcTymqClpttwea2LZ4lXGwflioCrr75aZs+eLT179pRWrVo5tdXTqYJeeukl6dq1q5ljPtG4IgAA7OjPy40bN0qTJk1Mxjo7O7tGrgjQK8nat28vDRs2dGqqF0sWXa9O0+1rMlMftI2VK1ea1+jUa7bC2I9Y2iDmxNwPMSfmNog5MfdDzIm5jaBtDB8+XBYuXChPPfWUU+OPmCd3zPmeE3MbxJyY+4lnPxJ+RcCvfvUrWbp0qdxyyy3WSQCl2+pr9LW6DwBAuLkH/W2KmxTwWhetJKKNWLZPRBvKa120EtZ+BH2NCvKaWNqIZftEtKG81kUrYe1H0NeoIK+JpY1Ytk9EG8prXbQS1n4EfY0K8ppY2ohl+0S0obzWRSth7UfQ16ggr4mljVi2T0QbymtdtBLWfgR9jQrymljaiGX7RLShvNZFK2HtR9DXqCCviaWNWLZPRBvKa120EtZ+BH2NCvKaWNqIZftEtKG81kUrYe1H0NeoIK+JpY1Ytk9EG8prXbRyUPth3m2C3HzzzbJmzRq57LLLnJrg9LW6D90XAAAAAAAAAACoXsISAf/5z3/kmWeekYsvvtipiZ3uQ/el+wQAAAAAAAAAANElLBFw9913S/fu3c09CA6U7kP3pfsEAAAAAAAAAADRJSQRoDeM+Oabb+SUU05xag6c7kv3qfsGAAAAAAAAAADeEpIImDZtmrlzdLzpPqdPn+4sAQAAAAAAAACAqhKSCJgzZ44cf/zxzlL86D7ffPNNZwkAAAAAAAAAAFSVkETAsmXLpFmzZs5S/Og+dd8AAAAAAAAAAMBbQhIBJSUlUq9ePWcpfnSfum8AAAAAAAAAAOCt9r0V9MmGDRskKytL6tSpI7Vr1zalVq1akpGRsV9xRT6vzgMPPCDnnHOO2V887d69W1577TW56667nJqas2nTJmncuLGzBACIRn9efvfdd5KTk7N3LFE6ZpSXl+9XysrKZOfOneZRt9dHm7Jq1SopKCgwY5fX+qolljZKS0vN9sprfdWSiDaKi4tlx44d0qRJE8/1XiWM/SDmxNymEHNi7leIOTG3KcScmPuVRLSxYMECWbNmjZx//vme670KMU/umPM9J+Y2hZgTc78Sz35klOtRmAqFhYWSl5dnDtxo0DIzM80L9MBN1YSAK/J5dY488ki5+uqr5Qc/+IFTEx/ffPONjBkzRr766iunpuboFEQtWrRwlgAA0ejPy6KiIpM8rVu3rmRnZ5txRMeVaGOKDpw6HOXm5pplGwsXLpRWrVpJ/fr1nZrqaRs68AVpY8uWLaYP7gDqJxFt6B+Q+hrtu60w9iOWNog5MfdDzIm5DWJOzP0Qc2JuI2gbo0aNkkWLFsm4ceOcGn/EPLljzvecmNsg5sTcTzz7kZBEgGa8NQlwyimnODXxoRl1TQa8+OKLTk3NIREAAHb056X+bNaMuA48mgjQ8aS6RIBmq3U40u1tzZ07V9q2bSsNGzZ0aqqnbejgGaQNnX5Ot9er5Wwkog1Nfuugrn23FcZ+xNIGMSfmfog5MbdBzIm5H2JOzG0EbWPkyJHmQNnEiROdGn/EPLljzvecmNsg5sTcTzz7kZBEwOjRo2Xy5Mly2WWXOTXxMWnSJPnNb34j11xzjVNTc0gEAIAd/Xm5ceNGc1mg3svFNhGgA1uQ+8nMmTNHOnToIPn5+U5N9bSNPXv2BGpj8+bNZvsgA3RNt7FixQrzGu27rTD2I5Y2iDkx90PMibkNYk7M/RBzYm4jaBvDhg0zJzPqsRFbxDy5Y873nJj/f/buA06q6uzj+ENZYJdepYkFRUARKxJL7F1ELCBii8YeS4ypb0yMJjGJiSZiQ0FFRBRRLNgLIhY6KgoqRXrvu5RlYffd/2HuOgx3du4ddoeZ2d/38zm7M7fMmTPPzNw759xzThDEnJgnUpHlSMlkwRdffLE74K1evTqyZNfpsfSYemwAAAAAAAAAAOAvJQ0B6hZy++2327vvvhtZsuv0WHrMoF1OAAAAAAAAAACoilLSECB//etfbd68ee4q/l2lx9Bj6TEBAAAAAAAAAEB8KWsI0JhETz/9tD355JP2zTffRJaGp331GHqsoGMpAQAAAAAAAABQVaWsIUCOO+44e/XVV+3RRx+1sWPHRpYGp320rx5DjwUAAAAAAAAAAMqX0oYA6dGjh33++efuyv6BAwfarFmzImvi0zbaVvtoXz0Gdr/777/fTjzxxMg9IDNs3LjRzjnnHHvwwQcjSxBry5YiW7hwqc2cNdf9130AAAAAAABkrpQ3BMjhhx9uU6ZMscsvv9xeeuklu+++++yVV15xY/9/++23Lum2lmmdttG22kf7Yvd74YUX7N///re99957kSVAZsjLy7O7777b/vKXv9gbb7wRWYpoy5evsk2bN7vb+q/7AAAAAAAAyFy7pSHA84tf/MJmz57txvw/+uijbc2aNTZx4kSXdFvLtE7baFukh48//th+9rOf2ciRI5mnARnpsMMOs/79+9t1113nGh6xI68RwBN7HwAAAAAAAJlltzYEeDTe/x//+Ed35b/mAVDSbS1jLoD0MnPmTLv66qtdb4CjjjoqshTIPJdccol7L99www22devWyFIAAAAAAAAg+1QrKaUbM2bMsHr16lmdOnWsVq1alpOTYzVq1LBq1apZ9erV3X8veaJvZzv1Smjfvn3kXtVUUFDgxlbX6zBo0KDIUiCz9enTxxo0aGBPPPFEZAk0N0Cs/ffbO3IrMX1fLlu2zJo2beqGYtIxRccTHVfiHVMKCwtNh6Pc3Fx3P4jx48dbp06dXPyCUB7FxcWh8sjPz3dl0PMPIhV5LFy40O2jsgeVjuVIJg9iTswTIebEPAhiTswTIebEPIiweTz66KM2adKkUL+liXlmx5zPOTEPgpgT80Qqshxp0SMAmeGOO+6wtWvX2j/+8Y/IksqhN+tHH31kd911l5scurIpv2HDhrmhYt59993I0vjmzp3rxpevKN9//70NHTrUXnzxRfcFUhGWLFlio0aNskceecSmT58eWZo6XpmUdLuiKD7/+te/3LBUQQSJ0wMPPODmJKEhoGKpUl8Hqkhbs/tf0amyHjc2eeWozBQmD4/fuvJSupUjmZRMuZNJxDx4IubBEzEPlpIpdzKJmAdPxDx4IubBUjLlTiYR8+CJmAdPxDxYSqbcySRiHjwR8+Apm2NOj4CAqnqPgGnTprlx1VVpWpnzNagC+8wzz7Qvv/zSTjjhBJs8ebKdccYZNnz48MgW5Qvynoy85R01Ntx///1l7/tFixbZVVddtdNVGqr8V4X6N9984yrX99xzTzdXQiKvvvqqPffcc+75R+freeqpp1x+atXTY6rSXNtedNFFkS12tnz5cuvWrZvNmzfPRo8e7V6naHrNjjjiCHdbk2vr/p///GdX1mgnnniia3DxE7192NfUK5N06NDBlUnvm9tuu80t85SXf2y51Ejyu9/9zubMmWMHH3ywffXVV3bqqafaf//7X+vcuXNkK7MVK1a4GClW2keP7/e6x9J7QNunouEpE1REj4BVq1ZZs2bNXAt07dq13fEkUY8AHaS0fVAaRk7vh4YNG0aWlE95bNu2LVQe69evd9sHnQ8lFXnos699unTpElmSWDqWI5k8iDkxT4SYE/MgiDkxT4SYE/Mgwubx0EMPufkQBw8eHFmSGDHP7JjzOSfmQRBzYp5IRZaDHgEIRBXje+21l11xxRWRJRWvqKjIfv7zn9vSpUvdld+qDB43bpyr1O3du3dkq/KpAru8pIppjyq6NRn1008/7SrXdTW+KrG1LDa/n/3sZ3b22Wfbfffd5xoFglSOy29/+1vbf//9I/d2pLLdeOON7nmtXLnSvvvuO3dbeatSOh49poZo8rNx40ZX4a7nqklw1fVUDQu6Mj62IUBU2R79+ngpmt/66BT9mnpl0kTfqoD3yvTLX/7S9bqIFSR/vRZ6TbweKWok0hX87733nluuMnsefvhh18Bw++23R5YEc/HFF7sGiyFDhkSWoCJ4lf5Bktco4LcuXkpFHslsn4o8xG9dvJSu5Qi7j4TZJ5k8ktk+FXmI37p4KV3LEXYfCbNPMnkks30q8hC/dfFSupYj7D4SZp9k8khm+1TkIX7r4qV0LUfYfSTMPsnkkcz2qchD/NbFS+lajrD7SJh9kskjme1TkYf4rYuX0rUcYfeRMPskk0cy26ciD/FbFy+laznC7iNh9kkmj2S2T0Ue4rcuXkrXcoTdR8Lsk0weyWyfijzEb128tFvL4Z4tUA5NEKyGADUC1K9fP7K04j3zzDP25ptvuqu8dbW36GrvW265xVUGa6ibRFTZ7Zd++tOfuqu+BwwYENly+1XLyvP888+PLDG78sorbe+993aVzNEGDhzoKrbVYCDeB708f/vb39ywQ5dffnlkyY5UzmOPPdY9P69VT7d1FX/084ymxhE1XKii389jjz3mem/85z//sQMOOMAtU++Ca6+91pVfzydW9OsUnTx+65T8XlO9TmptHDFiRGTJ9v2Vf7yxMGMfVym6N4AaaJSPJvX1WpaPPPJIFytd/a/GBs+5557r4rR58+bIkmBat27tGgPUCAQAAAAAAABkGxoCkJAqcDWkR2X2BhBd5e1VyEbr1auX+//666+7/2GpC83//d//ucrk6ApmXf0dfV90tb/SSSedFFmyXeywUIkaAubPn2/33HOPq7z2myhly5Yt9sorr1iPHj0iS36kCvYPPvjADZMU6w9/+IOb3NZrKImlsfNPO+20skYAzymnnOIaAYI0pgQR7zVVjwAN7dSqVavIku0OOeSQuGVKRL0JlGJNnTrVmjRpYoceemhkibnhq5Kl11VDCUU3YgAAAAAAAADZgIYAlGvBggXuKmk1ArRr1y6ytHJ8/fXXOwwz42nevLmrbFbFbzJUYa0xyjXsUCK62l6iewkkQ3l2797d/vjHP7qGhViqcFZlusZPi6Wr2iW2vJrMWFe//+Y3v/F9TDUufPLJJzuMme/x5hxI9jWM5feaKn9doe+Xvzd7ekXl//zzz7shgvr16xdZsuvUAKNGlHg9FwAAAAAAAIBMRUMAyqVGAE3AWtm9AWTZsmWRW/70PMJ644033DA5Gl4oHlXKK2keAI2lrzHqd6WC+a233rJnn33W7rzzTnffr9I+UVnFG4ZINDb+v/71L9cjQFe9a7icWEEe0+81/Mc//mFdu3a1Nm3aWM+ePd3QQuWJ95p6+WvS43iiy+SJzT8eL0733nuv9e3b1zVuPPjgg5G1FUO9Ud5++2175513IksAAAAAAACAzEdDAMo1ZcoUd4W3hnapbJXREKAK+SOOOKLcK/xV+a8JZtUbQI0AGqN+V6jCXpXkJ598srufbENAdHnvvvtua9y4sZswN56wjQuiinXN7H7zzTfbpZdeaq+99prrpTB58uTIFjuL95p6+bdt29b99xMbQ7/84w27pG0VJzWGqBFAkyBXNG+Yo/Hjx7v/AAAAAAAAQDagIQDlmjhxou9QL5lAw9BoCJl44+l7NAGvJpjV/+nTp7sJkTXpbjIeeeQRV2GtoXM8YSeujfX555/bAw884BoYKpoqvvUaaYiff/7zn25oH3n88cfd/1hBXtOCgoLIrcRUoa8eBrH5//73v3f/o6mBRnHyhh9Sg8Gvf/3ryNqKsc8++7hhjDRfBQAAAAAAAJAtaAhAXBoiRpO7euO7V7Y99tgjcsuf5goIQ1euy4UXXuj+J6JKcV1lvtdee9mf/vQnKyoqiqwJRle7a/JczQvQokWLyFJ/icoqXnnVCHDMMcfYGWec4e7HE+Qxo5+XGj6U1PDhUQW7Jmz+9NNPI0t2VN5r6uVf3oTA0TFU3rFX9XuNTuVNDK1t1Chw5ZVX2r///W/Xo6AiafLhDz/8cJcbcAAAAAAAAIB0QUMA4tKwQKLx21NBFcmbNm2K3NvR6tWrQzUEaOLaoUOHukYMjakfhiq5VakftoJZV6rPnj3b/vrXv7qr1b2koYfEuy9epblfeVVW8SrtX3zxRVcxH/2YGiJH9F/31QuhvMf0huQJ8hpqwuY5c+ZE7v0o0Wvq5a8JpmN5zylRA4nHL/9Y3rwVH3zwgftfUTTskZ4vwwMBAAAAqAj5+fmu93nYi80AAKhI1Uo01kapGTNmWL169axOnTpWq1Yty8nJsRo1arhKxurVq+9QCemJvp3tVMHbvn37yL2q4frrr7cBAwa4su+7776RpZXnt7/9rQ0cONBWrVoVWbKdhifq1q2b/eY3v3HDxwShcfk1zIsmfx02bFhkaTCaNFjzBehq81/96leRpT/S+169B3RFezRVxvtRQ4DWedtrX5WxWbNmdt999+007r+Xv7Zp0qSJ7+NqmR43+jnocbt37+6u6H/55ZcjS7fTkEU33XSTvfnmm3bmmWdGlvrT6yY//PCD++8J8prGy1+vpYbx0WPuvffekaU7++6776xjx45uGy9/Vcrn5ua629H0Gum16tGjh5tbIJYaSfQ6Rb7iAtOwQEcddZRr0Ike4qkqmTlr53kt9t8vftxi6TtDaePGje6Y4h1Patas6dZ7xxTx/quhSbHS9kF9+eWX7ntZx64glEdxcXGoPDZs2OC21/MPIhV5LF261O0T5piUjuVIJg9iTswTIebEPAhiTswTIebEPIgwebz99ts2ZMgQq1u3rt17773WtGnTyJryEfPMjbnwOSfmQRBzYp5IRZaDhoCAqmJDQJcuXWzRokVlV6hXtpdeesldjf/3v/99hzHib7/9djc8zrhx41wFbRAaV//oo4+23/3ud+5EK9b69evtb3/7m2/DgnpAfPXVV254mnPOOSey9Ed63/s1BMQTr0Jaz09X6s+cOTOyxNxtTdZ7wQUXlA3D40dD43gNAXouHjUq/Oc//9lp+XHHHee+nLy8VD69p3v16uXue9599107/fTTfSvXE72mEi///fff31XmK19Rbws9H80REE1zE1x33XVuImK9H0SvxYMPPmht2rRx9z033HCDm8tBDUj/+Mc/Ikt/lGxDgOi5qqwV3dsgU1REQ4B6seg9E30s8Q5A0ccS7/+2bdtcrLzGgiD0HlJjmY5ZQSSThw642l7HwSBSkYfm4dA+KntQ6VgOYk7MgyDmxDwRYk7MgyDmxDyRys7jySefdL9Bde6rHsgHHXSQNWzYMLI2PmKeuTEXPufEPAhiTswTqchy0BAQUFVrCNi6dat7D4Sp8K4IOinSVeGDBw92lcGqyNUV6Jdccokbfz9a7969bdasWe4q95YtW0aWbuc1Kvzvf/+zW265JbL0R99//72rSG7VqpW7qvzkk092y70Kdk2Gq0pxj56HRxXMel3+/Oc/R5Zsvxo/nngV0oMGDXKT5Opx1PNAY/Urf1Vujxo1yr0W8cRrCFB30wMPPNAt01X4hx9+eNmV8zr51H+ZNGmSHXnkkS5vvY4ad1/76raGONLrGvt+T/Saipe/hhdSHNUFVg0Deq7R+asnhHp4qIK/X79+7gtTr5F6oeg76P3333c9JkRx0iTFv/zlL+28886z2rVruzLpMfWFO3nyZGvXrp3bNjpOWq/70e/f8uIUbVcaEbJBRTQE6H2k+SK844mOI94xxe94om7Ser0V36D0Httzzz0tLy8vsqR8ykOt6GHyUI8UbR/0AJ2KPFauXOn2UdmDSsdyJJMHMSfmiRBzYh4EMSfmiRBzYh5EmDzUo1q/W/U7W/Uubdu2tZ49e9ohhxwS2cIfMc/cmAufc2IeBDEn5olUaDnUECDTp08vmT9/fsny5ctL1q5dW7Jhw4aSzZs3lxQWFpaUZlhSesAq2bZtW0lpxmWpKpk1a1bkVtWwbNky1YCWnH/++ZElqfH222+XHH744S7vE044wf3v06dPZO2OLrroopK6deuWLFmyJLLkR/3793f7Pv/885El/n7961+X1K9fv6RVq1Zue6Vrr7225Pvvv49ssd2f//znsvWxSevK45XDj/LSujp16rj/7dq1Kxk1alRkbXze8xk9enRkyY+0rnXr1m793nvv7R77b3/7W2Ttj5TPfvvt57Y78MAD3f+zzz67ZN68eZEtdhT0NY1+rZS3Xl+//J955pmSfffd122n56n/V155ZckPP/wQ2eJHAwYMcNvWqlWrbNsePXqUvP7665EtttPr4eUdmxSHoPS+1z6rVq2KLKlavp/5w04pDH1fjh8/vmTOnDnuu0THlPz8/HKPKRs3biwpKCiIPEIwH330UcmaNWsi9xIrPRCGzkPPXc83qFTkoc/IF198EbkXTDqWI5k8iHlwxDw4Yh4cMQ+OmAdHzIMj5sGl22s1ceLEkm7dupXk5uaW7LHHHu73Wr9+/UrGjRsX2cIfMQ8uHV8rPufEPAhiHhwxDy5eHsGaHlDleMMBhenaUhE0LI2uVh8+fLgdf/zx7qri559/PrJ2R9qm9IOwU28AUVdLXQnuTWAbz7/+9S83/JGuWn/qqafcuPSaF0FD2UTTFfilnxffpHXl0fPQdn6Ul8qr/FWeefPm2dlnnx1ZG5/3fPyucNc6PabKo3H558+fb3/4wx8ia3+kfDRUkIZw0ZX+ep7qieBdXR8r6Guq/DU23MMPP+x6Aej19cv/sssuc1eOv/POO3brrbe6q/71nP3mELj22mvdthquydtWQxfFDt2k1yM6NtFJzz0o732fqmGxAAAAAGQv9fY+6aSTXE8A9ZjVMA8ahlS9uDVsKgAAqUBDAHytWbPG/U91Q4BHY8erQllD1iRDFcJeSkRD8vTt29euvPLKcieyrSwavufGG2/cabz8XaEhj1QePW7z5s0jS/1pLHy91oleqzCvqeY5UN56XfX6lue0006z2267LWG3WAmz7a7w3vexE1cDAAAAQDJat25tnTp1cnOgaU4yXaykRgA1BlTk3GRVaQhnAEA4NASkCV3trKvDwyTtU1m8K6GbNm3q/gNVife+p0cAAAAAgIrSoEEDN9+a5sDzLpgaP368awx4++233f1doUaAMJNJAgCqFhoC0ogq9sOkyrS7ewQAuxNDAwEAAACoDPvss4/ddNNNrgd3o0aN3DINfarGAA2Fuis0KWSNGjXsxRdftPvuu89NYhlLw+/efffdNnnyZHc/6GSVAIDMxzd+Gmnfvn2oVJl21xwBQDqgISBz0PU5GP0gBDIVn3MAQDrKycmJ3ApPwwRdf/31LjVr1swt+/rrr13l/UsvveTuJ0OV+jpufvXVV/bnP//ZzR0Xrbi42M1Np3y83zqp6EGg51UVeyrUq1evLL5Vjd7jtWvXjtyrWqpq45rmk9QcKFVNXl5eRtWd0hCQJlSxf91114VKldkYQEMAqjLvfc8cAemtTp06oU4us6UyXD/uEs29EUuvFZWpyET6IbUrFS3ITHxfVT3EHJlI56G7UuGn4UivueYau/XWW61ly5Zu2ffff+8q6Z9//nk3oXBY+izpOWluNVW8v/fee7Z169bI2u09/zUE0YEHHmiHHXaYW5aKz1+LFi3c+WhVox4fqhytivbaa68qGXN97qrqENuac7Oqfs697/BMQEMAfDFGOqoy733PHBnprU2bNu6KgxUrVrjuzxs3boys+ZGWaZ22UUNANlydoSsO9GNKNLGcupLHmjt3rj3yyCNlaeHChVlRdv1Q9SqFi4qK7NVXXy0ro25rWbaKvopO7+dBgwaVld3vPZAtdGKtz3nsezo6VeQEi+kkuvFS32XPPvts1pfZ473fY9/rSrqv5VWJPuPZ/B0X/d0uen978c727/boChPFOfq9ns3f7fGozOn+/Rb9/hw2bJht3rw5siY5devWtZ/97Gd2++23W9u2bd0yHfM0TJC+9/3Ob8ujK/7loIMOskMOOcQ93+jhgTQs0PTp0+2MM86wxo0bu2XJNDiEpbJt2bKl7Ly8KlDs1KDz+OOPu/dLMvHMVIrxkCFD7NFHH3Vl13u6qtBvNfUC8c7dqkrZ9V3z5JNP2mOPPVb2HZnu3+cVRd+rTzzxhCtzJpyn0hCQJjTmv9+EwOWlypwngKFRUJXRIyYz6Ooa9drQQffpp5+2DRs2RNZsp5MvnYDq+3LZsmVlV0hluoYNG7ofjTqxevDBB3fq8q0TD70muqJMP7j0X/f9xojNNDqxVqWw1wigrvOKs8o5ceLErK4wUszFe19PmDDBlXvRokXuB2a2/sjQpIqqEFfFhsobnfTe1g/MJUuWRLbOrquKvZjrMz1w4MCymK9du9YGDx6ctZWEiqHXEDBnzhx76qmnXJm9uOsz7lV0VQWKvz7j+r7L1u8377tddGx7+eWXy77b33nnnaytSNB7PXp8+Geeeabsva7/up/NjQGx39cqa//+/e3dd9+NLEk/eo76/vXipPfnK6+8ssufTX3nXX755a4xQFfUii7iuP/+++25554L9Ztc349Kem/16NHDZs6caVOmTClbpx4COq6qx4B3XpyKhgCJPi/PdrHna0q6rWVal8283yJ676ncOlfV91m6V45WFJ2/qXH7/ffft//973/uXCbb6TtQx25NfO6935VS9d2yO+kcJfr4nQmfcxoC0kj0RMBBUmWiIQBVGQ0BmUHjqD700EPu4FtYWBhZup0qRR9++GF31VH0lVrZUEmo7t1Dhw51FUM6sY6lk05VkN5yyy122223uf+6r+WZTo0g+vG6fPly9xocffTRrju9ynn22Wfba6+9lpUV4nrfqqJMfvjhB3vzzTetX79+ZfHVD/uRI0dmZSWhTqJVvn333deV10vXXnut+47We+DUU0+NbJ09FHONKyz67L711lvWt29fV3a951XBox9c2RhzVYh539WqCGvevLndeOONZbHXeNpVZZgFxVefbX2HZzO911Uhqc+7rp7t0qVL2Xe7PuNeo2+20fFM3+1eBYoqTLxy67/uZ+vnXLxeTyqfGvJ1XqNx7dOV3oOq7NHxyIvTBRdc4M41K+rc45JLLrFf/epXtv/++7v7qjBXhaquMF28eLFblkhJSYk7bup7VMdHvcfUYKHzRw0LpIaWI4880vUY8GifyqTXR1fKxp6XZzOdr6m8F154YdnxS7e1TOuymSahVqOZztVUbu+3iDc5dbZTw/a8efNsxIgRVeb9ru9HfUep8dF7vyupwTGbeRdr6Deqd1zQbzT9Vkvnz3mNu0rphq4U1BtWJ986KCvphEwHkNjkib6d7XTQrMxKQT2+WpCUR9CkkxD9rwyqCNXVZxo3MNU/sP/yl7/Yv/71L7v00ktdt0WdHOoHQVh6a//jH/+wm266yV01qx8RP//5zyNrt/v000/t5ptvtl/+8pf2z3/+01Ui6WQp+sQolp7fn/70J9eF048qJH/729+6LwI9tn7AqdvvoYceGtnCn8Zq1Gv+ySef2AknnBBZ6k8TP3300UfuM+hdNeLRycXf/vY3+8Mf/uDSG2+84eJ5zDHHRLbYTq+PHiM2jRkzxv33ew5BXtNoqrzQldp6zOjHi5d3dBKvbHof/P73v3fl0WvrV6Ygj6mU6LUVvQ+894bXRbcqWb16beTWj5o22X7FWhD6PsvPz3fjpno/8vSDRD8y9KNWt/U/Oqn1XD9QdNyJXRedxKss0A8KPWbHjh3dgVYn17oCQ98Z+qG2YMEC69q1qzsRO/PMM91wOlrnl3+8tGnTJvc58557ohS0HNEpSB7eDzolXWnxwgsvWPfu3V2PiA4dOtjhhx/uXhuVTycjek10Iibq9q2Y6Ip57+ovbafn6ZeXUmWVIzolk4f20RXiM2bMcCdYunLOG8JL4zJ++OGH7j3QuXNn95rp5FtlTbdyhM1j/fr1lpub645PagAbO3asqwxVWVWBtnTpUve+OOuss9x5nMqcjuVIJg9dRaX3sFc5rCQ6ZqpyXMcjvd8Vb5Vbx+B0LEfYPNTDyasc1Wda53yqINJ3qs7XVTmuc4sDDjjAvR7ZFHP9JmnVqpUr66hRo9yyc889t+x44tFylTtdyxE2j3Xr1rnvLMVW+Yiu3NU5lMZZ1nvinHPOKfuM6/lkS8x1Tqfvcu2nz7C+y/RdL3ocnUvr/E0NYNpGr1M6liNsHoqpvtsVU/0OPP7448vOffU5V0OYKsb1eujqUj0fnf9kQ8xVNp1jq1z6ntdQEjpnU/wVe/3+9L7X9di7sxx6DC3TxRf6raa5+vbZZx8Xpz333NNVrOs45Z176HGi949OulJUj6PPst96JX2vay4ovS46z1M5dN6j/3rNdGzw289Leg1VZr2v9DiqfFU6//zz7bvvvnO/4XQO8dOf/tRtp+dbGTHXY2m9tot3Xq51irHf/rsz5uWlRHmIHq+goKDsvaz3ufbReZx+P6uORe+h6Pd49GOkQzliU5A8vLLr+6xTp06uwUn0ntV5qn4f6vd7vHJnasyVVCZto6TzGDXeqXJYleMnnniii7fyjfd+z9SY6/G0Xr9F1PDRq1evnepPlJ8eRyl2/0yNuejx9LtM5f7Nb35TVm4NC6Vz1v3226/svMWv7LuzHPQISBPpNlnw7pojQF0FVaGrivjRo0e7Eyq1qGmMxDBuuOEGV2F/yimnuCuL1K1SlYTRVCl87LHHupMQPb5OinSw0onRf//738hW2+nLWydlOpjr+cWjEy9duaTKb8VIZbjyyivtqquucgeD8niNEYmoe6i62d19992RJT9SI0Dv3r3dB10NEeqSpLEh9cUU+7z1w9Iv6XXxE+Q1jaVKez2eHjea7uuxykseNQKoTPqxpCsC1R1XFZ8qk55TNL/HiU5Bee975ghInt6DOiHSgcb7X17SNkGSHtdLBx98sHufq0I8ln6Y6eoTXSUeTY/hl3+85OXrt84vhd1eydsnUVKZRZV/aihVI5xXUSJa712NoROPaLqyTMu1Xtvp8fyei5e8PP3WxUth94m3vbfcL6nCxKOTGu/ExnttdN/rMeeVUyk2j/JS2H0qKg9vmV+KblTz5ofQj3lRTPU92a5dO/dDM7rcStF5lJfCbq9UUXl4y/2SfjxG31f5dPWNxlzVj8kjjjjCvQ5aV14e5aWw+1RUHt4yv6T3uuLufaY1qaMaPrwxV9U4pGNwNsZcx179yNGPZVUYqfy6Ilbl1tizir/K7CVvv9g8ykth96moPLxlfknf7ao08MqlK2h1zqdKJJ33eLwyx8ujvBR2e6WKysNb7pf0/aZt1LipBi+vx4feA59//rmrZNVnIjreSrF5lJfC7lNReXjL/JI+v9pG//V59r7PVE6Vff78+e47MBs/54qpPuei+KuxT+f1mv/JsyvvdaWw+8TbXsv0XHR1vv57x2HRe7Z169Y7nXvEPoaXvMfyWxed9Hrot6EuhtP2aijUcU89YXXM99vHS8pDlUXaT++fnj17ugtmdIW2LtLSd40a1nTOpG2jk9/j+aUg22u9noP4nZcHea0S5RGbwu5TWXmobGrA14WDqvzX9qIeraov0PtG4j1OkDyiU9jtlSojD61X2fVddvrpp7syio5nSvqsiLaJt3+Y56QUdp/KykPrRd/dGi5MjQEXXXSR+7yJyhyv3Ephn1fY7ZUqIw+vXPp+1PdU9LmqLtBKVPawz0kp7D6VkYdXJq/nqr5zvXLrgj019uo7QNvEe5ywzyvs9krx9qlW+sTct7NamXWg0BtVVyDohEMHZR0gdJD2fnAreaJvZzsd3Cuz4j3deFfm6MoBtVqngq7u09UB9957r/3ud7+LLDV30qDxIj/77DP7yU9+Elkanyq8Vek7fPhw9+Ubz3HHHWezZs1yPzCir6rXVTf6AtNroJNUeeCBB1xlo/LX+15XUMRWbouulteV67qqP/pqdTUKqDucGgb8qMxqRVVjhK72L6+xQVeF/f3vf3cVgXo87wp3tRDqgKsfSrpS1qODripM9f6NHmdUjRsS7zlFC/qaRtN4ePoBq5jqtQqSj6iyX1dQ6MoR8XpeaIzgaGpVV9n0I0knl+XR1Ts6cVa32CDDCaibr7pi6yqcyup1k85mztq5e/P+++3Y86Q8+r7UyY8Oijr59SoxdVzR58fvmOJ1m9T711sWj7dehy/d1kmGPhOasE15RlMrvRoL9H5URZo+J3oeQemERifruqoqCJVDB1fvBD8IVejp+OtV9JZH5dXBXK+hKgjVcKnvsmuuucatVwWZhg9R75mTTjrJ9zXSVQqRQ39cyZSjIl+reO8BnVx7V0n+4he/cD8o1diqmKqBVK+HfnyoUVVl9K4a3V3liCdeHvHKrR+NirnKrkZRNTbr+KUGHr0PdIWVeoCo7Cq30u4sRzzJxFxl0/eCd06qpPMFfabVaK9Geq/MsrvLEU/YmOu9rm11HNJn2rt6UO8FvQfUEKT3vvc5z6aY6+olxVzfjSqjPsMnn3yyW6f5IHR1lRpC9X2vcmv7bIi5Yiv6LabP9X/+8x9Xdl34oPMp9QTSVdNehbhkS8z1Odf23vmB6Lg1bdo0d+6mxgGd93rv9d1djnh2JeYelU/b63tOF0hp3HhdYemVPdtiHnvuo4uIxDuOK8nuLIfKoBTvfDPec/aj3yPqFeD9zklEvYJ08dWXX37p7uucWpP86nxHV9f7UTl0rqhy6Hnr/EgXcum3n86LdeGAGhV0ju4938p6X3mvnSf6vFwX/pX3eu3OmJcnSB7R5dbj67aO5yq3GgPuuece95s0XvnTpRzRkom5fpe8/vrrrvFKDft6/5dX7myIuT7fKqcaNnVhVuzvMr9yS6bG3Cu36gxVZ6TfI14vfNXVqF6lvLJnasy9cutCFV0kq3KqnkH0ftc5u85Vy/vdvTvLQY8A+PIqP1PZI0CVxboSKroRQHTyLzqIJKIfiPowamyuRBXWOqHSiVTs0Dq6+lyiJ3XRFRnRjRD6oeJHXZdFFe/RtK+ujPeb7EwNBDo46Msjkf/7v/9zw1+ol0QsVRDpanl9EUVT+XTCpwrzZIR5TT060dHwSX7Pszyq7FeDz3333RdZsn0YJKVYXgOI9yMqHjV+KH56zKBjCnvv+6rYCFBRvIOjPitBkn4I6seNbnv7xksenWCEpf1j897dyWsoiS2nXxL9uIt3QhHL2yealvk9j3RK0WWOTvqeE32W+/Tp4yrGNFmsko4h+lHr0fZ+j53OKba8XvIu0hDvamgdC/T9p/eDGq111bQ+E9re77HTPcWW2Uvq9aKGHm8blVHHCVWM60ob0fLYx8uUFF3W6KR4a71Hy3Rxhjfmqn5gqJJQ7weti33cTEjR5Y1O+hzrv3606AelGv28cquH5ccff1w254m283vsdE7RZY1O+px7FcI6X9T54RVXXLHTDz5t6/e4mZBiy+wlfc6946BHn3V9vx111FGu8VcVClrv97jpnqLLGp2iY+7RclU465xYFyF54ytrud9jp3uKLm908mJeHm3n95ipTnoeQSV6zl75/db5JV3kpaFK9TnQfjrua4hUVShruB+/fZS8fEQXTOl3k/b79ttvXW8D73wpzHNJJnnPQfzOXSs7/92Vosut2/ptrNEB1IivcfO936TZWP7osus7XO9Z9fTROZuGB8rkc9XyksqkczI1FKrux+vhFS2b462LVXVBpxr6sulcNV7yyi16n6u+zSu3LmT1zlXTtdz0CAioqvUIEA1xo9YsjfGWCrpKQQdJv0miNMaceijoSvvyeFeu68oHtUTqan8lVe5rmKFo+oB+8cUXO1wlL1quSvt4k3vofa+TKb8r3PUcdYWITrKi6ceLvgjVpV2PH00/7EVXoOux4/UI0GPqddDV7WrA0Bhk0T0C4lEMdSW0WqN1RZknaI+AMK+pRyc4OtFRxZz2D9IjQHHQc9IVnroCsDx6PTUmtFqXo3s/+NF4q7piRr0tgtLVdnr/+zXcVAULFy61TZt/nNgot/S40LZty8i9xPR9qc+yPguqwAjSI0AnhVqvKzvVnVKt1/Gol4kauHTFpH7IhOkRoHy8CtUgUtFS75Vdn4Fx48ZFlu5MJ9Equ/e66cQ6tkeAvq/1+bnssst2aFzUa6TPgK4k19W0iezOqzO8q4fiNfLp/aTKQZVDkwtqzFnR1fHqzaUfvF6Dsh4jk3oEKE7ekD9+VEa9p/W97l1NpvePjgsao1gTZHvdrndnOeLZ1Zjr860GD80LoPe8evDF2p3lKE+yMVeDj+LqXU3m0Y9pTSipK8S9eY2yNebR9H7Xd7rGvfaGU8y2z7l+b+hqXfWI8IZWmDRpkjv30bmXzhu916UqxFzDDagxSK+FNy9VtsVcPZu8z7e2VcWJzrF1jI+9iCXbYx59dX203VkOj753dVGWjrnRF5LpOatBPvZiNj/q5a4rhjV8a1Aqh36zasgJXQChSiedS6uHuhoJonuhi185dLWuetXot5wqp7zJiD2peF/peev8JbpHQHnSIeZ+wuahz4EaAdRwo++w6CFz4knHciSTRzQd1/Q+jD5XjZXpMVcPtj/+8Y+ux7K+u9WDc/jw4a4+Qr/hos/jYmVLzPU5F31H+Z2rxsr0mOuCWa/HptfA6neu6md3loMeAYhLV6HojaMrklJBB8l4Y7Lrh7CGGklEQyXowKITLF0tqKF6VImtCkBdMRpNV7erwlIfWn2oRGPsqxFAV2BVJO9kUV3iog0dOtT1ItAVbonoCnuN8Xj11Vfv9DjxqCJbDQ9q5It3Nb8mrNIJrCoN/RogwrymotZPfSFqEs8w1PVdczQkagRQmXQlsCpOvcrPeHTgUaWZhpcKSuXU+6G8A3W2a9Giqav8F/3X/cqmNmmdOOi/Xv/ykneCoQNhNvDKof9+5fWS192wvHLrQK/Pq77boqmHk5aHOXHYXRRfVRr4vQZKWqfhw/R9ratt1ONHSd9PqiSO7ZGVSXTi6FdmL6nxa8qUKe670qsc0nehGoNUaZjKXnwVKUjMvc+9Gn5UVjWMZ4NEMVfDpSbO1YTfsVSJlgmfaT9BYq4KYJ0n6fwwmhpCvaEbxWtQzhSJYq71ushDFQfRy7zXzPssZJpkY67vOl1JqgtSMlWQmIsaAdRg781ZFtsIkGmCxDyT3s+qRNd5qt6nHh2X1Xs6dm6miqbK/jvuuMMN8aOLa/S66UIrzXMXb363aJoXT40YGsI20ZCqqDheI4DOw4M2AmQDfZcpRdO8hZl8rhqE6rI0moVGuYj+jtNvOO97PltFxzxyrbmTyeeqQehCPS++0eWOPVdNO6VP1pk+fXrJ/PnzS5YvX16ydu3akg0bNpSUvnlLSt+8JaWFKtm6dWvJtm3bSkrfyGWpKpk1a1bkVtUxbNgwvZNLnnvuuciSytW8efOS0h8+kXs70vJmzZpF7sV38MEHl/To0aPkwAMPLPnmm2/cskmTJrn7Ksv777/vlnlKD84lpQfkktIv7ZLSH9olZ555Zsmnn34aWetPjxPveXbr1s2tLz3IRZZsN3z4cLe8X79+kSUlJaUnjiUHHHBAyTXXXBNZsv2x//znP0fu/WjEiBFu3eeff+7ujx492t3Xfz96jEaNGrlt2rdv716DWCqDksqu51V6cHbbX3XVVZEttgv7mur1jC6Tnku818vz/PPPu8d67bXXIkt2FqRM0WbPnl2Sm5tbctddd0WWBHP//fe7PEpPqiNLEJa+L8ePH19SetJbUvpjyR1T8vPzyz2m6POg9WGsXLnS/f/ggw9KTj75ZHf8ijVt2rSSk046yf1XPso/DD13Pd+gNm3aVFJQUBC5F4y+L/RaBOU9Jx2nL7vsspLHH388sma7IUOGlPTu3bvkhx9+cPf1X/e1PKhkypGK18p7fO136aWXljzwwAMlpSdfLul10HfZ0qVL3TaSruUIm4c+L3r/qpz33XdfyQ033FD2fvfK3rNnz5IFCxa4ZZKO5UgmD30vRJ9z6niosq5ZsyayZEfZEnNt630v6LN72223lcVcn/27777bfQain0e2xNx7fL2fFevo81AdW3r16rXDMVrvkWyLeSx9xvV9r9hHy9aYq7z6bhO/Y1i2xNz7bpcpU6a4GPfv37/cfLMl5oqh3/v9N7/5jUux0qEcWnfzzTe771/vs6jfLnrPfvvtt+5+Ig8++KD77g4juhxffPGF+5215557luyxxx4unXXWWSXvvPOOWy/pGnPFO/q8PJF0LUfQPPQe0e9KxWvixImRpcGkUzk8YfJ47LHH3OfC+y0S7zw9VqbHPJbO2/QbVb9VE8mGmOtYHXuuqu/M8h4j02Ou9/PVV1+9Qz2WzlVVr/jGG29ElvjbneWgRwDiUquteJMTVbbYK75iBekRoGGF1AW19MBTNmzN4YcfbqUHHnc7emgc0STA6sKlqyl1pYWGldAs32q9TYZ3FXns8Ebqgqmr8ks/iJEl24fcUTfhIN1INWGcrrBXL42g1B1J3UXVxVyTEZeecEfW/EhXkJR+abmuehqWRMMSafgi7/WSMK+prnjQ6xldpiBzE+g117hy6h5cHpVJV/erTLoqRt3k49Fjln5ZuitnwlD3ew0NpLE4kVqlPxAit4Ip/fEcuZXZVI7S43HkXmKlB/PILX+nnnqq+zypC7l6POm/7mt5ptNVd3q9dGWJegbp6niVUUnfYer2nulXUPrRsaP0hNpd/a9JI3U88eLrlV1zsmRj2dUDrvQHZOTe9qHHMqV3y65Qj0wl0WdXsdUxVvFWbzydPyjm2fg6lP6ocp9zlVlD4WhYSO+9rnmQdK4VPfZumO/PdKZ4R19pXJXExtzrZq+k973OP6OPYdkSc11NrnLrv4aK0TCg+g2i2175dZ6t9dlG3+1+v03Smb5vNfSivn/1Paz4jBgxwh2XvTlrKpuGO9VvQuWp3yuiIWc0F5rmAED60LmZhi3V7xv9vvQ+00oa6imb6fe3xkyPPVfN1vP0WPqtli3HqaAU8+jfn/qOXL58ufvOzOZzdr2fL7zwwh3OVdWzT3VJqjNLVzQEIC6Nwa5x6L/55pvIkvKpQtl78wdN06ZNi+xt7od9eYIcNLwxJmOHwTn66KNdxYnGKfNoIg9VZuvArOF5NMyETkpVOa7u2MnwJja+7rrrbNSoUa7r27/+9S9XmV5QUOBO3uTTTz91y9U9M9GJoxorNCb/3XffHVmSmBoZlDQmuCrmVSGucSSjqdJf4/brtfHoeeukUj9APEFfU5Xv/vvv36lMiYYxUkWeXv9ElZRemTSmpMqkMdg070K8uRzUENClS5edxs1MRCcpqmSInbwNlS/sCZN+LGsfnXTos+eNyxdN71+t897H6XpSFuZ56QeFTjBVKazGM6/R1qPvSn2WNaSaKg/0X/ez4cRbE0Z6DSHqXq3y676SJr/T/CnZKD8/3827IWoIVTw17qTi65Vd39F6T2QbNf5ENwRo6CeVNxvLGk0x1w8o0WdXw/xpck3FXN2N9WM6W9/vGv7J+47T+/qEE05w5VbSGLN6LbLxR2V0zGPpe17fd9n6vo+NuffdrphraKxsGCbHj/cdrnMAvbcvvvhi9/n23u9KqixP13OXXRH73e7RfGHePGbpSMM26fvXi5N+M6oSKJWfTf1G1+9YvV/0W0z0m1q/LTXPlhqX0pHe67Hn5dlMQ/spRhpON/ozraTXIpvpXFUX8Hm/RVTebD5Pj6V6EZVZv031ftdv1WwX+/tE35GXX365+87Mdnpf67jlfb51PE/38xYmCw5IV6DpzV3V6GoDtVjHq2yNpslfgo5d79GV+N6Xg67u0heH36Sy+mCpUj1R7wR96NRw4XfCrMdQJb+3TpXImgtAlcvRdBKlMfN1QuU3qYne9/pRGm/yWzUoaLx7Xa2uccF0suh9CT711FNuDHxdXa+GE1XGR9PY+94y5aPbGsdR8wLEit5Wz0cpHpVb5deVIn6TK0ZTmfVD1PsxGvQ11esY/Zw8Gr9SvMaV2Ndbr7Ve8/feey/U1ftemTQfgTd5nEdX5+iHpMbC/Otf/xpZmpje52rEUDk0JwOSo+/LsJMF64eud6V3UGq00fsz6I8vTSyoH51+DQbxxJtgJx6VQxX1YcoRNg9VmGhbVY4Epdc2+vVOJBXlSCYPfZ9oLgAdK4JI13KEzUPHE/2o8DsmxZOO5Ug25qoE1XirQWRTzLWPdwFBENkU86r6OSfmVSvmOp7rHEaVZUFlU8z1XtfE/0GkaznCSnayYL9yaF4k9ZjRvBper3P9jrnxxhvdZKVhxqdOxWuleel04V+mn4uGzSMZ6ViOZPJQHUHQeEu2xFwXLun3b5gGL2Ke2TEPW27ZneWgRwDKpRM0/TBRJW0immxWXRXDpOgWQl29rbxiqQFAlb7esDTlKe/LVpPGepXlejy/vKRbt27uvyqTk6EKaFUoq6FAz11X5at3gOiKANFEOXouOgmOTuLd1nMUTT4VvY2XJPp2EOo2mogqaaMFfU3Fr0xeObz7sTSpjHohhB3Cx6OT31jqcSGJhhqK5T1XhgXKDPochRnGSwdOvwatTKNy+E0cWh69Tul6hVhYKn9VVFXLLdnwuUU4Vfn9XlVVxZirzNk8cWZVoIqZ3XV+pUr1m266ya655ho3SaloUlr1JteFaboyNZ2oF4her6pGFXHxentlOw0RXBVjrovPvJ68VU1VjXmmfc5pCEC5dCW6KoI1hnxlU+WrKuc1Lmg0r0Je3S4T0Xi54lUEe77//ns3x4A3pmx5w/HoKg3xKu2T5VWQqwJO4wPqSnyv4UONBH5JdOV89P3o9V7yrq7X1fe67+Wlkz4/XmW5xtQW/eiYPn26ux1LX94HHHBA5F7w11RX+sc+TyVP7H2PYl5ePGJ7EHi8Snu/K+e8Rh4NbRWGxh5W1y4NOYLMoBOtoLKpMjFsl2L1hKAyFQCA9JLtQ4Rku919oUWTJk3ccBw33HBD2TAUuvL+oYcesmeeeSatGpo011GYC3iyhS7eUSNIVaTf5FWxUliq4ntdqmrM1Ssrkz7nNASgXBqW5qqrrnINAbr6uzKpIUBDdmhi22gax79Dhw5lE/F6NFa8kiYY85x88snu/x//+Ef336OJtvbee2931YRo8hqNHf/www+7CZY8qgRXpbmusDjzzDMjS8OJnRxX5VGluXoKVCbNI6BhiPwaAz744ANXJq0XTYqsydhiGwNU6a7WTJ1QeoK+psnQlVBqTCivIUBjXWqonljehMx+PQl0AFL38jBdrT/++GN79913fYdhQniqdNYPI1XUB0l6Lyj5rYuXJMw+yeQRdp9U5KHXVa+v37p4KWweYbdXSkUexNx/vV8Km0fY7ZVSkQcx91/vl8LmEXZ7pVTkQcz91/ulsHmE3V4pFXkQc//1filsHmG3V0pFHsTcf71fSpSHhnbW0LNqDPDm3NPE42oM0NBBGqYkenvNRzJz5swdloUtR9jtlaSy8wi7Tyry4HOe+eUIuw8xz/xyhN0n02LOHAEBVdU5AkQnChq3UxW+//jHPyJLK8d///tf++Uvf+nGA9Y4+q+++qp9++23ruI6eggaUUX2iy++6Freoit8tUzrdEW/ehGoslvLhg8fvlNlvDf+/Xnnnefe89pOdPV79CS63vj3fnRVvnfVuq4o79u3r6sg1/wDXt6aPV0nZ4noMxX9ePF4z0dX2Ee/LrpKXhXZ+izrSnl9lnUCKLFl0rj6em4/+clPrHv37m7S3tdff93N7K4rSKKFeU1jqUx6jn69AdRooslz1PCgyaP9KL56rrNmzXIzr6uCX41DEu+10piYauxJNKdENL2/VS6/54lw9H2pBjpdpaQx6TRGoo4j5c0RoKsmdDjSMFFBqfeOJkzTBJpBeFdthclDP5a0fdCx+1KRh37Qabx4lT2odCxHMnkQc2KeCDEn5kEQc2KeCDEn5kGEzUO/dyZNmmQDBw6MLEksaB6q3HnhhRfs0Ucfde8tnWPr9dVvOF0Mpt9c6oHy/vvvuwv89Jvbe0xiXnl58Dkn5kEQc2KeSEWWg4aAgKpyQ4DcdtttbogeVax6YxBWFl2hr6vyNRGoKqg1DI7fDPNepb0mHI698ltXdns9C3S1ufaPV2GtimRNDKwPlXoe/OEPf9hpUkJvGJp4oivjV6xY4Z6bUnnP34+XT2yjR6zo5xO7rU7stF6TPKtrqOYYUCOE3xwLTz/9tHuddXW9Xic9V01s7CfMaxqtvDKpF8M777zjbpfX+KGTVjVO6MCixgOVSQ0t3rBEsbzHKu8xo2myLc1RoYYoNYRg1+j7UmPk6btCDQE6piSaLNg7sIWZyFfvHzVOhTnRUIt4mDw0D4G2D3OAruw8NLmg9gkzfFk6liOZPIg5MU+EmBPzIIg5MU+EmBPzIMLmoYvDJk6caE899VRkSWJh81CvbTU4aM460bm4LrBTL3/95tGQteqRfeutt5YNN0vMKy8PPufEPAhiTswTqchy0BAQUFVvCFBFuXoF/Pvf/3YnDUA2uf/++13DjQ5c2HX6vtQESZpfxOsRkKghQGMJqiFA2welyafV86VRo0aRJeVTHjp4hsljd87mH4+GvtI+fvNjxJOO5UgmD2JOzBMh5sQ8CGJOzBMh5sQ8iLB59O/f313YNGTIkMiSxJIpx0svvWRPPPGE61kvOhc/55xzbNOmTa4RQDSX2u9//3s3FDAxr7w8+JwT8yCIOTFPpCLLwRwBCERXS2vIGV29oCvegWyhK2MGDx7srpIBAAAAgEymYW819I9+w4uuJNWQuxoKVrdFQ1lomFcAQNVCQwACu++++1zL3u9+97vIEiDz6SS5W7duds0110SWAAAAAEDm0nBAt99+u+vVrx64mkNAF/Rp/jVdWSq6elc9FAAAVQcNAQhMk7QOGDDAPv74Yze+IZDpNNmwxrLXpFoAAAAAkC06depke++9t5u3S0NzalgJNQZoHjkNEySaU2DZsmXuNgAg+9EQgFAOOOAAe/zxx+2OO+6w8ePHR5YCmUcnvYMGDXKNAEHHZQMAAACAdKfK/RdeeMENAdS6dWtr1qyZm7NLU0RqLi81BmzYsMHmzJljr7/+emQvAEC2oyEAoZ144olu8qFevXq5LoZAptH4mDfffLPr4dKxY8fIUgAAAADIbBr656uvvrKJEye6+3Xq1HGNAS1atLCcnBy3bPXq1W6utIKCAjdE0JdffumWAwCyGw0BSEq/fv3c2OqnnnpqZAmQGTZu3Gh/+tOf3LBAZ599dmQpAAAAAGS+4uJiNxyQfqvvu+++blmtWrWsZcuWrjFAt2XNmjWuMUD/hw0bZitXrnTLAQDZi4YAJO3Xv/61jR49OnIPyAx5eXk2atQou+WWWyJLAAAAACA76PeOJgnu06ePXXzxxXb88cdb27ZtXW+APfbYw6XatWu7bdeuXWtLly51vQf0GwkAkN1oCAAAAAAAAMgijRo1su7du9ull17qGgV+8pOfWJs2bVxDQKtWrdyQQbJ+/Xo3Z8Dw4cPtm2++ccsAANmJhgAAAAAAAIAspIp/9QpQg8BFF11kRx55pHXo0MHNG5Cbm+u20VwB3333nT3yyCNu/gAAQHaqVqJp40vNmDHD6tWr51qFNWacuo1pVvlq1apZ9erV3X8veaJvZ7vZs2db+/btI/cAAPHo+3LZsmXWrFkz1zVZxxQdT3RciXdMKSwsNB2OvB8jQYwbN846d+5sDRo0iCwpn/LQmKlh8sjPz3dl0PMPIhV5LFy40F25pbIHlY7lSCYPYk7MEyHmxDwIYk7MEyHmxDyIsHk8+uijbgieJ598MrIkscoox6xZs9yV/5MnT7YpU6bYzJkz3QTDorx+8Ytf2LXXXls2sXAsYh48Dz7nxDwIYk7ME6nIctS4q5RuaGIYVdbUrFnTbaQUW1kTXWkj0beznSbQadKkSeQeACAefV/qqiI1LHvHFNExI9L27P5Hp61bt7oDm7aNXRcvaXIzTYSmHyl+62OT8ti2bVuoPHTA9Z6/3/rYlIo8dJKhfVR2v/V+KR3LkUwexJyYJ0rEnJgHScScmCdKxJyYB0lh81AjgMreo0cP3/V+qTLK0bhxYzeJsHoEaPJgnYOrPkiNAUVFRTZ9+nR3Qc/ee+/t+zjEPHgefM6JeZBEzIl5olSR5aBHQED0CACAYPR9qR8TzZs3dy3QmoxMxxMdV+IdU/TDQz9C6tat6+4HMXbsWOvSpYsb/zQI5aGDZ5g81q1b57ZXg0YQqchj3rx5bp+DDz44siSxdCxHMnkQc2KeCDEn5kEQc2KeCDEn5kGEzeOhhx6yCRMm2DPPPBNZklhll2PDhg2uV8DHH39sb731ls2ZM8ct32uvvey3v/2tnXzyyVa/fn23zEPMg+fB55yYB0HMiXkiFVkO5ggAAFQ4r5Jflf6VlcRvebanVLy26ZqIuf/6bE7E3H99Nidi7r8+mxMx91+fzYmY+6/fHUmV/Icccohdf/319stf/tJNLqyhJ1Sx9cQTT9j777/vrnb12zdMIub+67M5EXP/9dmciLn/+rRLLlIAAAAAAACocjRckCYSvuOOO+yss85y99XL97nnnrM33njD9fYFAGQ+GgIAAAAAAACquGOPPdZuueUW69mzpxvvWpNgvvrqqy4tXbo0shUAIFPREAAAAAAAAAA74IAD7JprrnGTGjds2NDy8/Pt7bfftpdeeskWLVoU2QoAkIloCAAAAAAAAIDTvn17u/TSS+3000+3vLw8KywstPfee8+GDx9u8+fPj2wFAMg0NAQAAAAAAACgTLt27axv37520kknWd26da24uNhGjx5tI0aMsB9++CGyFQAgk1QrKaUb7777rmvprVWrlks5OTluNmFv5mP9dztE/kv0bQBA5tJVPxVFE4utWrXKmjdv7n401K5d22rUqOGOK9HHFC/J5s2b3Y8LbR/UmDFjrGvXrtaoUaPIkvIpj23btoXKY926dW77mjVrRpaULxV5zJ071+2jsgeVjuVIJg9iTswTIebEPAhiTswTIebEPIiwefTv398mTJhgQ4YMiSxJLB3KsWLFCnv99dddI4C21Tn7EUccYZdccol16NAhslX5+JzzOU+EmBPzIIj5rpejrCFgxowZVq9ePatTp05ZQ4AqbuJV2kj07Wyniq2KrCgDgGxFQwAnGkEkkwcxJ+aJEHNiHgQxJ+aJEHNiHkTYPDK1IUDWrl1rb775pruAdOXKlaZqpG7dulnv3r2tU6dOka3i43PO5zwRYk7MgyDmu14OhgYCAAAAAACAL1XsnXvuuS7pYh+ZPHmyPffcczZt2jR3HwCQ/mrcVUo31KqrngBqKdCVm0qxV21GX70p0bez3Zo1a6xJkyaRewCAePR9uXHjRsvNzS07loiOGbp6KDapJ0BRUZH7r+31P0hasGCB+yGiY5ff+tikPNSKHiYPtbx7Leh+62NTKvLQFVmasK1Zs2a+6/1SOpYjmTyIOTFPlIg5MQ+SiDkxT5SIOTEPksLmod4AixYtcpXpfuv9UjqVQ9vss88+7rEXL15sGzZssKVLl9qSJUtcXUmLFi1891Pic87nPFEi5sQ8SCLmu14OGgICoiEAAILR9+X69evLjik6lqjCX3Tg8Sr/o9OWLVvcf20buy5e0g8pfS9ryCG/9bFJeejgGSYPHTy9hgy/9bEpFXmoi5/yUdn91vuldCxHMnkQc2KeKBFzYh4kEXNinigRc2IeJIXNY+LEia4C/ZxzzvFd75fSrRyqA2rbtq0b+nPZsmXunF9zCCxcuNAaNmzoKsL8zvX5nPM5T5SIOTEPkoj5rpdj+xIAACqQfiRENyp7t+MlbRNku+gkYfZJJo9ktk9FHuK3Ll5K13KE3UfC7JNMHslsn4o8xG9dvJSu5Qi7j4TZJ5k8ktk+FXmI37p4KV3LEXYfCbNPMnkks30q8hC/dfFSupYj7D4SZp9k8khm+1TkIX7r4qV0LUfYfSTMPsnkkcz2lZ2HdyGl37p4KR3LoQt9TjzxROvTp4/rISCzZs2yYcOGucaOrVu37rSPhMknFeVIVR7ity5eStdyhN1HwuyTTB7JbJ+KPMRvXbyUruUIu4+E2SeZPJLZPhV5iN+6eGl3loPJggNismAACIbJgpmMKIhk8iDmxDwRYk7MgyDmxDwRYk7MgwibRyZPFhwtOo/PPvvMRowY4RoCZM8997RevXrZ0UcfbXl5eW6Z8Dnnc54IMSfmQRDzXS/H9mYLAAAAAAAAICBV+Pft29c6duzo7muM8OHDh9uHH37ohg0CAKQXGgIAAAAAAAAQ2pFHHukaAw488EB3XxMIv/TSS/bee++5ucMAAOmDhgAAAAAAAIAQvGEvYXbooYdav379yobG0DChr7zyir3xxhu2cuVKtwwAsPvREAAAAAAAABCC5lfU3FfY7qCDDnKNAYcddpi7r/GpR40a5RoEVq9e7ZYBAHYvjloAAAAAAAAhfP755zZ9+vTIPYjmCrjsssusW7duboLKjRs32ltvveUmEV28eHFkKwDA7kJDAAAAAAAAQECffvqpPfDAA/bZZ59FlsDTvn17u/zyy91EwrVr17aioiKbNGmS6xkwb968yFYAgN2BhgAAAAAAAIAENm3aZCNHjrRHHnnE5syZE1mKWO3atbNLLrnETjjhBKtbt66VlJTY2LFj7YUXXrDZs2dHtgIApBoNAQAAAAAAAAl89dVX9uKLL7rx8Nu2bRtZCj+tW7e23r172ymnnOIaA+STTz5xjQHff/+9uw8ASC0aAgAAAAAAQJWlSX9r1KgRuRfftm3brE+fPnbrrbdao0aNIksRT/Pmze2CCy6wo446yho3buyWjRs3zoYNG2YzZsxw9wEAqVOtRH20SulLuF69em7m+1q1allOTo47EFarVs0dFPXfS57o29lO3dc01h0AoHz6vvzhhx+sfv367piisUF1HNFxJfpY4iXZunWr6zKs409Qs2bNsjZt2lhubm5kSfmUR3Fxcag8Nm/e7LbX8w8iFXmsXr3adUtX2YNKx3IkkwcxJ+aJEHNiHgQxJ+aJEPOqE3NNaNugQYOyxy6vMUCNAKJtNAnu9ddfb8cdd5xdc801tmHDBlu7dq1bH8/gwYPtiy++cHMLBJUtMZ82bZp9++23bk4F73U6+OCD7bzzzrN99tnH3Y+WruUImwefc77bgyDmxDyRiiwHDQEB0RAAAMHo+3L69OnuBECNAN7BRz+0oo8p4v33flhpm6BWrlxpDRs2dMerIJSHDnlh8tDkZt7zDiIVeeiHp/ZR2YNKx3IkkwcxJ+aJEHNiHgQxJ+aJEPOqE3Odr7Zo0cINXZNoWz2m6Hkrfl5DwM9//nNbs2aNLVmyxK2PR0PifP3113bPPfdEliSWTTHPy8uzL7/80j744ANbunSpW7733nvb6aef7oZais4/XcsRNg8+53y3B0HMiXkiFVkOGgICoiEAAILR96VO7ps0aeJ+VMX2CPA7phQWFroWbv1ACGrChAnWsWNHdxVXEMpDB9AweeTn57sfiEEPuKnIY+HChVZQUODKHlQ6liOZPIg5MU+EmBPzIIg5MU+EmFedmKvuQ/Ue33zzjU2dOjWydGctW7Z0E996PQZ09Wd0jwBdralKl/I8+uijNnnyZBs4cGBkSWLZFnP1GB4zZoy98sor7jMgqme56KKL7JBDDil7DulajrB58Dnnuz0IYk7ME6nIctAQEBANAQAQjL4vV61a5cYE9RoCdDwpryFA3dbUEOBNJBaEfkR07do18PisykMHzzB5rFu3zm0f9ACdijzmzp3r9lHZg0rHciSTBzEn5okQc2IeBDEn5okQ86oXcw1Z8/7770fu7UxXrl988cWurkSiewSoISCI/v37u4qyIUOGRJYklq0x/+ijj+zll192nwPR66vGgCOPPNLVSaVrOcLmweec7/YgiDkxT6QiyxFsMCIAAAAAAIAs9JOf/MTuvPNO+9Of/uSbLr/88rJGAOw69a7QpMvexZaqSNMEwmPHjnXzLQAAKgcNAQAAAAAAoMoKMrQPKtYxxxzjelkccMAB7r6G1xg+fLh9+OGHtn79ercMAFCx0qohYPHixfbYY4+5pNtZYdkYe+CPf7E7y0v/HWPLIpuvn/q6PfnUYBu9vYfcbrTMRv+39Lk9Ny1yHwAAAACA7KMhF8I0BGiohVNOOcU6d+4cWYJkHHXUUXbJJZeUvY7Lli2zl156yQ3TpAmYAQAVK60aAjThzpw5c1zS7axQvMny1+fb+vqd7OxzzvRPJ+1n3lQamxZOsy+nTrPvV0UW7EYb80ufd8HWyD0AAAAAAKBhgjRckK5qx6459NBDrV+/fnbwwQe7+6tXr7bXX3/d3nnnHVuxYoVbBgCoGAwNlCqN97fu3bv5p4PbWG5ksz1Ou9nuufvPdvn2YyAAAAAAAEgzW7ZsseLi4sg97IouXbrYpZde6hoFqlWrZvn5+fbmm2/aK6+8YkuXLo1sBQDYVTQEpJva9a1Bo/qWmxO5DwAAAAAA0opGMaAhoOJ07NjR9bI44ogj3NBLmzdvtrfeestGjBjh5g8AAOw6GgIyUeEmK0pwvlFUuPOQPjsNeViYb+vXlqYNAYf/Kdpafr7FW8M9HgAAAAAAQKn27dvbFVdc4eYOqF27tpvE+d1337UXX3zR5s2bF9kKAJAsGgLSzVfD7c4/9rfR3uzBpZa9/ne79Z637fuZb9vDf/yd3frrO+2O235ndz83w2JnUlj4wWN256/usDt+re3uswHPDbK//7b09i132O+fn+G22TTHe5y/2J1/Kk2//5397r9jbKFfJX/xepv+eulj/voOu/VXv7M7br/THvhgUWTljxZ+0N9+d/vvEj8eAAAAAACAj3bt2tnFF1/s5l+oW7euWzZ69GgbPny4m08SAJC8GneV0o2VK1e6CW/UBatGjRouVa9e3Y3PFps80bcrgmaFnzx5srut7mBNmjRxt9OBnltSz6dglo35ZI5tWjPLPhs71kZ/OGantKzZCdZlj8j2C8fZqxNWW7tjj7MO9bcv2vD9WBv7/Rz7emZdO/3Ga+zCUw+zlium2YQpk2zNnqdY1xbbt9s0dbDdN3yNHXb1rXbLZWdb19xv7N13l1jHq35rv7j4TDvugKZWu1Z1y5k7w6Y2PcluuLafnd/jNDulU6FNfvtdG7tyTzula/PtD2YbbObHn9nseQtsVfsedvWl59ppR+9nOfOn2eTxk2xJy5/Yoa22j1+0afIgu++FRbbnBTfb76+90E7rvqflf/a8vTI/+vEAVBX6vty4caPl5ua6Y4qOJaJjRklJibut/9GpqKjI/df2sevipfnz51uLFi3csctvfWxSHuq+HSYPdUnW9t5zT5RSkcfatWutsLDQmjdv7rveL6VjOZLJg5gT80SJmBPzIImYE/NEiZgT8yApbB7jx4+3RYsWWc+ePX3X+6WqGnP1Bthzzz1dPpojQJ8V9QjQ50aP07hx4532ScfXis853+1BEjEn5olSRZajWukfVyszY8YMq1evntWpU8cFLScnxzUGaIfYBgFP9O2gFi9e7MbS86N1mh1eevToYa1bt3a3Y6lyKd66yjJ79mzXTS20JW/b3fe+b6vadLO+x+8dWbijJh26WQevjWHyILt18DI77fd/sLNbbV+kHgF/f2+9HX7tP+zyg7Yvs02f2sO/HWmrTv21/anH9laEcY/dYcOst/3v+m7uvtkie+WuB2xy55vtnt57RZb5c/vOPtSuu6+fdXZLltkb99xn7zaPfrxSxfNsxF39bWyDHnbPHcdbA5thz/x6kM08MiaP1e/bfXfPsuPuvd66ezMhA6gS9H2pE3Y1nuoqHp3I6zii40q8Y4oOnDoc6fs9qAkTJrixRBs0aBBZUj7loYNnmDw0UZnXoBFEKvLQGKkFBQWu7EGlYzmSyYOYE/NEiDkxD4KYE/NEiDkxDyJsHo899phNmjTJBg4cGFmSWFWPuf5rnoAPP/zQVbaJJhQ+//zzd/rspONrxeec7/YgiDkxT6Qiy5HyoYFee+01GzBggG/yGgFEt/22UdJjZJzG+1v37t18U1kjQLn2tw7ba+i3y82zHUO5yYo0B0D16FmGa1pODbP169dH7se3T5vSJ1G4eaehhnZ8vFLV97IjDqpvNn+WzdT9RbNsbmFNa5KzzMaNm/Bj+n6r5dVebUtXu70AVDFehb9X6e/drsgkfsuzPXmNJ37rsj1V1XITc/912ZyIuf+6bE7E3H9dNidi7r8umxMx919XXtKFRb169XIXiupqW5k6daq98MIL7mJWv33SKRFz/3XZnIi5/7psTpkW85T3CFAr+K6O67bvvvva9ddfH7mXGrvcI+Cgfva/aw+NLCxH3B4Be9jlD15th29fVGqqDbhlqC2L6hGw6u0H7O4PGljfu6627hpKb9n7dt+9b1te73vspqN3bDUqWjbDRo/9zL78eqGt37rVNhVoAuJOUXlEegTssfPz3v58cuy0//u1nb1Qz3em7dGxk7X0aZja58Qr7ET/jhAAspS+L1etWuVO1r0eATqelNcjQN3W1MLtjQMaxJgxY6xr167WqFGjyJLyKY9t27aFymPdunVu+6At9anIY+7cuW4flT2odCxHMnkQc2KeCDEn5kEQc2KeCDEn5kGEzaN///7uitkhQ4ZEliRGzLfnoWExNGnwq6++6noeS+fOna1v377WpUsX9/siHV8rPud8twdBzIl5IhVZju1NNil07rnn2nXXXeeb1Mrr0W2/bZT0GNhZXvMGlls0w4b96U6784932h33vu0aIK7aoRFgk01/7i+l656zL7fsZaf1u95+fcdv7Nqjg89/sGmTuh40sZZqf2jZwpparnU44wq76mc7JxoBAAAAAABAsnRB0VlnnWUXXnihtW3b1i2bPn26PfPMM26eSTUUAAASS3lDgMb215X1fil63P+g2+FH30+dYXv2vsf+dH1vO/ucHnbVr/9h//j5obbDhfprJ9gb4/Kt88X32K8vOcW67r+HNWhU32pZnANncczy4nk26et8s3b72f663+Zg69wo3yZ9OsOt3kFx5D8AAAAAAECS1JP4tNNOs4suusj22mv7/IQzZ850PSzGjRvnrpgFAJQv5Q0BVdaamTuOob9DmmWrIpvtipzaNe370S/b9FXbR/pfv2CKfTlzma0vdHe3a9DAGpRG/Ycpn9pCt3yrbZr/qb0xOd+t3sn0123AZ6tdM0HR6hn2xn8H2ti1uXb4WZooWPays3t2Mps42P4+Yoatcu0GesypNuLB/vbGEreRTX78Drv1ljtswOTt992QSaX3b318amSBhiLSNn8v2wcAAAAAAMBz4oknWp8+fdyQ0aJhOZ577jn7/PPPbcOGDW4ZAMAfDQGpsmiCDXtueJw0xuZGNtsVe7RuYznLptqIqMd+sv99duevf2d3Pzdj+0TA1Q+1s0/bw7Z+O9Lu+7Uq3n9ndz4+zXLb1nePsZOOh9k+Ex6wO265w+64a5C9O9+sc+9f2uVRExfnHn61/eFnh9nWzwfZ3b/a/pi/u/8F+77hUdZ9+/QFAAAAAAAAu+zYY4+1iy++2Dp06ODuL1q0yF5++WUbPXq0GxcbAOAv5ZMFl0cTTA4YMMDd1lwAGgYoXSQ9WXCqzB1pd94/xdpe/Eu7qnsTy4k08RStX2Yz337GBnyyyg6//h9lFfhFG/LNDfWfW98a1N6+rFyF+bZ+U+nmDeqXPfbOttqmtZtc74HytwOQzZgsmMmIgkgmD2JOzBMh5sQ8CGJOzBMh5sQ8iLB5MFlwxcdc8wMMHz7c1WdpngD9/tB8kyeffLI1aVL+PIipeK34nPPdHgQxJ+aJVGQ5qKrNEutnz7X1trd1jWoEkJwGe1jnC4+3zrbVVi37cfifnLr13dwAgRoBpPb27cuv3K9puXrMhNsBAAAAAAAk7/DDD7d+/frZQQcd5O6vWbPGRo4caW+88YatWLHCLQMA/Ijq2izRoPsx1iFnhr3y4Ns2fdn2q/LdFfrLNK7/6zY9t5P9tFuc4X8AAAAAAAAyzMEHH2yXXXaZdenSxfU2LigosNdee81eeeUVW7p0aWQrAICkVUNAbm6um/BFSbcRQt1udtOfr7aT8qbZk/fe6cb0d2P13zvYvqx3vF33f1fb4cF7kAAAAAAAAKS9Tp06Wd++fV0PAQ2DUVhY6HoFjBgxws0fAADYLq0aAlq3bm3XX3+9S7qNkBp0stOu/bX9+7//tn/f+2e7595/2P/++w/7w7WnWOcGkW0AAAAAAACyiC4oVc+A7t27u7kvNf/Yu+++ay+++KLNmzcvshUAVG1pNVlwOkv7yYIBIE3o+3L58uXWtGlTNzmNjimJJgvWVTs6Wc/Ly3P3g/j888/twAMPtAYNgrV0Kg9NsBMmj/z8fNdDLegkPqnIY8GCBbZ+/XpX9qDSsRzJ5EHMiXkixJyYB0HMiXkixJyYBxE2j0ceecQmTpxoTz31VGRJYsQ8fDk0N8BLL71k48ePtw0bNrh1xx13nPXq1cv23ntvd19S8VrxOee7PQhiTswTqchy1LirlG6sXLnSVdZoA1XYKMVW1kRX2kj07WynSWcSzToPANj+famDjhqWdRxR8qiyX+3P+h+dioqK3H9tG7suXlq8eLH7XtZxy299bEomD83Or+Oh33P2S6nIQycZOhFo3Lix73q/lI7lIObEPEgi5sQ8USLmxDxIIubEPFFKRR6TJk1yZT/77LN91/slYh6+HLrAdZ999rEtW7a4OQL0OVOPgFWrVlnz5s2tUaNGbvtUvFZ8zvluD5KIOTFPlCqyHPQICIgeAQAQjL4v1bisE221WNeuXdsdT8rrEaCDlA5K6oxGHzwAAGjaSURBVEEQ1NixY92kYDqZD0J5qBU9TB7r1q1z2+tkJohU5KEfMtpHE6MFlY7lSCYPYk7MEyHmxDwIYk7MEyHmxDyIsHk89NBDNmHCBHvmmWciSxIj5smXY+3atW6egPfff99Wr17tlh122GHWu3dvN6dAKl4rPud8twdBzIl5IhVZjrSaIwAAkB28Sn5V+ldWEr/l2Z5S8dqmayLm/uuzORFz//XZnIi5//psTsTcf302J2Luvz6b0+6Iua5MvuCCC6xHjx7WokUL99pPnTrVhg0b5i6E9dunohMx91+XzYmY+6/L5pRxMXeRAgAAAAAAALKEeif37NnTzQ/QsmVLt+yrr75yvTKmTZvmrrAFgKqEhgAAAAAAAABkHQ1Pes4559j5559vbdq0ccvUI+DZZ5+1L774ws0lAABVBQ0BAAAAAAAAyFpnnHGGXXTRRdauXTt3X/OaPffcczZu3DjbtGmTWwYA2Y6GAAAAAAAAAGS1k046yfr06WP77ruvu79gwQLXGKBJTgsKCtwyAMhmNAQAAAAAAAAg6x133HF28cUXW/v27d39xYsX2wsvvGAffvihrVu3zi0DgGxFQwAAAAAAAACqhO7du7ueAR06dHD3V6xYYSNGjLB33nnHVq9e7ZYBQDaiIQAAAAAAAABVxmGHHeZ6Bhx44IHu/tq1a+3ll1+2UaNGuYYBAMhGNAQAAAAAAACgSjnooIPs8ssvty5dulj16tVt48aN9tprr9nIkSNt6dKlka0AIHvUuKuUbqxcudJq1aplNWvWtBo1arikL8Jq1artlDzRt7PdmjVrrEmTJpF7AIB49H2pk+jc3Fx3TNGxRHTMKCkpcbf1PzoVFRW5/9o+dl28NH/+fGvRooU7dvmtj03Ko7i4OFQemzdvdtt7zz1RSkUeulqpsLDQmjdv7rveL6VjOZLJg5gT80SJmBPzIImYE/NEiZgT8yApbB7jx4+3RYsWWc+ePX3X+yViXvnlaNmype25556uF4DqxbZs2WIzZ850n0+tq1evXtk+YfPgc853e5BEzIl5olSR5ahW+sfVysyYMcN9wdWpU8cFLScnxzUGaIfYBgFP9O1sN3v27LLJZAAA8en7UlfQqPG0bt26Vrt2bXcc0XEl3jFFB04djtR4ENSECROsY8eO1qBBg8iS8ikPHTzD5JGfn1/WoBFEKvJYuHChFRQUuLIHlY7lSCYPYk7MEyHmxDwIYk7MEyHmxDyIsHk89thjNmnSJBs4cGBkSWLEPHXlUCWm5gmYMmWKWyfHH3+8a7hRQ4GEzYPPOd/tQRBzYp5IRZaDoYEAABXOq/D3Kv292+WloNt5SfyWl5fC5hF2e6XKzkPbhy17OpZDKew+YcutlI7lSGb7sGVPx3Iohd0nbLmV0rEcyWwftuzpWA6lsPuELbdSOpYjme3Dlj0dy6EUdp+w5VZKx3Iks33YsqdjOZTC7hO23ErpWI5ktg9b9nQsh1LYfcKWWynV5dh7773t0ksvteOOO85dzCRjxoxxjQNz587dafsgSduL37p4aVfLESSlIo+w5VZKx3Iks33YsqdjOZTC7hO23ErpWI5ktg9b9t1ZDnoEBESPAAAIRt+Xq1atcl3jvB4BOp6U1yNA3dbUwu2ddAehE/OuXbtao0aNIkvKpzy2bdsWKo9169a57YO21KciD/0Q0T4qe1DpWI5k8iDmxDwRYk7MgyDmxDwRYk7MgwibR//+/d0Vs0OGDIksSYyYp74cGh5IkwZ//PHHtn79erese/fu1rt377LfN0Hz4HPOd3sQxJyYJ1KR5djeZAMAAAAAAABUYc2aNbM+ffrY6aefbo0bN3bLxo0bZ0OHDnVzBwBAJqMhAAAAAAAAACjVsGFDu/DCC+2cc85xDQMyefJke/7552369OlubjMAyEQ0BAAAAAAAAAARmmSzV69edt5559kee+zhln3zzTduaKevvvrKtm7d6pYBQCahIQAAAAAAAACIorG1zz33XLvgggusdevWbtm3335rTz/9tOshUFhY6JYBQKYomyz43Xfftby8PDdRsDdZsDeho/ff7RD5L9G3AQCZqyInQ2eyYCYjCiKZPIg5MU+EmBPzIIg5MU+EmBPzIMLmwWTBmR3zDz74wA0NtHTpUvcbpl27dnbRRRfZkUce6erS/PA557s9CGJOzBOpyHKUNQTMmDHD6tWrZ3Xq1ClrCFDFTbxKG4m+DQCA0BDAiUYQyeRBzIl5IsScmAdBzIl5IsScmAcRNg8aAjI/5m+++aa99dZbNm/ePHe/VatWrrfA0Ucf7erTYvE557s9CGJOzBOpyHIwNBAAAAAAAABQjmOOOcb69OlT1pt6yZIlrpfAhx9+aGvXrnXLACCd0RAAAAAAAAAAJNC9e3fr16+fdejQwd1fuXKlvfjii/bOO++4XtEAkM5oCAAAAAAAAAACOOKII+yyyy6zTp06ufsagmPkyJE2atQoW7FihVsGAOmoxl2ldEOtmJobQGMHaSxnpdhxnKPHc5bo2wAAyJo1a6ygoMDNOePNNROZjsbNA6Db+h+dtmzZ4v5r+9h18dKCBQusWbNmbu4Bv/WxSXloXL0weWzatMlt7z33RCkVeajbcWFhoTVt2tR3vV9Kx3IkkwcxJ+aJEjEn5kESMSfmiRIxJ+ZBUtg8xo8fb4sXL7YePXr4rvdLxDx9Y6750Fq2bOmGB1J9mj7PM2fOdI+r5bm5uXzO+W4PlIg5MU+UKrIcTBYMAKhQmix46dKl1qRJE3cC7E0WrIbmeMcUHdh0UNL2QU2aNMkOOOAAq1+/fmRJ+byDZ5g81KCh7b0DaCKpyEM/IPPz813Zg0rHciSTBzEn5okQc2IeBDEn5okQc2IeRNg8BgwY4Mr+xBNPRJYkRszTP+Zz5syxF154waZNm2ZFRUVu2cknn+wafPRbh8853+2JEHNinkhFloOGAABAhVJDgK6K0dUAeXl5ZQ0BOq7EO6aoBV0NAdo+qE8++cS6dOliDRs2jCwpn/LQwTNMHuvXr3fbB53NPxV5zJ8/33U/VtmDSsdyJJMHMSfmiRBzYh4EMSfmiRBzYh5E2DwefvhhmzBhgg0ePDiyJDFinhkx1+dZjQGTJ0+2zZs3u2UnnniidevWzdWz8TlPLNNiHg/f7cQ8iN1ZDuYIAABUOK/CXw0AQZK2DbO9klR2HslsX9l5eA0ofuvipXQsRzJ5EHP/9X4pHcuRTB7E3H+9X0rHciSTBzH3X++X0rEcyeRBzP3X+6V0LEcyeRBz//V+KR3LkUwe2R7zffbZx6644go79thjXcW/4vzRRx/ZG2+84a4W9tsnXtqd5YiXkskj22MeL/E5D75PMnkks31l55FpMachAAAAAAAAAEhSq1atrF+/fnbCCSdYgwYN3LKJEyfaW2+9ZbNmzXL3AWB3oyEAAAAAAAAA2AUaGrVv37522mmnWePGjd0yzR3w7LPP2nfffefuA8DuREMAAAAAAABACN78V0A09Qa46KKL7Oyzzy5rDJgyZYo988wzbm5OzYsGALsLDQEAAAAAAAAh5ObmujGYgVh6b1xwwQWuZ0CTJk3cMvUMeOqpp+yrr76yoqIitwwAUo2jFgAAAAAAQAJr1661t99+215//XUbNWqUff7557Z169bIWuBHmpTz1FNPtZNPPtlat27tln377bf29NNP2+TJk62wsNAtA4BUoiEAAAAAAACgHOvWrbMRI0bYSy+9ZB999JFLgwcPtk8//ZTGAMR17LHHut4Bbdu2dffnzJljQ4YMsXHjxtnGjRvdMgBIFRoCAAAAAAAAyjF16lQbNmyY3Xzzzfaf//zHpUMPPdQeeughW716dWQrYGfqGdCnTx/ba6+93P0FCxbY0KFDbezYsZafn++WAUAq0BAAAAAAAABQjpKSErvwwgutY8eOkSXbr/ZWI8Dy5csjSwB/xx9/vPXt29f23Xdfd3/p0qX2/PPP2wcffOCGnAKAVKhWejAr0Q3NXl6vXj2rU6eO1apVy82ArzHNNAu+JsDRfy95mCEfABBr9uzZ7sRWE2NpoqzatWu740nNmjXjHlM0RqYOR9o+qEmTJtkBBxxg9evXjywpn/IoLi4OlUdBQYHbXs8/iFTksWjRIrePyh5UOpYjmTyIOTFPhJgT8yCIOTFPhJhXrZjrfFSPr3NR1YfE8s5fvYmBI1UobrmGB7rnnntswIAB1r59ezcJbLyJYB977DE3NvwTTzwRWZIYMU+vcoTNw+9zPnHiRHvxxRdt7ty57r5ekx49etgJJ5xgjRo1IuZpVo6KiHkixJyYJ1KR5aAhAABQodQQ8N1331leXl7ZMUXHk+iGAIk+pnjjqurYE9TixYutadOmrqEhCOWhQ16YPLZs2eKet/ecE0lFHuo+rH1U9qDSsRzJ5EHMiXkixJyYB0HMiXkixLzqxFzrVQ+i81bd9tte56vKW//1PETbqRfAP//5T/f8/vrXv7rHWLFihat88fPcc8/ZtGnT7N57740sSYyYp1c5wuYR73Ou+rdXX321rDFAr8uJJ55oP/3pT937sSLKofv6DaZ1apxSJaJ4j6v1Whav4SoaMd/1mJcnHctBzLM35jQEAAAqlBoCZs6caQ0aNCg7pug4ouNK9LHES6IDm4Q5sOnEuWXLlr5XbvlJ5uCplndtX5kH6LB5qOvw5s2bXdmDSsdyJJMHMSfmiRBzYh4EMSfmiRDzqhNzbaOrsHXVpHdeGs+2bdtc0j5qBHj66afts88+s7///e924IEHukoXDROkvP1ogtgvv/zS/v3vf0eWJEbM06scYfMo73OuSYPVGKC6OFXI6zE11JR6Bmhi4V0tR926dd3vML1nNSmxthNVDOr9rv96z27YsMEtLw8xr5iYx5OO5SDm2RtzGgIAABVKDQGrVq2y5s2buxNQXRGg44mOK/GOKTpw6gRY2wc1ZswY69q1q/vxFoTy0IlwmDzWrVvntteJchCpyEMnWNpHZQ8qHcuRTB7EnJgnQsyJeRDEnJgnQsyrXsx1/vrtt99G7u1MV3oeeeSR7px22bJlNnjwYPvkk0/stttus5NOOimyVfn69+9vEyZMcA0CQRHz9CpH2DwSfc5nzZrl3g9ff/112ZX56hXQu3dva9eunbufSLxyqFHqww8/dI1UnTp1iizdTvV/33zzjXvvajjXRIh5xcXcTzqWg5hnb8yDNT0AAAAAAABkoXnz5tn7778fN02ZMsVdkek1AnzxxRehGgEAP/vtt59dffXVrpHJu4pakwdrDoH58+e7+8n64Ycf7IorrrDXXnstsuRHWqZ12gZA1UJDAAAAAAAAqLI0Pvv9999vDzzwgG+68cYb3RWZGudfjQD/93//RyMAKoSu/Fel/NFHH112ta8moX7++efdlcYAUJFoCAAAAAAAAFWWrvZPNGnq2LFjXW+AQw45xPUgePPNN8uS5gwAktWqVSu77LLL7Pjjj7f69eu7ZRp6aujQoW7YKgCoKDQEAAAAAACAKktjLydqCFi/fr2byHXx4sX27rvv7pBoCMCu0jwUl1xyieud4o2xPn78eDeHwPfff+/uA8CuoiEAAAAAAACgHKqk/e9//+ubDjrooMhWQPIaNGhgF1xwgZ155pmuYUA0P8XTTz/tJrNWgxUA7AoaAgAAAAAAAEJQD4KSkpLIPaBi1K5d2zUG9OzZ01q0aOGWff311zZo0CCbNm1awp4rQVTEYwDITDQEAAAAAAAAhLBx40au0EalqFGjhp133nnWq1cvN3+AfPfdd65nwOTJk93E1UHFVvqr8YqhrICqi4YAAAAAAAAAII2cffbZrndA27Zt3f05c+bYM888Y+PGjbMNGza4ZfHUqlXLcnJy3JwW0Q1WK1eutKlTp0buAahqaAgAAAAAAAAA0sxpp51mvXv3tnbt2rn7CxcutKFDh9rYsWMtPz/fLfPTvHlz23fffe2zzz6zDz74wObNm2dfffWVDR482ObOnRvZCkBVU+OuUrqhVkG1GNasWdN1Q1KqXr26VatWbafkib4NAICsWbPGXaFSp04ddyzRscIbP7W4uNjd1v/opC6rulJF28eui5cWLFhgzZo1c1e6+K2PTcnksWnTJre999wTpVTksW7dOissLHQTiPmt90vpWA5iTsyDJGJOzBMlYk7MgyRiTswTpVTkMWHCBFu0aJH16NHDd71fIuaZHfOK+pyrEaB+/fquEWDt2rVWUFBgs2bNcnV4TZo0KavH07be7668vDxXvs8//9w+/PBDW7Jkib399tv25Zdf2sEHH2wzZsywn/3sZ9a6dWu3nZKXX2wi5qmPeXkpXV8rYp4ZMa9W+iXhviX0JVCvXj1XceN1IdIOqsCJbRDwRN8GAEBmz57tTjR1UqoTUE14peOJTlDjHVN04NThKDc3190PYtKkSXbAAQe4k+IglIcOfGHy0Em2jot67kGkIg9179XVPyp7UOlYjmTyIObEPBFiTsyDIObEPBFiTsyDCJvHgAEDXNmfeOKJyJLEiHlmx7yiP+dTpkyx4cOHu99bojq8U0891Y4//nhr06aNW6bfV95FvirjiBEj7K233rItW7ZY48aN7YorrnDr//vf/9rdd99t++yzj6tkVIqHmO++mPtJ19eKmGdGzGkIAABUKJ2YqpeZrgaIbgjQcSXeMcU7sGn7oD755BPr0qWLNWzYMLKkfMpDrehh8li/fr3bPswBurLzmD9/vrvqQGUPKh3LkUwexJyYJ0LMiXkQxJyYJ0LMiXkQYfN4+OGHXa8ADc0SFDHP7JhXxudcw/toaCBNHizaTsMHaWJhDQcksb+1yqMqQS/FQ8x3b8xjpetrRcwzI+bMEQAAqHA66VSFvxoAgiRtG2Z7JansPJLZvrLz8E7q/dbFS+lYjmTyIOb+6/1SOpYjmTyIuf96v5SO5UgmD2Luv94vpWM5ksmDmPuv90vpWI5k8iDm/uv9UjqWI5k8iLn/er+UKI9DDz3UrrrqKuvcubOr4NOV/G+88Ya9/vrrtmLFCreNHkP5xqPeAV7Fv7ZLlKfWhy27hNknmTyS2b6y86iMmMemVJQjmTyIuf96v7Q7y0FDAAAAAAAAAJAB1AhwzTXXuLH+1etalfpqCHjppZfcPBSJaOxwXV0MoOqhIQAAAAAAAADIEPvtt59dffXVdthhh7khvuWdd95xcwho0lYA8ENDAAAAAAAAAJBB2rVrZ5dddpl169bN6tat65aNHj3ahg0bZvPmzXP3ASAaDQEAAAAAAABAhmnZsqVdcskldvzxx1v9+vXdMk3a+uyzz9qcOXPcfQDw0BAAAAAAAAAAZKAmTZpYv3797NRTT7VGjRq5ZePHj7fBgwfbzJkzyyYGBgAaAgAAAAAAAIAMpd4Affv2tbPOOsuaNm3qlk2dOtWeeuop+/bbb23r1q1uGYCqjYYAAAAAAAAAIIPVrl3b+vTpYz169LDmzZu7ZV9//bUNGjTIpk2bZlu2bHHLAFRdNAQAAAAAAAAAGa5atWp2/vnnW69evdz8AfL999/b008/bZMnT7ZNmza5ZQCqphp3ldKNlStXWq1ataxmzZpWo0YNl6pXr+6+RGKTJ/o2AACyZs0ad4KZl5dXdiwRHTO88Sn1Pzqpq2pxcbE7BsWui5fmz59vLVq0cMcuv/WxKZk8Nm/ebDk5Ob7P2S+lIo9169a5fXSVj996v5SO5SDmxDxIIubEPFEi5sQ8SCLmxDxRSkUeEyZMsEWLFlnPnj191/slYp7ZMd+dn/P999/fvd56z+Xn57vfaD/88IM1aNDAJf1W29U8ykvEnO/2RImY755yVCv942plZsyYYfXq1bM6deq4oGljVeCo4ia2QcATfRsAAJk9e7YtW7bMTVqlE0x1UdVxRMeVeMeUwsJCd1DKzc1194PQj6mOHTu6E9kglIcOnmHy0Emz16ARRCryWLhwoRUUFLiyB5WO5UgmD2JOzBMh5sQ8CGJOzBMh5sQ8iLB5PPbYYzZp0iQbOHBgZElixDyzY54On/MxY8bYyJEjXYOANGvWzM444ww7/vjjyyYWToSYZ1bM/aQiD2KeGTFnaCAAQKXxKvqjK/4rKkm8nmsVmcRveUWmsHmE3V4pmX3CpsrOQ4h58JTMPmFTZechxDx4SmafsKmy8xBiHjwls0/YVNl5CDEPnpLZJ2yq7DyEmAdPyewTNlV2HkLMg6dk9omXTjjhBDeJ8N577+0eV6OBvPzyyzZ69Gh3JbPfPhWRhJgHT8nsEzZVdh5CzIOnZPYJm3zzoEcAAKAiqUfAqlWrXNe4unXruh4BOp6U1yNA3dbUwq3tg9LVLV27dg18JYvy2LZtW6g8dHKs7dUFL4hU5DF37ly3j8oeVDqWI5k8iDkxT4SYE/MgiDkxT4SYE/MgwubRv39/d8XskCFDIksSI+aZHfN0+pxPnDjRhg4danPmzLGioiJ31fZ5551np512mjVt2jSylT9inpkxj5aKPIh5ZsScHgEAAAAAAABAljryyCPtZz/7mZs7QDZu3GgjRoyw119/3VasWOGWAch+NAQAAAAAAAAAWUxXLF999dXWoUMH10tbPQM0TJDmENAcbwCyHw0BAAAAAAAAQJbr3LmzXXnlldalSxc3dKuMGjXK9Q5YvHixuw8ge9EQAAAAAAAAAFQB++67r1111VV2+OGHu3lC5Z133rEXXnjBFi5c6O4DyE40BAAAAAAAAABVRLt27VxjwE9+8hPLy8tzy0aPHu0mFJ43b567DyD70BAAAAAAAAAAVCEtW7a0K664wo4//nirX7++W/bpp5/akCFD7IcffnD3AWQXGgIAAAAAAACAKqZJkyZ26aWX2imnnGKNGjVyyyZMmGBPP/20zZ4924qLi90yANmBhgAAAAAAAACgClJvgH79+tmZZ57pGgZk6tSpNnDgQPvuu+9s69atbhmAzEdDAAAAAAAAAFBF1apVyy6++GLr0aOHNWvWzC375ptvbNCgQfb111/bli1b3DIAma3GXaV0Y+XKle6DX7NmTatRo4ZL1atXt2rVqu2UPNG3AQCQNWvW2IYNGyw3N7fsOFJSUuLWqWupbut/dCoqKrJt27a5Y0/sunhpwYIF1rx5c8vJyfFdH5uSyWPz5s1ue7/n7JdSkce6deussLDQmjZt6rveL6VjOYg5MQ+SiDkxT5SIOTEPkog5MU+UUpGHhltZtGiRq2j1W++XiHlmxzwTP+cHHHCA+922cOFCKygocHWFmi9AwwYphvp9F7uPXyLmfLcnSsR895SjWukCVzszY8YMq1evntWpU8c1CChw2kEVOLENAp7o2wAAiMaSXLJkietWqsaA2rVru+OJGprjHVN0hYkORzoGBTV58mTr0KFD2cRWiSgPHfjC5KGTX5VBzz+IVOSxePFit4/KHlQ6liOZPIg5MU+EmBPzIIg5MU+EmBPzIMLm8fjjj9ukSZPc/6CIeWbHPJM/5x988IG99tpr7nedfqftsccedtFFF9kRRxxhdevWjWwVHzHnuz0RYr57ykFDAACgQqkhQFeOqEtpXl5eWUOAjivxjilqQdeBTdsH9cknn1iXLl2sYcOGkSXlUx5qRQ+Tx/r16932asQIIhV5zJ8/3111oLIHlY7lSCYPYk7MEyHmxDwIYk7MEyHmxDyIsHk8/PDDrlfA4MGDI0sSI+aZHfNM/5x/9NFHNmLECFcOrzHgggsusGOOOcYaNGgQ2cofMee7PRFivnvKwRwBAIAK51X4qwEgSNK2YbZXksrOI5ntKzsPrwHFb128lI7lSCYPYu6/3i+lYzmSyYOY+6/3S+lYjmTyIOb+6/1SOpYjmTyIuf96v5SO5UgmD2Luv94vpWM5ksmDmPuv90vpVI6TTz7ZTSLcrl07V45Vq1bZ888/b6NHj7b8/HzffbxEzP3X+6V0LEcyeRBz//V+aXeWg4YAAAAAAAAAADs49thjXWPAXnvt5e7rKmM1Brz55pu2evVqtwxA5qAhAAAAAAAAAMBONC/AZZddZu3bt3dXPmsS0hdffNHNIbBixYrIVgAyAQ0BAAAAAAAAAHwdfPDBdu2117oJUTW8iMYrf/nll23kyJG2bNmyyFYA0h0NAQAAAAAAAADi6tSpk1133XV20EEHWU5Ojls2atQoN6HwkiVL3H0A6Y2GAAAAAAAAAADl2m+//eyaa66xww47zOrUqeOWvfPOO27egIULF7r7ANIXDQEAAAAAAAAAEmrXrp1dffXV1r17d8vLy3PLRo8ebUOHDrX58+e7+wDSEw0BAAAAAAAAAAJp2bKlXXnllfbTn/7U6tWr55Z9+umnNnjwYJs7d667DyD90BAAAAAAAAAAILAmTZrYFVdcYaeccoo1bNjQLZs4caI9+eSTtnjxYisuLnbLAKQPGgIAAJWipKTEnfxVVhK/5dme9LpW9mubromY+6/P5kTM/ddncyLm/uuzORFz//XZnIi5//psTsTcf302pNzcXLvkkkvs9NNPt0aNGrnyTp061V5//XX77rvvrLCw0He/bE18zv3XZXPKtJhXK32yJQrWjBkzXHceTfZRq1YtNwN4jRo1rFq1ala9enX330ue6NsAAMjs2bNt2bJl7goRjRlZu3ZtdxzRcSXeMUUniDoc6UQyqAkTJljHjh2tQYMGkSXl805Cw+SRn5/vyqDjYRCpyEOTcBUUFLiyB5WO5UgmD2JOzBMh5sQ8CGJOzBMh5sQ8iLB5PPbYYzZp0iQbOHBgZElixDyzY17VPucjR460t99+21avXm1r1qyxgw8+2C6//HLr3Lmzq2csDzHPzJhH43OeGTGnRwAAoMJF2pjLKvqjK/4rKlXW48amVOQTNo+w2ysls0/YVNl5VPbjeykV+YTNI+z2SsnsEzZVdh6V/fheSkU+YfMIu71SMvuETZWdR2U/vpdSkU/YPMJur5TMPmFTZedR2Y/vpVTkEzaPsNsrJbNP2FTZeVT243spFfmEycPjt668lMw+YVNl51HZj++lVOQTNo+w2ysls0/YVBl5nH/++dazZ09r0aKFe/wffvjBzRkwZcoU27x5s+8+u5rEb3lFprB5hN1eKZl9wqbKzqOyH99LqcgnbB5ht1dKZp+wyTcPegQAACqSegSsWrXKmjdvbnXr1nU9AnQ8Ka9HgE4M1cKt7YMaM2aMde3a1XVBDUJ5bNu2LVQe69atc9vXrFkzsqR8qchDk29pH5U9qHQsRzJ5EHNinggxJ+ZBEHNinggxJ+ZBhM2jf//+7orZIUOGRJYkRswzO+ZV9XOuXgGPPPKIFRUVud+Amli4T58+dtRRR5VNLByLmGd2zIXPeWbEnB4BAAAAAAAAAHbZGWecYSeeeKK1atXK3V+6dKk9++yz9vHHH9v69evdMgC7Bw0BAAAAAAAAACrEYYcdZr1797Y999zT3VeP8aFDh9p7771na9eudcsApB4NAQAAAAAAACF4QykD8Ne9e3e74oorbK+99nL3NXnpsGHD7I033nATCgNIPRoCAAAAAAAAQsjLy3NzXwGIr1u3bnb11VfbPvvs4xrOtmzZYsOHD7fXXnvNVq5cGdkKQKpw1AIAAAAAAEhAkzVOmzbNPvnkE/vss89s5syZkTUA4jnkkEPsuuuus/3339/1pCkpKbGXX37ZpeXLl0e2ApAKNAQAAAAAAACUQ40AU6dOtQcffNCefPJJGzhwoD3yyCO2cOHCyBYA4uncubPdcMMNduCBB1qtWrXcslGjRrneAUuWLHH3AVQ+GgIAAAAAAADKoQlOH3jgATcJqhoCBgwYYLm5ufbcc8+5RgIA5Wvfvr1de+21duihh1qdOnXcsnfffdfNG7B48WJ3H0DloiEAAAAAAACgHJro9IADDrBLLrnE3a9du7adeuqpNnnyZNu4caNbBqB87dq1s5///Odu7gDNsyEfffSRawygdw1Q+WgIAAAAAAAAVZYmMU008e/ee+9tf/rTn6xhw4buviY9/eGHHywnJ8eKi4vdMgCJ7bHHHm4C4eOOO87q1avnln3++ef27LPP2rx589wcAgAqR7XSD5j7hM2YMcN9ANU9R+N16WCmSTy8A6L+e8kTfRsAAJk9e7a7mqNRo0auu7SultLxpGbNmnGPKfohpcOR10U0iK+++sr23XffspPHRJSHfqSFyWPDhg1uez3/IFKRx7Jly9w+KntQ6ViOZPIg5sQ8EWJOzIMg5sQ8EWJedWKu81Kdr2o7nYvqfDUePQedu+q/6k9UYamhgm6++Wbr2bOnGx5IPQO2bt0a2WNHmlNgypQpbl6BoIh5epUjbB58zsuPuZ7HCy+84BoB1ONGNLHwpZdeaq1bt07YOJeOrxUx53MexO4sBw0BAIAKpYYAnQSoAUDHEyUdR2IbAsT7r4Oaty4onSzqh1t5P9iiKQ8Jk4d+0EU/30RSkUdhYaHbx+tKG0Q6liOZPIg5MU+EmBPzIIg5MU+EmFedmOt5qMKxQYMGCbdVRYweU4/9v//9z9WhqAwXXXSRHX300e62LoZZv359ZI8djRgxwqZPn+56FQRFzNOrHGHz4HOeOOZqOBs9erR9+umnbh4OPScNH3TWWWe5ilXVTcZDzDMz5p50LUe2x5yGAABAhVJDwJIlS6xJkybuRKCyegRoPNYOHTpY/fr1I0vKl0wrekFBgStDZbbUh81DE2lpH5U9qHQsRzJ5EHNinggxJ+ZBEHNinggxrxox13mozlN1jrpo0SKbO3duZM3ONBxQp06ddno8leVXv/qV/e1vf3ONAUVFRe75+tHkwtr+8ccfjyxJjJinVznC5sHnPHjM1VCmiYPVGCD77LOP9enTxw488ED3OfVDzDM75ulajmyPOQ0BAIAKpYaAVatWWfPmza1u3bplDQE6rsQ7pmzevNkd2LR9UGPGjLGuXbu6IYiCUB5qFQ+Tx7p169z2Qa9qSEUe+pGqfVT2oNKxHMnkQcyJeSLEnJgHQcyJeSLEvOrF/M0337QXX3wxcm9nagS47LLLXIVPly5dXJ2JaCig66+/3o11fs0117hl8fTv398mTJhgQ4YMiSxJjJinVznC5sHnPFzMX3vtNXvnnXdsxYoVbtmee+7pJuc+7LDDXIVmLGKe+TFPx3Jke8yD9ykAAAAAAADIMmeeeaY9+eST9tRTT/mm3/zmN7ZgwQL77W9/64bA9CxdutQNC6ELYADsmrPPPtsuvPBCN5mw6DP39NNP22effeaubgaw62gIAAAAAAAAVZautIw3ya/ngAMOsIMOOsgGDRrkKiaVnnvuOWvVqpWdeOKJka0A7Ao1yl188cXucyWaiPWZZ56xjz76KO78GwCCoyEAAAAAAABUWWoE0BjM5dE8AX/5y1/c+Nca519JFZNapnUAKsbJJ5/shuJq27atu79mzRobOnToDnMIAEgODQEAAAAAAAAJqML/X//6lxuuREm3aQQAKt6xxx5rV1xxhbVr187d37Bhgw0bNszeeOMNW716tVsGIDwaAgAAAAAAAEIoKiqy4uLiyD0AFe2oo46yn//857b33ntbtWrV3GfuhRdesFdffdVWrlwZ2QpAGDQEAAAAAAAAhLBx40YaAoBKdsghh9gNN9xg++23n9WoUcMtGzlypL300ku2YsUKdx9AcDQEAAAAAAAAAEg7nTp1shtvvNE6d+5sOTk5bpmGCFKDwNKlS919AMHQEAAAAAAAAAAgLbVv396uv/5610Ogdu3abtmHH37o5g1YvHixuw8gMRoCAACVoqSkxHWXrqwkfsuzPel1rezXNl0TMfdfn82JmPuvz+ZEzP3XZ3Mi5v7rszkRc//12ZyIuf/6bE6VEfM2bdq4OQOOPPJIy83NdXmMGTPGBg8ebAsWLPDdJ9WJmPuvy+aUaTGvVvpkSxSsGTNmWL169axOnTpWq1Yt191G429pQo7q1au7/17yRN8GAEBmz55ty5YtsyZNmlheXp67YkPHER1X4h1TCgsL3cHTO6ELYsKECdaxY0dr0KBBZEn5lIcOfGHyyM/Pd2XwxqNMJBV5LFy40AoKClzZg0rHciSTBzEn5okQc2IeBDEn5okQc2IeRNg8HnvsMZs0aZINHDgwsiQxYp7ZMedzXjkxX7dunesJMHbsWNu8ebP7fXnooYfa5Zdf7hoL4tVVEvPMjbknHV+rTIs5PQIAABUu0sZcdhIWXfEfLwXdzktht1cKu4/Hb128lMz24rcuXkpme/FbFy8ls734rYuXKnt7pbD7ePzWxUvJbC9+6+KlZLYXv3XxUjLbi9+6eKmyt1cKu4/Hb128lMz24rcuXkpme/FbFy8ls734rYuXKnt7pbD7ePzWxUvJbC9+6+KlZLYXv3XxUjLbi9+6eKmyt1cKu4/Hb128lMz24rcuXkpme/FbFy8ls734rYuXKnt7pbD7ePzWxUvJbC9+6/ySx29dvOTxWxcvJbO9+K2Llyp7e6Ww+3j81sVLyWwvfuvipWS2F7918VIy24vfunipsrdXCrpPo0aN7IorrrDjjjvO6tev7/abOnWqDRo0yObMmWPbtm3z3U9J/JbHSx6/dfFSMtuL37p4KZntxW9dvFTZ2yuF3cfjty5eSmZ78VsXLyWzvfiti5eS2V52WkePAABARVKPgFWrVlnz5s2tbt26rkeAjifl9QjQlRxq4db2QakbaNeuXd2JYBDKQyeFYfLQ1SbavmbNmpEl5UtFHnPnznX7qOxBpWM5ksmDmBPzRIg5MQ+CmBPzRIg5MQ8ibB79+/d3V8wOGTIksiQxYp7ZMedzXrkx12/OUaNG2QcffGBr1651y3RVtnoGdOjQwdVtRiPmmR/zdHytMi3m9AgAAAAAAAAAkDFUwdmvXz8755xz3LC08u2337rht7766itXeQpgRzQEAAAAAAAAAMg4vXv3tvPOO8+aNWvm7mt4oCeffNLNybFx40a3DMB2NAQAAAAAAAAAyEhqCLjwwgutRYsW7r4mcH366afts88+cxO5AtiOhgAAAAAAAAAAGeuss86yvn37WsuWLd395cuX2zPPPGMfffSRrV+/3i0DqjoaAgAAAAAAAABktJNPPtkuu+wya926tbuvSYQ1Qfe7777rJk8FqjoaAgAAAAAAAABkvOOOO86uuuoqa9u2rbu/adMmGzp0qL311lu2Zs0atwyoqmgIAAAAAAAAAJAVunXrZtdee621a9fOqlWrZtu2bbMRI0bYqFGjbNWqVZGtgKqHhgAAAAAAAAAAWeOQQw6xG2+80dq3b281atRwy15//XXXILBixQp3H6hqaAgAAAAAAAAAkFU6d+5sN910k/ufk5Pjlr3xxhv2/PPP27Jly9x9oCqpcVcp3Vi5cqXVqlXLatas6VrKlKpXr+660MQmT/RtAABE4y5u3LjRcnNzy44lomNGSUnJTqm4uNiKiorcf22v/0HSggULrHnz5u7Y5bc+NikPdQkNk8fmzZvdcVH81semVOShCa8KCwutWbNmvuv9UjqWI5k8iDkxT5SIOTEPkog5MU+UiDkxD5LC5jFhwgRbtGiRnXvuub7r/RIxz+yY8zlPj5g3atTI9t9/f1u4cKGtXr3aLZs9e7abPHivvfayvLy8nfbxEjHPzJh7KRV5ZFrMq5WoFqbUjBkzrF69elanTh0XNLWUKQNV3MQ2CHiibwMAIDqpWrJkiTVu3NidVNWuXdsdT3QQindM0YFThyM1HgQ1efJk69Chg9WvXz+ypHzKQwe+MHkUFBS446J3AE0kFXksXrzY7aOyB5WO5UgmD2JOzBMh5sQ8CGJOzBMh5sQ8iLB5DBgwwJX98ccfjyxJjJhndsz5nKdXzNUQN2zYMJs2bZqbQFg0l8All1xirVq1Mr86TmKe2TFPRR6ZFnMaAgAAFUoNAeplphbx6IYAHVfiHVO8A5u2D+qTTz6xLl26WMOGDSNLyqc81IoeJo/169e77cMcoCs7j3nz5rl9VPag0rEcyeRBzIl5IsScmAdBzIl5IsScmAcRNo+HHnrIJk6caIMHD44sSYyYZ3bM+ZynX8w1UfDIkSPts88+sw0bNrjlhx9+uF155ZXWpk2bst7sHmKe+TGv7DwyLebMEQAAqHBehb8aAIIkbRtmeyWp7DyS2T4Veej19VsXL6VrOcLuQ8z91/uldC1H2H2Iuf96v5Su5Qi7DzH3X++X0rUcYfch5v7r/VK6liPsPsTcf71fStdyhN2HmPuv90vpWo6w+6RrzJs0aWLXXHONnXzyydagQQMXnylTptgTTzxhc+fOdb3UY/eJvp8oaXti7r8+NiWTRzLbpyKPTIo5DQEAAAAAAAAAsp6GV7nqqqvsjDPOKLt6XcMFadgujZayZcsWtwzIRjQEAAAAAAAAAKgSdGX0ZZddZuecc46b206+++471zPgyy+/dBOtAtmIhgAAAAAAAAAAVUqfPn2sV69e1rRpU3dfwwMNGjTIzeexceNGtwzIJjQEAAAAAAAAAKhyzjvvPLvooousefPm7v7ixYvtqaeesk8//bRsQmEgW9AQAAAAAAAAAKBKOuuss6xv3762xx57uPsrV660wYMH29ixYy0/P98tA7IBDQEAAAAAAAAAqqxTTjnFLr/8cmvVqpW7v379ehs2bJi9++67tm7dOrcMyHQ0BAAAAAAAAACo0o477ji76qqrrE2bNu5+YWGhDR061EaNGmVr1qxxy4BMRkMAAAAAAAAAgCrvqKOOsuuuu87atm1r1apVs5KSEnvhhRds5MiRtmrVqshWQGaiIQAAUCl0wlRcXBw4hd0+FXmE3V4pFc9J/NbFS+lYDqWw+0hlP69UlCOZ7cVvXbyUjuVQCruPVPbzSkU5ktle/NbFS+lYDqWw+0hlP69UlCOZ7cVvXbyUjuVQCruPVPbzSkU5ktle/NbFS+lYDqWw+0hlP69UlCOZ7cVvXbyUjuVQCruPVPbzSkU5ktle/NbFS+lYDqWw+0hlP6/KLMfBBx9sN954o+21115Wo0YNV55XXnnFXnzxRVu+fLnvPkp6fPFbFy9VZjm8lIo8pLKfVyrKkcz24rcuXtqd5ahWusI94xkzZli9evWsTp06VqtWLcvJyXFvdrV+Va9e3f33kif6NgAAMnv2bFu2bJk1adLE8vLyrHbt2u44ouNKvGOKulzqcJSbm+vuBzFhwgTr1KmT1a9fP7KkfMpDB74weWhiKJXBO/lLJBV5LFq0yO3TsWPHyJLE0rEcyeRBzIl5IsScmAdBzIl5IsScmAcRNo/HHnvMJk2aZAMHDowsSYyYZ3bM+Zxnfsy//vpr1xtAv3GLiorcspNOOskuvPBCa968ubsfjZjzOQ9id5aDHgEAgAqnSv1IO3PGS0U5wuSR7PNJt3KkM2IeHDEPjpinF2IeHDEPjpinl2x5rYh5cOn2WiX7fIh5cJVdDvUIuOaaa6xLly7uAjf58MMP3bwBuvgtFjGvfOn2WmVazOkRAACoULpaQmMn6gqJunXruhMmHU/K6xGwefNm18Kt7YMaM2aMde3a1Ro1ahRZUj7lsW3btlB5rFu3zm1fs2bNyJLypSKPuXPnun1U9qDSsRzJ5EHMiXkixJyYB0HMiXkixJyYBxE2j/79+7srZocMGRJZkhgxz+yY8znPnpivXr3annrqKZsyZYpt2rTJrevevbv97Gc/s5YtW5b9riXmfM6D2J3loEcAAAAAAAAAAPho0aKFXX/99XbMMceUVcaOGzfOBgwYYAsWLHCVtEAmoCEAAAAAAAAAAOJo2LChGyZIcwRoRBVRDwHN/6Fe8Vu3bnXLgHRGQwAAAAAAAAAAlEOTtV599dV2+umnW4MGDdwyTSisngHTp08vm1AYSFc0BAAAAAAAAABAAprz7oorrrBzzjmnbDz8mTNn2hNPPOEaA7Zs2eKWAemIhgAAAAAAAAAACOjiiy+2Xr16WZMmTdz9efPm2QsvvOB6CGzcuNEtA9INDQEAAAAAAAAAEIIaAi666CJr1qyZu798+XJ75ZVX7JNPPrENGza4ZUA6oSEAAAAAAAAAAEI6++yz7ZJLLrHmzZu7++vWrbOnn37aPvjgA8vPz3fLgHRBQwAAAAAAAAAAJOGUU06xK6+8sqxnQEFBgQ0ePNjefvtt1zAApAsaAgAAAAAAAAAgSccdd5ybN8BrDCgqKrIhQ4bYqFGjbO3atW4ZsLvVuKuUbqxcudJq1aplNWvWtBo1arikmbCrVau2U/JE3wYAQNasWeMmR8rNzXXHFB1LRMeMkpISd1v/o5NOkoqLi932sevipfnz51uLFi3csctvfWxSHtu2bQuVx+bNm9323nNPlFKRh64o0T7qeuq33i+lYzmSyYOYE/NEiZgT8yCJmBPzRImYE/MgKWweEyZMsEWLFlnPnj191/slYp7ZMedzXvVirt/AjRo1shUrVrg5ArRMkwfrf7t27ax27do7bK9EzDM75pn2Oa9W+sfVysyYMcPq1atnderUcUHLyclxjQHaIbZBwBN9GwAAmT17ti1evNiaNGniToR0sqPjiXcQ8jumbNmyxR2UdAwKasqUKdahQwd37ApCeaixIUweOnnT9nr+QaQijyVLlriupvvvv39kSWLpWI5k8iDmxDwRYk7MgyDmxDwRYk7Mgwibx+OPP26TJ0+2AQMGRJYkRswzO+Z8zqtuzPXb9qmnnrJ58+a5Clw59dRT3eTCTZs2dfc9xDw7Yp4pn3MaAgAAFUoNAeplpi6ReXl5ZQ0BOq7EO6YUFha6A5u2D+qTTz6xLl26WMOGDSNLyqc8dBIWJo/169e77dWIEUQq8tDJpPZR2YNKx3IkkwcxJ+aJEHNiHgQxJ+aJEHNiHkTYPB566CGbOHGiGzc8KGKe2THnc161Yz5nzhwbOHCgzZw5013RLSeffLIbPkhXj3uIefbEPKjdWQ7mCAAAVDivwl8NAEGStg2zvZJUdh7JbJ+KPPT6+q2Ll9K1HGH3Ieb+6/1SupYj7D7E3H+9X0rXcoTdh5j7r/dL6VqOsPsQc//1fildyxF2H2Luv94vpWs5wu5DzP3X+6V0LUfYfYh5DXeF+M0332xdu3Z1F11r+YcffujmDdCFc9H7eLeDpFSVI+w+xNx/vV/aneWgIQAAAAAAAAAAKlDbtm3txhtvtCOOOKJsWJexY8e6ngJLly51QwgBqURDAAAAAAAAAABUMA0DdMMNN9gxxxxTNrTL+PHj7dFHH7UFCxa4IV+AVKEhAAAAAAAAIARvOAgASKRBgwZ2/fXX20knnVQ2me7UqVPtkUcecXMJbN261S0DKhsNAQAAAAAAACFomA81BgBAELVr17ZrrrnGTj/9dNcwINOnT7ennnrK/d+yZYtbBlQmjloAAAAAAAAh6AremTNn2qZNmyJLAKB86kV0xRVX2Nlnn20NGzZ0y9QjQHMGqIfA5s2b3TKgstAQAAAAAAAAEFBxcbF9+umndu2119rs2bMjSwEgmL59+1qvXr2scePG7r7mClBjgOYOoHERlYmGAAAAAAAAgIAWL15sgwYN4updAEk7//zzrXfv3takSRN3f9myZfbkk0/axx9/bBs2bHDLgIpGQwAAAAAAAEAA+fn59txzz1mNGjWsbt26kaUAEJ6GCFJjQLNmzdz9NWvWuDkD3n//ffddA1S0aiWldGPGjBlu5mpNeFOrVi3LyclxBzaNX+XNhu8lT/RtAABE3aOXL19uTZs2dT+OdEzR8UTHlXjHlMLCQtfFOi8vz90P4vPPP7fOnTuXja2YiPLYtm1bqDzWr1/vtq9Zs2ZkSflSkYe6jWqfAw88MLIksXQsRzJ5EHNinggxJ+ZBEHNinggxr1ox1/loUVGROxfNzc2NLP1R9Hmr5gUYPny4vfnmm25YoL/85S/2v//9z8VRz1GPEc8jjzxiEydOdJV8QRHz9CpH2Dz4nBPzILT9lClTbOjQobZq1Sq3TL+fL7nkEjv11FNdXW00Yp4dMd9d5aAhAABQodQQMGvWLPdDyjum6HiiA5B3TJHoY4p+VImOPUEtXLjQmjdvbrVr144sKZ/y0CEvTB5btmxxz9t7zomkIg8d0HUioLIHlY7lSCYPYk7MEyHmxDwIYk7MEyHmVSfmOhfVOauSttU5ayxto/NZPd7XX39tf/jDH+zOO+90+9x6662uIaBjx462cuXKcofzUCXfV199Zf/85z8jSxIj5ulVjrB58Dkn5kF4eUybNs2ef/75ssYAOeecc+zEE0+0+vXrR5YQ82yK+e4oR427SumGDlrewU0HPyVt7FXURCdP9G0AAETdGTW+oQ5SOo54Bx4dM3TwEv2PTrp6Sv+9bYKkgoKCsh9tfutjUzJ56IAb9PGVUpGHTjJ0NYAaWfzW+6V0LAcxJ+ZBEjEn5okSMSfmQRIxJ+bxkuo/NFmnKtkUC9WJxCbvnFbDdPzrX/+yQw891C688ELXA/btt9+2M8880/WEVSOA4uqXj5IaAXSOfNJJJ/mu90vEPL3KETYPPufEPEjy8thjjz2sbdu2Nm/evLJGxe+//95V6LZq1cpVsGt7Yp49Mfdb55cqshz0CAAAVCj1CNBVDGoR19BAOmHR8UTHlXjHFE20poNbmHFWx4wZY127drVGjRpFlpRPeegAHSaPdevWue31IzGIVOQxd+5ct4/KHlQ6liOZPIg5MU+EmBPzIIg5MU+EmFe9mOvcVZX08eixpk6davfff7/de++9rvFA57xqGPjNb35jRx99tGsMKE///v1twoQJNmTIkMiSxIh5epUjbB58zol5ELF5qH72scces/nz57vnK2eddVbZxMLEPPtinkhFliNYHwQAAAAAAIAspAosDfkTLw0cONDmzJnjKuHuu+8+t+yhhx5yPWH1X/sDQEXo1KmTG3asQ4cOZUPBaF6SZ555xo3mAuwKGgIAAAAAAECV1atXLxs5cqS98sorvumee+6x22+/fYdl//nPf9xQHvp//vnnRx4JAHbdvvvua7fccot16dKlbMz9Dz/80J588klbsWKFuw8kg4YAAAAAAABQZWnIBY2nDADpok2bNvaLX/zCDj/8cDeMu3zyySc2aNAgN0eJhtYFwqIhAAAAAAAAVFlqBNCEnGGoYq59+/ZlFXQAUNGaNWtmN910kx1zzDGWl5fnlk2aNMkGDBhgCxYscI2Y6cKbDxDpjQgBAAAAAACEsN9++9njjz/u/gNAZalfv75df/31duKJJ5ZNFjtt2jR75JFHbNasWVZUVOSW7W5qFFXaWLjNpi/c4JJuI73QEAAAAAAAABCCehGUlJRE7gFA5dE8Adddd52dfvrpVq9ePbdsxowZ9uijj9r06dND92iqDC1atHCTG3/2/To7+59T7ax/TLWx362NrEW6oCEAAAAAAAAghA0bNqTVsBwAst+VV15pZ555pjVo0MDdnzNnjhsmaMqUKbZ582a3bHfRc9pWbPbWl6sst1YNy6lZzV6ZuNyKttJgmk5oCAAAAAAAAACANNenTx8799xzrVGjRu7+woUL7YknnrBx48bZpk2b3LLdQXMYLFxdaGOmr7aj9m9gx3RoZBNnr7cFq3ZvAwV2REMAAAAAAAAAAGQANQSoQaBx48bu/ooVK2zQoEH28ccf28aNG92yVMupVcsmzF5ny9ZusRM7N7EzDmlqS9YU2gffrDZGUUsfNe4qpRsrV660WqVBq1mzptWoUcMlzfasWZ9jkyf6NgAAsmbNGnfykZub644pOpaIjhneOKr6H500xmpxcbHbPnZdvDR//nw3DqGOXX7rY1Myeah7pbb3nnuilIo81q1b5/Zp3ry573q/lI7lIObEPEgi5sQ8USLmxDxIIubEPFFKRR4TJkywRYsWWc+ePX3X+yVintkx53NOzIOkZMvRqVMndxW+JgxWTwA9zldffeUmFG7duvUO5azM10r0uJuLSuxfr821dZu22q1ntrO9muXaG1NX2qJVW+zsw5tZnZzqbns9rv4T891Tjmqlf1zUNMmEJpzQDM/6oGqCBzUGaIfYBgFP9G0AAGT27Nm2ePFia9KkiWsM0MRGOp54ByG/Y4omN9LhSMegoDQO4v7772/169ePLCmf8tDBM0weBQUFrgx6/kGkIo8lS5a4fVT2oNKxHMnkQcyJeSLEnJgHQcyJeSLEnJgHETaPxx9/3CZPnuzG8w6KmGd2zPmcE/MgdrUcn332mT377LO2atUqd1+/sXv37m2nnnpq2etfma+V6o/1m3/Gog3W+3/T7PB9Gtjj13Zy637x5Lf2/rTV9vQNB9pPOzVyj6skqYhHKvLItM85DQEAgAqlhgD1MmvWrJm7QsFrCNBxJd4xpbCw0B3YtH1Qn3zyiXXp0sUaNmwYWVI+5aEJ3cLksX79ere9GjGCSEUe8+bNc/uo7EGlYzmSyYOYE/NEiDkxD4KYE/NEiDkxDyJsHg899JBNnDjRBg8eHFmSGDHP7JjzOSfmQVREOdTjaODAgW6IoEg1r1144YXWo0cPF4PKfK22jwBQzR7/YKHdNWKO/avf/nbZca3cutcmrbDrB82wy0vv/7XPflajdFM9PyVivnvKwRwBAIAK51X4qwEgSNK2YbZXksrOI5ntU5GHXl+/dfFSupYj7D7E3H+9X0rXcoTdh5j7r/dL6VqOsPsQc//1fildyxF2H2Luv94vpWs5wu5DzP3X+6V0LUfYfYi5/3q/lK7lCLsPMfdf75cqohw/+clP7Oabb7aWLVu6+3oOL730ko0cOdLy8/N989CFeLHLvOSXR7ykvPI3b7XXJq+0Fg1qWff9f2z8OWyf+ta2SR17/+vVtnD1Zret97hh8vBSMtunIo9M+pzTEAAAAAAAAAAAGeqQQw6x22+/3dq1a+cqfOXVV1+1YcOG2dq1a919j64u13wCFeWbhQX23eIN1qpxbdtQuM0NE6S0ZsNW26t5HVu4arN99v1ai3RWwG5EQwAAAAAAAAAAZLCOHTvabbfdZh06dHBD88pbb71lzz33nK1evdrd17A8mmBY85Zoottdta24xF6fvNIKNm+zWUs32kUPfGXn3veFS+ff/6V9MTffqler5noMbNiyLbIXdhcaAgAAAAAAAAAgw+277752yy232EEHHeTmgJWPP/7YBg0a5Oby0+S2jz32mPs/YsQI1ztgV6zML3JX+zetn2P9jm1pV53QZod0xU9b2Z5Na9uk2ett2vz8yF7YXWgIAAAAAAAAAIAs0KZNGzdnwBFHHGF16tRxyz777DN75JFH3MTls2fPdss0dJB6B8SzuajYXem/dsNWV+Gv/7q/ZWtxZAuzKT+stznLNtkJnRvbnRfsa78/b+8d0v/12tfOOby52089B9SDQDSuPlKPhgAAAAAAAAAAyBLNmjWzX/ziF3b00Udbbm6uWzZp0iT7+uuv3W3Po48+agUFBZF75sb4X7Zui81Zvtne+XKlPf/5Uhvw/kL796i57v8Lpfe/nF9gxcUlVrRNwwKtsOKSEjvzkKZWs/rOlfuq7+9xWHNrlFfTPv1ura1Yv8Ut12S2SD1edQAAAAAAAADIIvXq1bObbrrJDj/88MiSnc2ZM8dee+0121S41RatKbSRE5fbPa/Mt74Pf2fXPD7D/jBslv3njXn25OjF7v/vS++/PXWlbSwsdpMAT5i93vZqlmuH7t3AzT/gZ7+WedalXT2buWSjjf12+6TBagigV0Dq0RAAAAAAAAAAAFmmqKjI9tlnn8g9f88Of9VGTV5qtw3+zm5/5nt7bfIqy9+8zZrUy7FWjWpb2yZ1bK9mddx/3W+QV9O2Fhfb90s2Wt3aNeyMQ5paq8a1bfOWrZFH3FG9OjXswu57WPuWefbV/ALbFqfBAJWPhgAAAAAAAAAAyCIbN2609957z4YMGRJZsrMt1eva4rrd7KanZ9uY6Wusfp0a1qZxbTuhU0O74dS2dvdF+9r9l3ewJ67t7P7rvhoIFq/ZYqd2aWpj/nyE/V+vfWzthiL79Lt1blghP31+soeNvesIu6d3ezeEkCYpjteDAJWHhgAAQKXRgb2yUmU/fjqnqlr2qlpupapa9qpabqWqWvaqWm6lqlr2qlpupapa9qpabqWqWvaqWm6lqlr2qlpupXQq+/Tp023o0KHuOflRI8C8Bifa4rpHWDUrtpxtBXbeEc3s3ov3tutP2sOO79TI9mpexxrl1SjdusT91/0ue9a13FrVLH9zkW3asn1OgSFjl9gdz82yO4fPLr1f6Pt8opPXEJANSfyWp2OqVvrHPeMZM2a4saM0m3StWrUsJyfHatSo4cZr8sZt8pKHsZwAALFmzy498C9bZk2aNLG6deu6Y4qOJzquxDumFBZuP1HwJjEKYvz48dapUydr0KBBZEn5lEdxcXGoPPLz8932NWvWjCwpXyryWLhwodtHZQ8qHcuRTB7EnJgnQsyJeRDEnJgnQsyJeRBh89CEnJqoc9CgQZEliRHzzI45n3NiHkRllkPbDh482CZPnmzr1693wwR5tlbPtbkNT7HVuR2teslWyy1aYXtsmGx3//o69zteeaiOOIhZyzbZg2/MtoXrq1lhUYmde1hTu+eiva1x3fhlIua7pxz0CAAAVDivtTnS1rzD/XhJBza/5fFS0MeNTmHzCLu9UiryCJvStRxh9yHmwVO6liPsPsQ8eErXcoTdh5gHT+lajrD7EPPgKV3LEXafqhrzVJRbKR1fq1SUPV1fq7ApXcsRdh9iHjxVZjl0Ud4111xjv//97+3II4+0Fi1auIrhYqvhhgNSI4B6AjQonGdt139sdYpW2ciRI23z5s1uf+UTJO3bvLb1O8Sse/u6VrNGNXttyip7+N2FrrdA7HOKTtrXb3m8FHZ7pVTkETbtznLQIwAAUKHUI2DVqlXWvHlzdyVB7dq1E/YI0ImGDlTaPqgxY8ZY165drVGjRpEl5VMe6n4YJo9169a57YO21Kcij7lz57p9VPag0rEcyeRBzIl5IsScmAdBzIl5IsScmAcRNo/+/fvbhAkTyh2rOxYxz+yY8zkn5kGkshwLFixwPQQ+nVlgX9bt4dbVLVphexWMsRrFm9196dmzp3Xr1q3sCnTlV7Sl0HJqbf9t72fKlCm2x5772r/fWm5fLyhwy4bfdrCd0Lmxux2LmO+ectAjAAAAAAAAAACy2D777GO/+f2dVr3Dee5+bk2z1hsm7tAIIG+88YYbWmbViuW2YN4P9vWXk+y9N191/3Vfy/00qFPDbjqtrdUr/S+PvLvQNhZuc7eRHmgIAAAAAAAAAIAsN3r6Gpu6aHvl/PH75dieTWq4EWKibdmyxYY/P8we+Nfd9vOfX21XXXml3XXP391/3dfy+XN/iGy9o/1a5tm5hzd3tz+avtrlh/RBQwAAAAAAAAAAZLm3vljp/ufWqm4/O72j/fKXv7QzzjjDmjZtanl5eW7d5o0bbMjTT9iHXyyyLQdda416PGhNLhrs/uv+6C8W21VXXGILF8x328fqeURz9/ji5Yf0QEMAAAAAAAAAAGSxwqJi+3j6Wne7234NrUm9HDdX7NFHH23XX3+9nXDCCVajmtnXX0y0nE69rO4Jd1rNZh2sel5Tt4/+637eCX+0zW1PsV9cf7WtWb1zRb8eV48vyk/5Ij3QEAAAAAAAAAAAWUyT+C5dV+huH7lvA/ffox4Bp5xyitUsLrCSZgdZbudekTX+tH5V9Vb26AP3RpbsyHt85edNHozdj4YAAAAAAAAAAMhiS9duidwya79HbuTWj7Zt22bjP/3YcvY/PbKkfDX3P9veeu0l27xpU2TJj6Iff0lUvti9aAgAAAAAAAAAgCy2LNIbQJrWrxW59aNVy5fZ6uWLrXrdPSJLylez6f62ZWuxTRr3SWTJj6Iff3lUvti9aAgAAAAAAAAAgCy2btO2yC2z+nVqRG79aMmShe5/jdxG7n8QdZrsabO/nx6596Pox4/OF7sXDQEAAAAAAAAAkMWa18+J3DJbVVAUufWjffbrYDVr5lhxwfLIkvKVbCu0zavmWvfjTows+VH047eIyhe7Fw0BAIBKUVJSYsXFxZWWxG95tie9rpX92qZrIub+67M5EXP/9dmciLn/+mxOxNx/fTYnYu6/PpsTMfdfn82JmPuv392pRcMfK+SXrd280/p69RrYnvseYFtXz4lsVb6iRZOsabPmtn/Hg9z96LLr8T3KNzqfbEqZ9jmvVvpkSxSUGTNmlAa8ntWpU8dq1aplOTk5VqNGDatWrZpVr17d/feSJ/o2AAAye/ZsW7x4sTVu3Njy8vKsdu3a7nhSs2bNuMeUwsJCd/DMzd15wqJ4pkyZYvvvv7/Vr18/sqR8ykMHvjB5FBQUuOOinnsQqchjyZIllp+fbx06dIgsSSwdy5FMHsScmCdCzIl5EMScmCdCzIl5EGHzePzxx23SpEnuf1DEPLNjzuecmAeRynLMWVlkPe7/1rZuK7Erj2tu5x3eJLLFjwYP+J89++JrlnvqP6x67QaRpTsrLlxvm977nV160bl2xXW32nfffWd77rmnqwOQVyavtqfHrrCaNarZ67d3tA4td3y+xHz3lIOGAABAhVJDwIoVK6x58+Y7NATouBLvmLJ58/arEerWrevuB/HJJ5/YQQcdZI0aBRu/UHls27YtVB7r1q1z2wc9QKcij3nz5tn69eutS5cukSWJpWM5ksmDmBPzRIg5MQ+CmBPzRIg5MQ8ibB4PPfSQTZw40QYPHhxZkhgxz+yY8zkn5kGkuhzH3z3Fvl+y0bq0q2f/uLi91fAZK+bnfXva7K1trFbni8xq1bVqNWpH1mwfDsi2bLAt00fYfrUW2RNDX3HLv/zyS2vfvr2rW95WbPa752fbtPkF1qFVno3502Fum2jEfPeUg6GBAAAVTpX9SmoAqKwkfsuzPXkNKX7rsj0Rc//12ZyIuf/6bE7E3H99Nidi7r8+mxMx91+fzYmY+6/P5kTM/denQzrt4KYuPqqkX7h6i+82A5592bo0LrCcbwbZ1gXjrHj9YivZuNL9130t79psoz35/Otl+4jKr9t6XD2+KD9vm2xMmfY5pyEAAAAAAAAAALLcGYc0tbq1t1fcP//5UtuydfucDrH+/dBAu+TsY6z18tetzud3Wt6X/3P/dV/L+z/+TGTLHenx9LiifJQf0gcNAQAAAAAAAACQ5bq1b2i9urVwt0d/s8YmzF5v24rdqPE7ueznv7DnXv3Q/vngQOt7YQ/3X/e13E9xSYl7PD2uKB/lh/RBQwAAAAAAAAAAVAHXntzWmtTLcbcfeXehzV2xKW5jgBx0yOHW98rr3f94tPv8VVvc44keX/kgvdAQAAAAAAAAAABVQMfWeXbn+ftag9yatmL9Fuv/9gKbvWxT3GGCEtF+i9ebPf7RCvd49Usf987z93H5IL3QEAAAAAAAAAAAVUS/Y1vatae0cZX23yzcYHeNmGOfz1xnazduLbd3QDRtp+213zNTzb5dvMk1Llx7cpvSx28V2QrphIYAAAAAAAAAAKhCftNjb7v2pDbWuG6Ou5L/ry//YI++u8C+XbLJ1mzYahsKt1nR1uKyhgH9130tX11QZDMWbXDba791m8wa5W1vBPjtuXu77ZF+aAgAAAAAAAAAgCrmtz33tjsv2MdaN65tebVr2IffrLHfPDfH/v3GIhs5Ybmb/PfbxRtt8epC91/3tfzvr8y1Xz7zvdte+zXNM/v1Wa3sNzQCpDUaAgAAAAAAAACgCrr02Fb2/K0H28U/aWl7NKxl9evUsBmLN9ngj5e4IYNuG/ydXfHoN+6/7mv5NwsK3LBC2l77/d+JZhd1axJ5RKQrGgIAAJWmpKSk0lJlP346p6pa9qpabqWqWvaqWm6lqlr2qlpupapa9qpabqWqWvaqWm6lqlr2qlpupapa9qpabqVMLfsBrXLt3r7tbeB1neyqE/awQ/fKs1aNalnzBjnWpF6OG/ZH/3Vfyw/fp75de1Jrt73227MRMc+EVK30j3vGM2bMsHr16lmdOnWsVq1alpOTYzVq1LBq1apZ9erV3X8veaJvAwAgs2fPtmXLllmTJk2sbt267pii44mOK/GOKYWFhe6glJub6+4HMX78eOvUqZM1aNAgsqR8yqO4uDhUHvn5+W77mjVrRpaULxV5LFy40O2jsgeVjuVIJg9iTswTIebEPAhiTswTIebEPIiweTz66KM2adIkGzRoUGRJYsQ8s2PO55yYB5HOMZ+/psRW5BfZyvyttnpDkTWpm2PN6te05vVz7IDWeZGttyPmmRFzegQAACqc19qsg5X3v6KTl4/fumxO0a9tVUvE3H99Nidi7r8+mxMx91+fzYmY+6/P5lRVY15Vy61UVcvO55yYZ3rav2UdO3r/+nbuYY3tyuNauP+6r+Wx2xJz//XplugRAACoUOoRsGrVKmvevLnrEVC7du2EPQI2b97sDkraPqgxY8ZY165drVGjRpEl5VMe27ZtC5XHunXr3PZBW+pTkcfcuXPdPip7UOlYjmTyIObEPBFiTsyDIObEPBFiTsyDCJtH//79bcKECTZkyJDIksSIeWbHnM85MQ+CmBPzRCqyHPQIAAAAAAAAAAAgi9EQAAAAAAAAAABAFqMhAAAAAAAAIASGSgYAZBoaAgAAAAAAAELIy8tz82ABAJApaAgAAAAAAABIQBM2Llq0yKVly5bZ4sWLbenSpW4SRwAA0h0NAQAAAAAAAAl8/PHHdsYZZ1i/fv3s0ksvdelXv/qVrVu3LrIFAADpi4YAAAAAAACABGbPnm1HHHGEvfXWWzZ69GiXhg4dak2aNIlsAQBA+qIhAAAAAAAAoBwlJSWuIaB169aWm5sbWQoAQOagIQAAAAAAAFRp1apVi9zyt3HjRluyZIm7+l9zAyhpngDmBwAAZIpqJWrWLjVjxgyrV6+e1alTx2rVqmU5OTluBnwdDKtXr+7+e8mT6EAJAKh6dKWUfhQ1bdrU8vLy3DFFxxMdV+IdUwoLC91VVmGurho/frx16tTJGjRoEFlSPuVRXFwcKo/8/HxXBj3/IFKRx8KFC90+KntQ6ViOZPKoiJgnOndZv369K0fNmjUjS8qnPFQBoH2CCpvHggUL3OvbuXPnyJLE0rEcyeQxbtw4F/OGDRtGlpQvXctBzIl5IsScmAdBzCu+HDov0DY6X5DyttekwJdccol7bNWdiM5J/vnPf9oBBxzgznG3bt3qnqufRx55xCZNmmRPPvlkZElixDy9yhE2Dz7nxDwIYk7ME6nIctAQAACoUGoImDJlijuORB9PvAOQd0wR778ORbHHmES2bNniHlOPF0TkcBcqD/0oDPO8UpGHTgC0j17XoNKxHMnkQcyJeSLEnJgHQczT67Ui5sQ8kcoshy4W2HPPPd1V/om2/e677+yOO+5wjQF9+/Z1y5599ll7+umnXeV+mzZtXC8BXbTh55VXXnH1Lr///e8jSxIj5ulVjrB58Dkn5kEQ8/QqR7bHnIYAAECFUkPAokWL3A8q/biqXbt2WUNAvGOKThp0ONIxKKipU6fafvvtZ/Xr148sKZ/y0MEwTB4FBQWuDEGvck9FHuqSrn3233//yJLE0rEcyeRBzIl5IsScmAdBzIl5IsS8asRc56F6TNV9aHtdPRmPzmf9GgtWrlxp/fr1swsvvNCuueYaKyoqss2bN5dV2kR7/PHH7f/bO5PvqootDm9EBEmU0IQ2SCMSGjUJAexQQPJ0wXq6GDp14p/hekNnuhYDlwNHDJw9cQmPgIJEREJIRJA2NAYQDJCgUXoEXr7yViwO5zbnchPCvb9vvXpJzqlzTlXtOvfib+/a1dbWZp988knqSHZk88HVj6TP0Hsum+eCbC6bZ6OQ/ZAjQAghREHBEdDd3W2VlZVWVlbW5wjgeyXddwr/wcQXG/VzpampyWpqaqyioiJ1JDM8A299kmf09PS4+jgxcmEgntHR0eGuoe+5Mhj7kc8zZHPZPBuyuWyeC7K5bJ4N2bz0bP7ZZ59lFOjr6urs/fffd0L/uHHj3L9nkVLYN+C9996zhoYGe/fdd1O141mzZo21tLTY2rVrU0eyI5sPrn4kfYbec9k8F2Rz2TwbhexHbus1hBBCCCGEEEIIIYoQUv1s27Ytbfnwww9t//79Li2QT/1DQAv7YrEqIEkkqBBCCPGgkCNACCGEEEIIIYQQJQub/FIywUaQY8eOtc8//9ylgqCwAfCcOXOsvr4+VUsIIYQYvMgRIIQQQgghhBBCiJIFJ8D169dTf8WDEwDhv7m52d555x1XuO6DDz5weZiFEEKIwY4cAQEnTpywlpY2t1/C5cuXU0eFEEIIIYQQQghR6uAMYD8BcmFTPvroIzkBhBBCPDTIEZBi+/addvLkRRsyZKJduHDbtm5tsj/++CN1VgghhBBCCCGEEOJvbt++nfpNCCGEeDiQI6CXM2fO2LVrd6yqaqFVVEyxSZPm25gxs621tc1tBHTx4kW7evVqqrYQQgghhBBCCCFKmT///DPrvgJCCCHEYKLkHQE3b960U6dO2YgRo1NH/qa8fJxdunTFOQmOHj1q+/btcymD+LLvby5dumQ//vijbdy40datW+fK+vXr7fvvv7cLFy7YnTt3UjUHDp557tw514Yvvviir12NjY22d+9eu3LlSqpmfnR2drr78fNBcu3aNdu0aVNf/+LK5s2bXRqpW7dupa7qPwbLuOQDc4b3Z8uWLX1jxzzeuXPnfb9Hflza29tTR8zZ4+eff9ZKHiGEEEIIIYQQQgghIpS0IwAx8cCBA0787ek5kzr6N/w9deoUe/rpp23ixIk2cuRIJzAePHjQzp49m6pVWBBOac/XX39tp0+ftgkTJlh9fb0tXLjQpk2bZr///rvt2LHDdu/e7RwYAwWrIbZv3+4EXPZOeOaZZ2zx4sVWV1dnY8aMsY6ODvvqq6+cOF4sDBs2zGpra10/wzJv3jxnJxxDP/300wNxyjwMEBnT2trq5irv15QpU2z69OlWUVFh58+ft61bt7o5XkiOHz9u+/fv1xJdIYQQQgghhBBCCCEilKwj4NixY3by5Em7fv26TZ061SorR9nx499YZ+dBO3Vql9282WXz58+zcePGORF+7ty5vXUq3bUImIjehRbjaROrD6qqqmzlypW2YMEC1zb+fu655+zNN990bcERQeTzQEAff/jhB/vtt9+c8N/Q0ODE8MmTJ7u2II5zDEcJTgycFcXAo48+6hxA9DMss2fPtuXLlztBm5UkjIu4F5xsrAZA/F+1apUtWrTIOVaWLFlir7/+upsvOFLyXRmAbVavXu3sIQY3OMv6q/T3/Qdr8cSdK/ZSyv2GuHPFXkq53xB3rthLKfcb4s4VeynlfkPcuWIvpdxviDtX7KWU+w1x54q9lHK/Ie5csZdS7jfEnRuMZUjv/7lWk/amvLzcRowYYY899piLiB46dKgNGTLEHnnkEffTF0/4+8MEIjpRyYiRCO2IusAxhGx2/ed4HF1dXbZ7d5tdvnzFjQvicG3tc27c7geeS9T9E088YS+//LKzQRw4LojMJxIfQR7Buj8h9QqrIKqrq50zJB2kDSJKfs6cOWnHLhMIx83Nzfbiiy86kfdBQfR6U1OT+33p0qVp7erH5dlnn7VZs2aljhaewTIuSWlra3MOq1dffbXv/QrBkcZ8YQ4XSszHJkeOHEn7TDFwsDqDz1M+p/ic5fOM7xO+V9J9p/DZxtcRn7+5smvXLve59OSTT6aOZIZnsGIkyTNwVtEH2p8LA/EM9q7hmkyfyVEGYz/yeYZsLptnQzaXzXNBNpfNsyGby+a5kPQZH3/8sVs1/emnn6aOZEc2f7htrvdcNs8F2Vw2z0Yh+zH0P73wCwI3Yg3CMpUoUbEmFG0g/H2wQ+Q2YjUGQnRnYiLg4vzwlJWV2dixY23UqFGpI/dy6NARu3WrvPfaV23ixHm9A3up954nbNq05OJ3CCImmxIjLI8effd+BSHYhyhr0gZhHw8CGsJrS0uLE1gPHz7shDgcC9GJQl1WNfCSEpXt6zIWTBLPjRs33HnmwvPPP+9EvHRwLWmUomNHihicTKSIQThHqCXVEH0MnRjsi4BtELt927iOY4jx9MODOP7NN984G7KXwp49e1z0+fjx490c7u7udkI05+gbhfPR+8RBe1kpAoxzOkcLz2C/BlaMMGc8ufYXojajLvOUut4R5Mdl0qRJbv7iFOC+CK28fwjefh74cWHlCtdkquuhH/xjlDFknOLGm/eF1E/MDVas0F6cabQznC8hv/76q/X09LiUQLxXcWAT5g1zGbAZ840VMOFY4ZxhnwHuh+MN6CsptOgPc469K7AbY0qqKn7390nybojCwDzmS4e5hA38F090/nmwEe8OP73NcinYlXeQ9yXufLTwDL48kzyDL1zazzsUdz5aBuIZpKnjGj574s7HlcHYj3yeIZvL5tmKbC6b51Jkc9k8W5HNZfNcStJn8N87/DfQW2+9FXs+rsjmD7fN9Z7L5rkU2Vw2z1YK2Y+SWBGwd+8+++WXczZy5Fi7dKnbhg9/xFasWOb6lwTS5GzYsNHmzft3b9//EbTa2zfbkiUvZHQgZIL7kvsfwfi1115LK5ymAxMicCLO0oaZM2e6SUKqIURU0rJ4AZW6bO6LWMoLSvR+WJcURFwPiMTfffedE6G5R1J7s4Gw3xiW5yD44uygnQjIr7zySp+Q7CPfmXtMblYWMMERntmXIIy893U5Tx/oG23HEYETAQeAd0wMHz7ciZI8k81kX3rpJecwSEcuKwIYQ8Rz/hHH/byQnaS/oR28zbA//aVfpNBBqI6OC/sz0CYi6hHG6SM2A+riQKHv2JTx4l5xdQGbk1MfMTxad/78+e5Z4Fer8L7QftpKX2fMmOHGNw4cCowR9yTqH4dAuroe/mGMQzI67t4m2Jo9M8CPC/emncxVxhKb4IVlTKnPZ1eu74YoHDifsAlOKT7PsD3zJ9OKAOzBHE/y+ce8qKmpyXkFCM/gcyDJM3gfqM9czoWBeAZznWvoe64Mxn7k8wzZXDbPhmwum+eCbC6bZ0M2l81zIekz1qxZ44KT1q5dmzqSHdn84ba53nPZPBdkc9k8G4XsR3x4ZhFBZHJn5282e3aDVVUtsDlz/mXDhlU4wTMpiLe9/+slKojfn0MEY+KpQZBF8E0KkelMvKeeesqWLVvmcvcj+pKLndQcRFkj3AJCKXWJdkeY9nXJe49QSrQ0QjbgoKDPCMtJnQCAGMi9EFsRcInQZmUBzg4mMdHq3D8EoZB2I0zTRkRhPkS4l++Dh75xb/pNehnuhUCMgE56GIRqRF5E7RdeeMFdQ//vB+yEsMx9cCjg8fMk6S8R6VGb4fwgLRTjHp2fflxI0URd6tFP7sPKDQ/3R0yl/9g1XV3aySoU2s99fV3aQptwDOLECEHMxfHBedqaSdhH+Gf8Ed0Zr40bN9qGDRvcSglWNjDnCwVzE9GfFSIIzNgFJwzCc5J3QwghhBBCCCGEEEKIYqXoHQHd3RetvJyI33+E7FGjptr5892pv3IHkb6qaop1dh4IBN1jvfd/3Ino+YJIjECLlyYfwZ3oawRQop3D6xGPEdOJNCc6F/GViHkEXKKow7r0DYGUdiDUAstbIFcPVQjPxAmDQOsj5j0I+xxDpI2KsETS+6h58O3yfQjh3uGqDtpJLv0VK1bcI1IjhBNljkieCzyvsbHR1q1bd1dB0Ca6HEF54cKFfWOTtL8smaLtUZsxjxDnSQkUCvwI6+G40D/uSx0cByFxdbkvorzvP23lWhwuzBMPbaFv3qkSwj0yif8h3AdvKI4c+s7ftBMHCqsm1q9f71Y/+Peov8j13RBCCCGEEEIIIYQQopgpekfAyJGP240bfwvanqtXf7eysn+E0iTU19fZ448TFf657d37X/vrr05btGhB6mx+IK4ieMeJojgJNm3adI8g/eWXX7qULYi7iMuInfyNwBwW0uoAEeDURWAmwj9O0EUsR5xm+QhQLx2IxNE2UUglxHOInKfQJyLRwzYhQuOUQIimfyFxS4hoB+0ixU9IpvzuPJvnItoThU7ufETfXEEorq2ttcWLF7vihWTEcBwNdXV1d63eSNJfxge7cH009RCOBVZqUML7h8J+CPeKOgLi6tJ22uDrMh84xs+wrRTmEfOJuRLOyXRtyAT7CLCK4O2333bjRiof7Ml9Dxw44FZR9BdJ3g0hhBBCCCGEEEIIIYqZoncEEN1882aPnT273y5f7rbz549aV1e7zZw5PVUjGYiKixbVW3X1MzZ58kSrq3s+L4E0BPEXYR7hFTE5BAGcFDNEL/sSPs+Lygi85MYn52BYDh8+7OohgiO+EhEeRkZngjZRFxE1FIQBET5sE21kbDwI3gjPRFtH20Rh1QH3jIrYcfj2RuuGkewexnDbtm0ucp8NZMnDjwOBTYjj6qcDm3ANqYUopPhB0Ob+5MtnTEIK2d844vYqSEe6urSPwpzx84F0RdG2ki6Hejgu+Onxqx/yARviaCKFU0NDg0ufxDE29eU5/UGSd0MIIYQQQgghhBBCiGKm6B0BCOlLl75iV6+esdOnd1lZ2RVbvvw1l088XxAXiTRm04X7uY8HgZrIaZwA0ah3zpHjnuh0X8K89IizOAYQWVetWmWrV6+OLeSsR3hFrI+K+ukgcptCm6JiKZHxYZvYzDdcZcDvPvVNXHt8QWzPBmI0DoxMKwCA8WOzXFY0sCnuypUr3TPeeOMNJ0CHjop8IPc8ufERrhHLQ1G/kP3tb5gzOAtYcUCUflw7KWxYnI/4j5OE/QDYGyAdOFfYhJr3yKdLSoe3f1KSvBtCCCGEEEIIIYQQQhQzRe8IAETa0aMrbPz4sVZbW3Pf4j2pXyAU5O8XVi4gJJPKJknUONfQv3SCKnsCkI+dyGuEUYR9UqHERUFzHNEVkR+4Lzn7qUuu9SQgMvM89hkgMjsERwTperZs2XJPWha/L0EIwj7XIOhmgmu5Hzny2VeA9nuI2C9E5DmrH7A7kf/YypOkv16g9qmCorS1tbm6PnVNf+CfzwqHKPQNIZ/UPfngx4I9EaIrXDwI+4wTdUM7cTxchQD52i7JuyGEEEIIIYQQQgghRDFTEo6AkDjhMxe8oIkofvHiRRddXllZ6Y4VAnLjE22OCLtnz55Y4RNBGfGS/OYeovxJy4N4euLEibtEVATU9vZ2V4cVBwijCPvcm9zs4coAf4wVCES+e2bMmOH6eejQoXuu8XDtkSNH7nIuIDQT/d7V1XXPprM+hz4R/tQLQZQNRVt+57msvmAj3kxgE/rKGITtRHBmHDgWPZcUxoc89zyLzW59iqCk/cVZQVs6Ojruag/iPwI6dZOkA0oKEfnMh2PHjt011/xY4YzKNt7poI/cH6cHKyfiHCM4lugnc833kz7znoXvKHWZ80ls5usmeTeEEEIIIYQQQgghhChmSsYRMGbMGPeTXO1JQJhvavrO/ve/TbZhQ6PLLY6wSVqTMJK5EMyaNcvmzp3rRGNy3BNFjgiKaIqgyjGixREv2azWR+7TFiLVT506Zd9++60T0xHPm5qanBhLWhy/CgIBmroI0Dt27Oiry2a6iNrV1dV3rZhA+CZ1CqKwbwOR4rSRaxkPjhEdjzOjpqbGRYPTRu6FgN/a2uraTT9IF9Pc3Ozq0FfE6BCEcHLw0yYKv+MMID1SttRAjAfR+mzO65+H2Et0PZH6CM6I3qEgnA88AwcJYjl55rlf0v4igHs77Ny509kZZwp24H5xY1NIQscTz2SssSfjzTtC20KHUFK494QJE9wYsLqAuUiefuZ0Y2Ojc3ZhL+oxduCdEz5/P+1hjmLPXJwizA/GDgcNfeD3JO+GEEIIIYQQQgghhBDFidn/AUeDbo+divIdAAAAAElFTkSuQmCC;" vertex="1" parent="1">
          <mxGeometry x="130.25" y="1169" width="536.75" height="260" as="geometry" />
        </mxCell>
        <mxCell id="x-n8w8ZSXr3gTca9L0IO-100" value="Multiplizeirt mit" style="text;html=1;align=center;verticalAlign=middle;resizable=0;points=[];autosize=1;strokeColor=none;fillColor=none;" vertex="1" parent="1">
          <mxGeometry x="300" y="1065" width="100" height="30" as="geometry" />
        </mxCell>
        <mxCell id="x-n8w8ZSXr3gTca9L0IO-101" value="Ergbit:" style="text;html=1;align=center;verticalAlign=middle;resizable=0;points=[];autosize=1;strokeColor=none;fillColor=none;" vertex="1" parent="1">
          <mxGeometry x="507" y="1058" width="60" height="30" as="geometry" />
        </mxCell>
        <mxCell id="x-n8w8ZSXr3gTca9L0IO-102" value="" style="endArrow=classic;html=1;rounded=0;" edge="1" parent="1">
          <mxGeometry width="50" height="50" relative="1" as="geometry">
            <mxPoint x="600" y="1040" as="sourcePoint" />
            <mxPoint x="680" y="1120" as="targetPoint" />
          </mxGeometry>
        </mxCell>
        <mxCell id="x-n8w8ZSXr3gTca9L0IO-103" value="Richtungsvektor (neu)" style="edgeLabel;html=1;align=center;verticalAlign=middle;resizable=0;points=[];" vertex="1" connectable="0" parent="x-n8w8ZSXr3gTca9L0IO-102">
          <mxGeometry x="0.0559" y="-3" relative="1" as="geometry">
            <mxPoint x="-40" y="-60" as="offset" />
          </mxGeometry>
        </mxCell>
        <mxCell id="x-n8w8ZSXr3gTca9L0IO-106" value="" style="endArrow=classic;html=1;rounded=0;" edge="1" parent="1">
          <mxGeometry width="50" height="50" relative="1" as="geometry">
            <mxPoint x="310" y="1070" as="sourcePoint" />
            <mxPoint x="310" y="1150" as="targetPoint" />
          </mxGeometry>
        </mxCell>
        <mxCell id="x-n8w8ZSXr3gTca9L0IO-107" value="Gravitation (1g)&lt;div&gt;x = 0&lt;/div&gt;&lt;div&gt;y = -1&lt;/div&gt;" style="edgeLabel;html=1;align=center;verticalAlign=middle;resizable=0;points=[];" vertex="1" connectable="0" parent="x-n8w8ZSXr3gTca9L0IO-106">
          <mxGeometry x="0.0559" y="-3" relative="1" as="geometry">
            <mxPoint y="-72" as="offset" />
          </mxGeometry>
        </mxCell>
        <mxCell id="x-n8w8ZSXr3gTca9L0IO-108" value="Probleme mit der Cell herausfindung" style="text;html=1;align=center;verticalAlign=middle;whiteSpace=wrap;rounded=0;" vertex="1" parent="1">
          <mxGeometry x="319" y="1480" width="170" height="30" as="geometry" />
        </mxCell>
        <mxCell id="x-n8w8ZSXr3gTca9L0IO-109" value="" style="endArrow=none;html=1;rounded=0;dashed=1;" edge="1" parent="1">
          <mxGeometry width="50" height="50" relative="1" as="geometry">
            <mxPoint x="9" y="1510" as="sourcePoint" />
            <mxPoint x="819" y="1510" as="targetPoint" />
          </mxGeometry>
        </mxCell>
        <mxCell id="x-n8w8ZSXr3gTca9L0IO-111" value="" style="whiteSpace=wrap;html=1;aspect=fixed;" vertex="1" parent="1">
          <mxGeometry x="90" y="1560" width="80" height="80" as="geometry" />
        </mxCell>
        <mxCell id="x-n8w8ZSXr3gTca9L0IO-112" value="" style="whiteSpace=wrap;html=1;aspect=fixed;" vertex="1" parent="1">
          <mxGeometry x="170" y="1560" width="80" height="80" as="geometry" />
        </mxCell>
        <mxCell id="x-n8w8ZSXr3gTca9L0IO-113" value="" style="whiteSpace=wrap;html=1;aspect=fixed;" vertex="1" parent="1">
          <mxGeometry x="90" y="1640" width="80" height="80" as="geometry" />
        </mxCell>
        <mxCell id="x-n8w8ZSXr3gTca9L0IO-114" value="" style="whiteSpace=wrap;html=1;aspect=fixed;" vertex="1" parent="1">
          <mxGeometry x="250" y="1560" width="80" height="80" as="geometry" />
        </mxCell>
        <mxCell id="x-n8w8ZSXr3gTca9L0IO-115" value="" style="whiteSpace=wrap;html=1;aspect=fixed;" vertex="1" parent="1">
          <mxGeometry x="330" y="1560" width="80" height="80" as="geometry" />
        </mxCell>
        <mxCell id="x-n8w8ZSXr3gTca9L0IO-116" value="" style="whiteSpace=wrap;html=1;aspect=fixed;" vertex="1" parent="1">
          <mxGeometry x="250" y="1640" width="80" height="80" as="geometry" />
        </mxCell>
        <mxCell id="x-n8w8ZSXr3gTca9L0IO-117" value="" style="whiteSpace=wrap;html=1;aspect=fixed;" vertex="1" parent="1">
          <mxGeometry x="330" y="1640" width="80" height="80" as="geometry" />
        </mxCell>
        <mxCell id="x-n8w8ZSXr3gTca9L0IO-118" value="" style="whiteSpace=wrap;html=1;aspect=fixed;" vertex="1" parent="1">
          <mxGeometry x="90" y="1720" width="80" height="80" as="geometry" />
        </mxCell>
        <mxCell id="x-n8w8ZSXr3gTca9L0IO-119" value="" style="whiteSpace=wrap;html=1;aspect=fixed;" vertex="1" parent="1">
          <mxGeometry x="170" y="1720" width="80" height="80" as="geometry" />
        </mxCell>
        <mxCell id="x-n8w8ZSXr3gTca9L0IO-120" value="" style="whiteSpace=wrap;html=1;aspect=fixed;" vertex="1" parent="1">
          <mxGeometry x="90" y="1800" width="80" height="80" as="geometry" />
        </mxCell>
        <mxCell id="x-n8w8ZSXr3gTca9L0IO-121" value="Neue Position" style="whiteSpace=wrap;html=1;aspect=fixed;" vertex="1" parent="1">
          <mxGeometry x="170" y="1800" width="80" height="80" as="geometry" />
        </mxCell>
        <mxCell id="x-n8w8ZSXr3gTca9L0IO-122" value="" style="whiteSpace=wrap;html=1;aspect=fixed;" vertex="1" parent="1">
          <mxGeometry x="250" y="1720" width="80" height="80" as="geometry" />
        </mxCell>
        <mxCell id="x-n8w8ZSXr3gTca9L0IO-123" value="" style="whiteSpace=wrap;html=1;aspect=fixed;" vertex="1" parent="1">
          <mxGeometry x="330" y="1720" width="80" height="80" as="geometry" />
        </mxCell>
        <mxCell id="x-n8w8ZSXr3gTca9L0IO-124" value="" style="whiteSpace=wrap;html=1;aspect=fixed;" vertex="1" parent="1">
          <mxGeometry x="250" y="1800" width="80" height="80" as="geometry" />
        </mxCell>
        <mxCell id="x-n8w8ZSXr3gTca9L0IO-125" value="" style="whiteSpace=wrap;html=1;aspect=fixed;" vertex="1" parent="1">
          <mxGeometry x="330" y="1800" width="80" height="80" as="geometry" />
        </mxCell>
        <mxCell id="x-n8w8ZSXr3gTca9L0IO-135" value="Element" style="whiteSpace=wrap;html=1;aspect=fixed;" vertex="1" parent="1">
          <mxGeometry x="170" y="1640" width="80" height="80" as="geometry" />
        </mxCell>
        <mxCell id="x-n8w8ZSXr3gTca9L0IO-136" value="" style="endArrow=classic;html=1;rounded=0;" edge="1" parent="1">
          <mxGeometry width="50" height="50" relative="1" as="geometry">
            <mxPoint x="210" y="1680" as="sourcePoint" />
            <mxPoint x="230" y="1840" as="targetPoint" />
          </mxGeometry>
        </mxCell>
        <mxCell id="x-n8w8ZSXr3gTca9L0IO-138" value="Problem:&amp;nbsp;&lt;div&gt;Vektoren richten sich nicht an die Grid Zell Position. Um die Positione der neuen Elemente im Grid Zell herauszufinden müssen wir eine Formel bzw Berechnung herausfinden&lt;/div&gt;" style="text;html=1;align=left;verticalAlign=middle;whiteSpace=wrap;rounded=0;" vertex="1" parent="1">
          <mxGeometry x="54" y="1940" width="360" height="80" as="geometry" />
        </mxCell>
        <mxCell id="x-n8w8ZSXr3gTca9L0IO-139" value="" style="endArrow=classic;html=1;rounded=0;" edge="1" parent="1">
          <mxGeometry width="50" height="50" relative="1" as="geometry">
            <mxPoint x="90" y="1920" as="sourcePoint" />
            <mxPoint x="230" y="1920" as="targetPoint" />
          </mxGeometry>
        </mxCell>
        <mxCell id="x-n8w8ZSXr3gTca9L0IO-140" value="18 px" style="edgeLabel;html=1;align=center;verticalAlign=middle;resizable=0;points=[];" vertex="1" connectable="0" parent="x-n8w8ZSXr3gTca9L0IO-139">
          <mxGeometry x="-0.1063" relative="1" as="geometry">
            <mxPoint as="offset" />
          </mxGeometry>
        </mxCell>
        <mxCell id="x-n8w8ZSXr3gTca9L0IO-141" value="" style="endArrow=classic;html=1;rounded=0;" edge="1" parent="1">
          <mxGeometry width="50" height="50" relative="1" as="geometry">
            <mxPoint x="40" y="1880" as="sourcePoint" />
            <mxPoint x="40" y="1840" as="targetPoint" />
          </mxGeometry>
        </mxCell>
        <mxCell id="x-n8w8ZSXr3gTca9L0IO-142" value="5 px" style="edgeLabel;html=1;align=center;verticalAlign=middle;resizable=0;points=[];" vertex="1" connectable="0" parent="x-n8w8ZSXr3gTca9L0IO-141">
          <mxGeometry x="-0.1063" relative="1" as="geometry">
            <mxPoint as="offset" />
          </mxGeometry>
        </mxCell>
        <mxCell id="x-n8w8ZSXr3gTca9L0IO-143" value="" style="whiteSpace=wrap;html=1;aspect=fixed;" vertex="1" parent="1">
          <mxGeometry y="2160" width="80" height="80" as="geometry" />
        </mxCell>
        <mxCell id="x-n8w8ZSXr3gTca9L0IO-144" value="" style="whiteSpace=wrap;html=1;aspect=fixed;" vertex="1" parent="1">
          <mxGeometry x="80" y="2160" width="80" height="80" as="geometry" />
        </mxCell>
        <mxCell id="x-n8w8ZSXr3gTca9L0IO-145" value="" style="whiteSpace=wrap;html=1;aspect=fixed;" vertex="1" parent="1">
          <mxGeometry y="2240" width="80" height="80" as="geometry" />
        </mxCell>
        <mxCell id="x-n8w8ZSXr3gTca9L0IO-146" value="" style="whiteSpace=wrap;html=1;aspect=fixed;" vertex="1" parent="1">
          <mxGeometry x="160" y="2160" width="80" height="80" as="geometry" />
        </mxCell>
        <mxCell id="x-n8w8ZSXr3gTca9L0IO-147" value="" style="whiteSpace=wrap;html=1;aspect=fixed;" vertex="1" parent="1">
          <mxGeometry x="240" y="2160" width="80" height="80" as="geometry" />
        </mxCell>
        <mxCell id="x-n8w8ZSXr3gTca9L0IO-148" value="" style="whiteSpace=wrap;html=1;aspect=fixed;" vertex="1" parent="1">
          <mxGeometry x="160" y="2240" width="80" height="80" as="geometry" />
        </mxCell>
        <mxCell id="x-n8w8ZSXr3gTca9L0IO-149" value="" style="whiteSpace=wrap;html=1;aspect=fixed;" vertex="1" parent="1">
          <mxGeometry x="240" y="2240" width="80" height="80" as="geometry" />
        </mxCell>
        <mxCell id="x-n8w8ZSXr3gTca9L0IO-150" value="" style="whiteSpace=wrap;html=1;aspect=fixed;" vertex="1" parent="1">
          <mxGeometry y="2320" width="80" height="80" as="geometry" />
        </mxCell>
        <mxCell id="x-n8w8ZSXr3gTca9L0IO-151" value="" style="whiteSpace=wrap;html=1;aspect=fixed;" vertex="1" parent="1">
          <mxGeometry x="80" y="2320" width="80" height="80" as="geometry" />
        </mxCell>
        <mxCell id="x-n8w8ZSXr3gTca9L0IO-152" value="" style="whiteSpace=wrap;html=1;aspect=fixed;" vertex="1" parent="1">
          <mxGeometry y="2400" width="80" height="80" as="geometry" />
        </mxCell>
        <mxCell id="x-n8w8ZSXr3gTca9L0IO-153" value="" style="whiteSpace=wrap;html=1;aspect=fixed;" vertex="1" parent="1">
          <mxGeometry x="80" y="2400" width="80" height="80" as="geometry" />
        </mxCell>
        <mxCell id="x-n8w8ZSXr3gTca9L0IO-154" value="" style="whiteSpace=wrap;html=1;aspect=fixed;" vertex="1" parent="1">
          <mxGeometry x="160" y="2320" width="80" height="80" as="geometry" />
        </mxCell>
        <mxCell id="x-n8w8ZSXr3gTca9L0IO-155" value="" style="whiteSpace=wrap;html=1;aspect=fixed;" vertex="1" parent="1">
          <mxGeometry x="240" y="2320" width="80" height="80" as="geometry" />
        </mxCell>
        <mxCell id="x-n8w8ZSXr3gTca9L0IO-156" value="" style="whiteSpace=wrap;html=1;aspect=fixed;" vertex="1" parent="1">
          <mxGeometry x="160" y="2400" width="80" height="80" as="geometry" />
        </mxCell>
        <mxCell id="x-n8w8ZSXr3gTca9L0IO-157" value="" style="whiteSpace=wrap;html=1;aspect=fixed;" vertex="1" parent="1">
          <mxGeometry x="240" y="2400" width="80" height="80" as="geometry" />
        </mxCell>
        <mxCell id="x-n8w8ZSXr3gTca9L0IO-168" value="" style="group" vertex="1" connectable="0" parent="1">
          <mxGeometry x="40" y="2200" width="160" height="160" as="geometry" />
        </mxCell>
        <mxCell id="x-n8w8ZSXr3gTca9L0IO-158" value="Wasser&lt;div&gt;Pos = xy&lt;/div&gt;" style="whiteSpace=wrap;html=1;aspect=fixed;" vertex="1" parent="x-n8w8ZSXr3gTca9L0IO-168">
          <mxGeometry x="40" y="40" width="80" height="80" as="geometry" />
        </mxCell>
        <mxCell id="x-n8w8ZSXr3gTca9L0IO-160" value="" style="endArrow=classic;html=1;rounded=0;" edge="1" parent="x-n8w8ZSXr3gTca9L0IO-168">
          <mxGeometry width="50" height="50" relative="1" as="geometry">
            <mxPoint x="120" y="80" as="sourcePoint" />
            <mxPoint x="160" y="80" as="targetPoint" />
          </mxGeometry>
        </mxCell>
        <mxCell id="x-n8w8ZSXr3gTca9L0IO-165" value="1" style="edgeLabel;html=1;align=center;verticalAlign=middle;resizable=0;points=[];" vertex="1" connectable="0" parent="x-n8w8ZSXr3gTca9L0IO-160">
          <mxGeometry x="0.25" y="-1" relative="1" as="geometry">
            <mxPoint x="-5" y="-1" as="offset" />
          </mxGeometry>
        </mxCell>
        <mxCell id="x-n8w8ZSXr3gTca9L0IO-161" value="" style="endArrow=classic;html=1;rounded=0;" edge="1" parent="x-n8w8ZSXr3gTca9L0IO-168">
          <mxGeometry width="50" height="50" relative="1" as="geometry">
            <mxPoint x="80" y="39.5300000000002" as="sourcePoint" />
            <mxPoint x="80" as="targetPoint" />
          </mxGeometry>
        </mxCell>
        <mxCell id="x-n8w8ZSXr3gTca9L0IO-164" value="0" style="edgeLabel;html=1;align=center;verticalAlign=middle;resizable=0;points=[];" vertex="1" connectable="0" parent="x-n8w8ZSXr3gTca9L0IO-161">
          <mxGeometry x="-0.0319" y="3" relative="1" as="geometry">
            <mxPoint x="3" as="offset" />
          </mxGeometry>
        </mxCell>
        <mxCell id="x-n8w8ZSXr3gTca9L0IO-162" value="" style="endArrow=classic;html=1;rounded=0;" edge="1" parent="x-n8w8ZSXr3gTca9L0IO-168">
          <mxGeometry width="50" height="50" relative="1" as="geometry">
            <mxPoint x="40" y="79.5300000000002" as="sourcePoint" />
            <mxPoint y="80" as="targetPoint" />
          </mxGeometry>
        </mxCell>
        <mxCell id="x-n8w8ZSXr3gTca9L0IO-167" value="3" style="edgeLabel;html=1;align=center;verticalAlign=middle;resizable=0;points=[];" vertex="1" connectable="0" parent="x-n8w8ZSXr3gTca9L0IO-162">
          <mxGeometry x="0.2611" y="-1" relative="1" as="geometry">
            <mxPoint x="5" y="1" as="offset" />
          </mxGeometry>
        </mxCell>
        <mxCell id="x-n8w8ZSXr3gTca9L0IO-163" value="" style="endArrow=classic;html=1;rounded=0;" edge="1" parent="x-n8w8ZSXr3gTca9L0IO-168">
          <mxGeometry width="50" height="50" relative="1" as="geometry">
            <mxPoint x="80" y="120" as="sourcePoint" />
            <mxPoint x="80" y="160" as="targetPoint" />
          </mxGeometry>
        </mxCell>
        <mxCell id="x-n8w8ZSXr3gTca9L0IO-166" value="2" style="edgeLabel;html=1;align=center;verticalAlign=middle;resizable=0;points=[];" vertex="1" connectable="0" parent="x-n8w8ZSXr3gTca9L0IO-163">
          <mxGeometry x="-0.1895" y="-2" relative="1" as="geometry">
            <mxPoint x="2" as="offset" />
          </mxGeometry>
        </mxCell>
        <mxCell id="x-n8w8ZSXr3gTca9L0IO-169" value="Veränderung der Elemente, Einfluss" style="text;html=1;align=center;verticalAlign=middle;whiteSpace=wrap;rounded=0;" vertex="1" parent="1">
          <mxGeometry x="319" y="2110" width="170" height="30" as="geometry" />
        </mxCell>
        <mxCell id="x-n8w8ZSXr3gTca9L0IO-170" value="" style="endArrow=none;html=1;rounded=0;dashed=1;" edge="1" parent="1">
          <mxGeometry width="50" height="50" relative="1" as="geometry">
            <mxPoint x="9" y="2140" as="sourcePoint" />
            <mxPoint x="819" y="2140" as="targetPoint" />
          </mxGeometry>
        </mxCell>
        <mxCell id="x-n8w8ZSXr3gTca9L0IO-171" value="Jedes Element muss Kontrollieren ob ein Anders in der Nähe ist.&amp;nbsp;&lt;div&gt;Sobald das der Fall ist, müssen überprüft werden was mit diesem Element passiert.&lt;/div&gt;&lt;div&gt;&lt;br&gt;&lt;/div&gt;&lt;div&gt;Dies kann entweder pro element Passieren oder duch das Grid an sich.&lt;/div&gt;&lt;div&gt;&lt;br&gt;&lt;/div&gt;&lt;div&gt;Eine Optimierungsidee währe die Elemente nur Richtung des Vektors kontrollieren lassen.&lt;/div&gt;&lt;div&gt;&lt;br&gt;Zu klärende Fragen&lt;/div&gt;&lt;div&gt;- Das Element beinflusst nur sich selbst?&amp;nbsp;&lt;/div&gt;&lt;div&gt;- Das Element kann nur andere Elemente beineflussen?&lt;/div&gt;&lt;div&gt;- Element Beinflusst sich selbst zuerst dann das andere Element?&lt;/div&gt;" style="text;html=1;align=left;verticalAlign=middle;resizable=0;points=[];autosize=1;strokeColor=none;fillColor=none;" vertex="1" parent="1">
          <mxGeometry x="319" y="2160" width="500" height="170" as="geometry" />
        </mxCell>
      </root>
    </mxGraphModel>
  </diagram>
</mxfile>
